<svg width="118" height="17" viewBox="0 0 118 17" fill="none" xmlns="http://www.w3.org/2000/svg">
<path d="M2.41825 12L6.86625 1.952H0.722252V0.799999H8.24225V1.808L3.84225 12H2.41825ZM11.0236 12V11.056C11.781 10.4587 12.4956 9.856 13.1676 9.248C13.8503 8.62933 14.453 8.02133 14.9756 7.424C15.509 6.82667 15.925 6.24 16.2236 5.664C16.533 5.088 16.6876 4.53333 16.6876 4C16.6876 3.60533 16.6183 3.23733 16.4796 2.896C16.3516 2.55467 16.1383 2.28267 15.8396 2.08C15.541 1.86667 15.1356 1.76 14.6236 1.76C14.133 1.76 13.7223 1.872 13.3916 2.096C13.061 2.30933 12.8103 2.59733 12.6396 2.96C12.4796 3.32267 12.3996 3.712 12.3996 4.128H11.1036C11.1036 3.392 11.2583 2.76267 11.5676 2.24C11.877 1.70667 12.2983 1.30133 12.8316 1.024C13.365 0.746666 13.9676 0.608 14.6396 0.608C15.6316 0.608 16.4423 0.890666 17.0716 1.456C17.7116 2.01067 18.0316 2.84267 18.0316 3.952C18.0316 4.61333 17.8663 5.26933 17.5356 5.92C17.205 6.56 16.7836 7.184 16.2716 7.792C15.7596 8.38933 15.2103 8.94933 14.6236 9.472C14.0476 9.99467 13.509 10.464 13.0076 10.88H18.4156V12H11.0236ZM30.3503 12.192C29.6889 12.192 29.1396 12.08 28.7023 11.856C28.2649 11.632 27.9396 11.3333 27.7263 10.96C27.5129 10.5867 27.4063 10.1813 27.4063 9.744C27.4063 8.93333 27.7156 8.30933 28.3343 7.872C28.9529 7.43467 29.7956 7.216 30.8623 7.216H33.0063V7.12C33.0063 6.42667 32.8249 5.904 32.4623 5.552C32.0996 5.18933 31.6143 5.008 31.0063 5.008C30.4836 5.008 30.0303 5.14133 29.6463 5.408C29.2729 5.664 29.0383 6.04267 28.9423 6.544H27.5663C27.6196 5.968 27.8116 5.48267 28.1423 5.088C28.4836 4.69333 28.9049 4.39467 29.4063 4.192C29.9076 3.97867 30.4409 3.872 31.0063 3.872C32.1156 3.872 32.9476 4.17067 33.5023 4.768C34.0676 5.35467 34.3503 6.13867 34.3503 7.12V12H33.1503L33.0703 10.576C32.8463 11.024 32.5156 11.408 32.0783 11.728C31.6516 12.0373 31.0756 12.192 30.3503 12.192ZM30.5583 11.056C31.0703 11.056 31.5076 10.9227 31.8703 10.656C32.2436 10.3893 32.5263 10.0427 32.7183 9.616C32.9103 9.18933 33.0063 8.74133 33.0063 8.272V8.256H30.9743C30.1849 8.256 29.6249 8.39467 29.2943 8.672C28.9743 8.93867 28.8143 9.27467 28.8143 9.68C28.8143 10.096 28.9636 10.432 29.2623 10.688C29.5716 10.9333 30.0036 11.056 30.5583 11.056ZM39.9576 12L36.9496 4.064H38.3576L40.7416 10.704L43.1416 4.064H44.5176L41.5096 12H39.9576ZM49.8471 12.192C49.1858 12.192 48.6365 12.08 48.1991 11.856C47.7618 11.632 47.4365 11.3333 47.2231 10.96C47.0098 10.5867 46.9031 10.1813 46.9031 9.744C46.9031 8.93333 47.2125 8.30933 47.8311 7.872C48.4498 7.43467 49.2925 7.216 50.3591 7.216H52.5031V7.12C52.5031 6.42667 52.3218 5.904 51.9591 5.552C51.5965 5.18933 51.1111 5.008 50.5031 5.008C49.9805 5.008 49.5271 5.14133 49.1431 5.408C48.7698 5.664 48.5351 6.04267 48.4391 6.544H47.0631C47.1165 5.968 47.3085 5.48267 47.6391 5.088C47.9805 4.69333 48.4018 4.39467 48.9031 4.192C49.4045 3.97867 49.9378 3.872 50.5031 3.872C51.6125 3.872 52.4445 4.17067 52.9991 4.768C53.5645 5.35467 53.8471 6.13867 53.8471 7.12V12H52.6471L52.5671 10.576C52.3431 11.024 52.0125 11.408 51.5751 11.728C51.1485 12.0373 50.5725 12.192 49.8471 12.192ZM50.0551 11.056C50.5671 11.056 51.0045 10.9227 51.3671 10.656C51.7405 10.3893 52.0231 10.0427 52.2151 9.616C52.4071 9.18933 52.5031 8.74133 52.5031 8.272V8.256H50.4711C49.6818 8.256 49.1218 8.39467 48.7911 8.672C48.4711 8.93867 48.3111 9.27467 48.3111 9.68C48.3111 10.096 48.4605 10.432 48.7591 10.688C49.0685 10.9333 49.5005 11.056 50.0551 11.056ZM57.4634 12V0.48H58.8074V12H57.4634ZM63.4263 2.304C63.1596 2.304 62.9356 2.21867 62.7543 2.048C62.5836 1.86667 62.4983 1.64267 62.4983 1.376C62.4983 1.12 62.5836 0.906666 62.7543 0.735999C62.9356 0.565333 63.1596 0.48 63.4263 0.48C63.6823 0.48 63.9009 0.565333 64.0823 0.735999C64.2636 0.906666 64.3543 1.12 64.3543 1.376C64.3543 1.64267 64.2636 1.86667 64.0823 2.048C63.9009 2.21867 63.6823 2.304 63.4263 2.304ZM62.7543 12V4.064H64.0983V12H62.7543ZM70.6784 12.192C70.017 12.192 69.4677 12.08 69.0304 11.856C68.593 11.632 68.2677 11.3333 68.0544 10.96C67.841 10.5867 67.7344 10.1813 67.7344 9.744C67.7344 8.93333 68.0437 8.30933 68.6624 7.872C69.281 7.43467 70.1237 7.216 71.1904 7.216H73.3344V7.12C73.3344 6.42667 73.153 5.904 72.7904 5.552C72.4277 5.18933 71.9424 5.008 71.3344 5.008C70.8117 5.008 70.3584 5.14133 69.9744 5.408C69.601 5.664 69.3664 6.04267 69.2704 6.544H67.8944C67.9477 5.968 68.1397 5.48267 68.4704 5.088C68.8117 4.69333 69.233 4.39467 69.7344 4.192C70.2357 3.97867 70.769 3.872 71.3344 3.872C72.4437 3.872 73.2757 4.17067 73.8304 4.768C74.3957 5.35467 74.6784 6.13867 74.6784 7.12V12H73.4784L73.3984 10.576C73.1744 11.024 72.8437 11.408 72.4064 11.728C71.9797 12.0373 71.4037 12.192 70.6784 12.192ZM70.8864 11.056C71.3984 11.056 71.8357 10.9227 72.1984 10.656C72.5717 10.3893 72.8544 10.0427 73.0464 9.616C73.2384 9.18933 73.3344 8.74133 73.3344 8.272V8.256H71.3024C70.513 8.256 69.953 8.39467 69.6224 8.672C69.3024 8.93867 69.1424 9.27467 69.1424 9.68C69.1424 10.096 69.2917 10.432 69.5904 10.688C69.8997 10.9333 70.3317 11.056 70.8864 11.056ZM81.9426 12.192C81.1853 12.192 80.5026 12.0213 79.8946 11.68C79.2973 11.328 78.8226 10.8427 78.4706 10.224C78.1293 9.59467 77.9586 8.864 77.9586 8.032C77.9586 7.2 78.1293 6.47467 78.4706 5.856C78.8226 5.22667 79.2973 4.74133 79.8946 4.4C80.5026 4.048 81.1853 3.872 81.9426 3.872C82.8813 3.872 83.6706 4.11733 84.3106 4.608C84.9613 5.09867 85.372 5.75467 85.5426 6.576H84.1666C84.06 6.08533 83.7986 5.70667 83.3826 5.44C82.9666 5.16267 82.4813 5.024 81.9266 5.024C81.4786 5.024 81.0573 5.136 80.6626 5.36C80.268 5.584 79.948 5.92 79.7026 6.368C79.4573 6.816 79.3346 7.37067 79.3346 8.032C79.3346 8.69333 79.4573 9.248 79.7026 9.696C79.948 10.144 80.268 10.4853 80.6626 10.72C81.0573 10.944 81.4786 11.056 81.9266 11.056C82.4813 11.056 82.9666 10.9227 83.3826 10.656C83.7986 10.3787 84.06 9.98933 84.1666 9.488H85.5426C85.3826 10.288 84.9773 10.9387 84.3266 11.44C83.676 11.9413 82.8813 12.192 81.9426 12.192ZM80.7906 16.16V15.312H82.2626C82.988 15.312 83.3506 15.056 83.3506 14.544C83.3506 14.064 82.988 13.824 82.2626 13.824H81.4786V11.904H82.3746V13.024C82.9826 13.0133 83.4786 13.136 83.8626 13.392C84.2466 13.648 84.4386 14.0373 84.4386 14.56C84.4386 15.0613 84.2573 15.4507 83.8946 15.728C83.532 16.016 83.0733 16.16 82.5186 16.16H80.7906ZM92.6356 12.192C91.889 12.192 91.217 12.0213 90.6196 11.68C90.0223 11.3387 89.5476 10.8587 89.1956 10.24C88.8543 9.61067 88.6836 8.87467 88.6836 8.032C88.6836 7.18933 88.8596 6.45867 89.2116 5.84C89.5636 5.21067 90.0383 4.72533 90.6356 4.384C91.2436 4.04267 91.921 3.872 92.6676 3.872C93.4143 3.872 94.0863 4.04267 94.6836 4.384C95.281 4.72533 95.7503 5.21067 96.0916 5.84C96.4436 6.45867 96.6196 7.18933 96.6196 8.032C96.6196 8.87467 96.4436 9.61067 96.0916 10.24C95.7396 10.8587 95.2596 11.3387 94.6516 11.68C94.0543 12.0213 93.3823 12.192 92.6356 12.192ZM92.6356 11.04C93.0943 11.04 93.521 10.928 93.9156 10.704C94.3103 10.48 94.6303 10.144 94.8756 9.696C95.121 9.248 95.2436 8.69333 95.2436 8.032C95.2436 7.37067 95.121 6.816 94.8756 6.368C94.641 5.92 94.3263 5.584 93.9316 5.36C93.537 5.136 93.1156 5.024 92.6676 5.024C92.209 5.024 91.7823 5.136 91.3876 5.36C90.993 5.584 90.673 5.92 90.4276 6.368C90.1823 6.816 90.0596 7.37067 90.0596 8.032C90.0596 8.69333 90.1823 9.248 90.4276 9.696C90.673 10.144 90.9876 10.48 91.3716 10.704C91.7663 10.928 92.1876 11.04 92.6356 11.04ZM93.5476 3.168C93.2596 3.168 93.0196 3.104 92.8276 2.976C92.6463 2.848 92.4703 2.72533 92.2996 2.608C92.129 2.48 91.937 2.416 91.7236 2.416C91.329 2.416 91.0996 2.656 91.0356 3.136H90.2516C90.3263 2.592 90.497 2.18667 90.7636 1.92C91.041 1.65333 91.377 1.52 91.7716 1.52C92.0596 1.52 92.2943 1.584 92.4756 1.712C92.6676 1.84 92.849 1.968 93.0196 2.096C93.1903 2.21333 93.3876 2.272 93.6116 2.272C93.793 2.272 93.9476 2.21333 94.0756 2.096C94.2036 1.97867 94.2836 1.79733 94.3156 1.552H95.0836C95.0303 2.07467 94.8596 2.47467 94.5716 2.752C94.2943 3.02933 93.953 3.168 93.5476 3.168ZM103.656 12.192C102.899 12.192 102.227 12.0213 101.64 11.68C101.054 11.328 100.59 10.8427 100.248 10.224C99.9177 9.60533 99.7524 8.87467 99.7524 8.032C99.7524 7.2 99.9177 6.47467 100.248 5.856C100.579 5.22667 101.038 4.74133 101.624 4.4C102.222 4.048 102.91 3.872 103.688 3.872C104.456 3.872 105.118 4.048 105.672 4.4C106.238 4.74133 106.67 5.19467 106.968 5.76C107.267 6.32533 107.416 6.93333 107.416 7.584C107.416 7.70133 107.411 7.81867 107.4 7.936C107.4 8.05333 107.4 8.18667 107.4 8.336H101.08C101.112 8.944 101.251 9.45067 101.496 9.856C101.752 10.2507 102.067 10.5493 102.44 10.752C102.824 10.9547 103.23 11.056 103.656 11.056C104.211 11.056 104.675 10.928 105.048 10.672C105.422 10.416 105.694 10.0693 105.864 9.632H107.192C106.979 10.368 106.568 10.9813 105.96 11.472C105.363 11.952 104.595 12.192 103.656 12.192ZM103.656 5.008C103.016 5.008 102.446 5.20533 101.944 5.6C101.454 5.984 101.171 6.54933 101.096 7.296H106.088C106.056 6.58133 105.811 6.02133 105.352 5.616C104.894 5.21067 104.328 5.008 103.656 5.008ZM113.838 12.192C112.888 12.192 112.099 11.952 111.47 11.472C110.84 10.992 110.472 10.3413 110.366 9.52H111.742C111.827 9.936 112.046 10.2987 112.398 10.608C112.76 10.9067 113.246 11.056 113.854 11.056C114.419 11.056 114.835 10.9387 115.102 10.704C115.368 10.4587 115.502 10.1707 115.502 9.84C115.502 9.36 115.326 9.04 114.974 8.88C114.632 8.72 114.147 8.576 113.518 8.448C113.091 8.36267 112.664 8.24 112.238 8.08C111.811 7.92 111.454 7.696 111.166 7.408C110.878 7.10933 110.734 6.72 110.734 6.24C110.734 5.54667 110.99 4.98133 111.502 4.544C112.024 4.096 112.728 3.872 113.614 3.872C114.456 3.872 115.144 4.08533 115.678 4.512C116.222 4.928 116.536 5.52533 116.622 6.304H115.294C115.24 5.89867 115.064 5.584 114.766 5.36C114.478 5.12533 114.088 5.008 113.598 5.008C113.118 5.008 112.744 5.10933 112.478 5.312C112.222 5.51467 112.094 5.78133 112.094 6.112C112.094 6.432 112.259 6.68267 112.59 6.864C112.931 7.04533 113.39 7.2 113.966 7.328C114.456 7.43467 114.92 7.568 115.358 7.728C115.806 7.87733 116.168 8.10667 116.446 8.416C116.734 8.71467 116.878 9.152 116.878 9.728C116.888 10.4427 116.616 11.0347 116.062 11.504C115.518 11.9627 114.776 12.192 113.838 12.192Z" fill="white"/>
<path d="M0.306252 14H117.694V14.8H0.306252V14Z" fill="white"/>
</svg>
