<svg width="210" height="131" viewBox="0 0 210 131" fill="none" xmlns="http://www.w3.org/2000/svg">
<path d="M40.3145 60.8788C40.0554 60.3418 39.5077 60 38.9063 60C38.3049 60 37.7622 60.3418 37.4981 60.8788L34.3541 67.338L27.3327 68.3731C26.746 68.461 26.257 68.8711 26.0761 69.4325C25.8952 69.994 26.0419 70.614 26.4624 71.029L31.5573 76.0627L30.3545 83.1761C30.2567 83.762 30.5012 84.3576 30.9852 84.7043C31.4693 85.0509 32.1098 85.0948 32.6379 84.8166L38.9112 81.4722L45.1845 84.8166C45.7126 85.0948 46.3531 85.0558 46.8372 84.7043C47.3213 84.3527 47.5657 83.762 47.468 83.1761L46.2602 76.0627L51.3552 71.029C51.7757 70.614 51.9272 69.994 51.7414 69.4325C51.5556 68.8711 51.0716 68.461 50.4848 68.3731L43.4585 67.338L40.3145 60.8788Z" fill="#C9AB0D"/>
<path d="M73.3145 60.8788C73.0554 60.3418 72.5077 60 71.9063 60C71.3049 60 70.7622 60.3418 70.4981 60.8788L67.3541 67.338L60.3327 68.3731C59.746 68.461 59.257 68.8711 59.0761 69.4325C58.8952 69.994 59.0419 70.614 59.4624 71.029L64.5573 76.0627L63.3545 83.1761C63.2567 83.762 63.5012 84.3576 63.9852 84.7043C64.4693 85.0509 65.1098 85.0948 65.6379 84.8166L71.9112 81.4722L78.1845 84.8166C78.7126 85.0948 79.3531 85.0558 79.8372 84.7043C80.3213 84.3527 80.5657 83.762 80.468 83.1761L79.2602 76.0627L84.3552 71.029C84.7757 70.614 84.9272 69.994 84.7414 69.4325C84.5556 68.8711 84.0716 68.461 83.4848 68.3731L76.4585 67.338L73.3145 60.8788Z" fill="#C9AB0D"/>
<path d="M106.315 60.8788C106.055 60.3418 105.508 60 104.906 60C104.305 60 103.762 60.3418 103.498 60.8788L100.354 67.338L93.3327 68.3731C92.746 68.461 92.257 68.8711 92.0761 69.4325C91.8952 69.994 92.0419 70.614 92.4624 71.029L97.5573 76.0627L96.3545 83.1761C96.2567 83.762 96.5012 84.3576 96.9852 84.7043C97.4693 85.0509 98.1098 85.0948 98.6379 84.8166L104.911 81.4722L111.185 84.8166C111.713 85.0948 112.353 85.0558 112.837 84.7043C113.321 84.3527 113.566 83.762 113.468 83.1761L112.26 76.0627L117.355 71.029C117.776 70.614 117.927 69.994 117.741 69.4325C117.556 68.8711 117.072 68.461 116.485 68.3731L109.459 67.338L106.315 60.8788Z" fill="#C9AB0D"/>
<path d="M139.315 60.8788C139.055 60.3418 138.508 60 137.906 60C137.305 60 136.762 60.3418 136.498 60.8788L133.354 67.338L126.333 68.3731C125.746 68.461 125.257 68.8711 125.076 69.4325C124.895 69.994 125.042 70.614 125.462 71.029L130.557 76.0627L129.354 83.1761C129.257 83.762 129.501 84.3576 129.985 84.7043C130.469 85.0509 131.11 85.0948 131.638 84.8166L137.911 81.4722L144.185 84.8166C144.713 85.0948 145.353 85.0558 145.837 84.7043C146.321 84.3527 146.566 83.762 146.468 83.1761L145.26 76.0627L150.355 71.029C150.776 70.614 150.927 69.994 150.741 69.4325C150.556 68.8711 150.072 68.461 149.485 68.3731L142.459 67.338L139.315 60.8788Z" fill="#C9AB0D"/>
<path d="M172.315 60.8788C172.055 60.3418 171.508 60 170.906 60C170.305 60 169.762 60.3418 169.498 60.8788L166.354 67.338L159.333 68.3731C158.746 68.461 158.257 68.8711 158.076 69.4325C157.895 69.994 158.042 70.614 158.462 71.029L163.557 76.0627L162.354 83.1761C162.257 83.762 162.501 84.3576 162.985 84.7043C163.469 85.0509 164.11 85.0948 164.638 84.8166L170.911 81.4722L177.185 84.8166C177.713 85.0948 178.353 85.0558 178.837 84.7043C179.321 84.3527 179.566 83.762 179.468 83.1761L178.26 76.0627L183.355 71.029C183.776 70.614 183.927 69.994 183.741 69.4325C183.556 68.8711 183.072 68.461 182.485 68.3731L175.459 67.338L172.315 60.8788Z" fill="#C9AB0D"/>
<mask id="mask0_38_299" style="mask-type:luminance" maskUnits="userSpaceOnUse" x="0" y="0" width="210" height="60">
<path d="M210 0H0V60H210V0Z" fill="white"/>
</mask>
<g mask="url(#mask0_38_299)">
<path fill-rule="evenodd" clip-rule="evenodd" d="M190.534 27.542V25.1913H186.929V39.1791H190.534V30.792C190.534 29.2727 191.509 28.5274 193.028 28.5274H195V25.1913H193.314C191.996 25.1913 190.849 25.8793 190.534 27.542ZM144.953 35.3486L141.754 25.1913H137.976L142.775 39.1791H147.102L151.929 25.1913H148.152L144.953 35.3486ZM75.1811 20.2127H61.3846V23.4212H66.4911V39.1791H70.0744V23.4212H75.1811V20.2127ZM181.961 32.1852C181.961 30.0161 180.203 28.2577 178.034 28.2577C175.864 28.2577 174.106 30.0161 174.106 32.1852C174.106 34.3544 175.864 36.1129 178.034 36.1129C180.203 36.1129 181.961 34.3544 181.961 32.1852ZM185.264 32.1852C185.264 36.1785 182.027 39.4153 178.034 39.4153C174.041 39.4153 170.804 36.1785 170.804 32.1852C170.804 28.1921 174.041 24.9551 178.034 24.9551C182.027 24.9551 185.264 28.1921 185.264 32.1852ZM155.231 19.6581C153.999 19.6581 153.053 20.6327 153.053 21.8654C153.053 23.0693 153.999 24.0438 155.231 24.0438C156.464 24.0438 157.41 23.0693 157.41 21.8654C157.41 20.6327 156.464 19.6581 155.231 19.6581ZM153.434 39.1791H157.029V25.1915H153.434V39.1791ZM133.138 32.1852C133.138 30.0161 131.379 28.2577 129.21 28.2577C127.041 28.2577 125.283 30.0161 125.283 32.1852C125.283 34.3544 127.041 36.1129 129.21 36.1129C131.379 36.1129 133.138 34.3544 133.138 32.1852ZM133.138 20.2127H136.733V39.1791H133.138V37.9963C131.967 38.8875 130.505 39.4153 128.893 39.4153C124.9 39.4153 121.663 36.1785 121.663 32.1852C121.663 28.1921 124.9 24.9551 128.893 24.9551C130.505 24.9551 131.967 25.4829 133.138 26.3743V20.2127ZM116.555 32.1855C116.555 30.0164 114.797 28.2577 112.628 28.2577C110.459 28.2577 108.7 30.0161 108.7 32.1852C108.7 34.3544 110.459 36.1129 112.628 36.1129C114.797 36.1129 116.555 34.3547 116.555 32.1855ZM116.555 25.1913H120.151V39.1791H116.555V37.9963C115.384 38.8875 113.923 39.4153 112.311 39.4153C108.318 39.4153 105.081 36.1785 105.081 32.1852C105.081 28.1921 108.318 24.9551 112.311 24.9551C113.923 24.9551 115.384 25.4829 116.555 26.3743V25.1913ZM166.308 30.9581L164.21 30.3825C162.829 30.0233 162.292 29.5993 162.292 28.8702C162.292 28.159 163.047 27.6623 164.129 27.6623C165.159 27.6623 165.966 28.3374 165.966 29.199V29.2786H169.281V29.199C169.281 26.6606 167.211 24.9551 164.129 24.9551C161.076 24.9551 158.86 26.6593 158.86 29.0073C158.86 30.8343 160.072 32.2103 162.183 32.7823L164.192 33.33C165.719 33.7525 166.287 34.222 166.287 35.0617C166.287 35.9482 165.466 36.5439 164.245 36.5439C162.972 36.5439 162.117 35.7389 162.117 34.5413V34.4617H158.598V34.5413C158.598 37.4109 160.909 39.4153 164.216 39.4153C167.404 39.4153 169.718 37.4577 169.718 34.7604C169.718 33.4407 169.126 31.7098 166.308 30.9581ZM100.177 32.1852C100.177 30.0161 98.4188 28.2577 96.2497 28.2577C94.0806 28.2577 92.3222 30.0161 92.3222 32.1852C92.3222 34.3544 94.0806 36.1129 96.2497 36.1129C98.4188 36.1129 100.177 34.3544 100.177 32.1852ZM103.797 32.1852C103.797 36.1785 100.56 39.4153 96.5664 39.4153C94.9549 39.4153 93.4932 38.8875 92.3222 37.9963V43.2854H88.7266V25.1913H92.3222V26.3743C93.4932 25.4829 94.9549 24.9551 96.5664 24.9551C100.56 24.9551 103.797 28.1921 103.797 32.1852ZM83.0685 39.1791H86.6642V25.1915H83.0685V39.1791ZM84.8663 19.6581C83.6338 19.6581 82.6878 20.6327 82.6878 21.8654C82.6878 23.0693 83.6338 24.0438 84.8663 24.0438C86.0989 24.0438 87.0449 23.0693 87.0449 21.8654C87.0449 20.6327 86.0989 19.6581 84.8663 19.6581ZM77.0227 27.542V25.1913H73.4176V39.1791H77.0227V30.792C77.0227 29.2727 77.9975 28.5274 79.5165 28.5274H81.4888V25.1913H79.8032C78.4846 25.1913 77.3381 25.8793 77.0227 27.542ZM54.3843 31.9318C54.3843 27.9293 51.1397 24.6847 47.1372 24.6847C43.1347 24.6847 39.89 27.9293 39.89 31.9318C39.89 35.9343 43.1347 39.1791 47.1372 39.1791C51.1397 39.1791 54.3843 35.9343 54.3843 31.9318ZM44.4729 21.1126C41.9971 20.077 39.2799 19.5039 36.4286 19.5039C33.5782 19.5039 30.8621 20.0771 28.3872 21.1121C32.9618 22.862 36.4307 26.9541 36.4307 31.7232C36.4307 26.9544 39.8989 22.8626 44.4729 21.1126ZM32.9667 31.9318C32.9667 27.9293 29.7221 24.6847 25.7196 24.6847C21.7171 24.6847 18.4725 27.9293 18.4725 31.9318C18.4725 35.9343 21.7171 39.1791 25.7196 39.1791C29.7221 39.1791 32.9667 35.9343 32.9667 31.9318ZM57.8503 31.9318C57.8503 37.8462 53.0515 42.6406 47.1372 42.6406C44.3279 42.6406 41.7718 41.5583 39.8616 39.7883L36.4307 43.5215L32.9975 39.7866C31.0873 41.5575 28.5301 42.6406 25.7196 42.6406C19.8054 42.6406 15.011 37.8462 15.011 31.9318C15.011 28.7969 16.3572 25.9759 18.5039 24.0174L15 20.2048H22.7881C26.672 17.5519 31.3555 16 36.4286 16C41.5082 16 46.204 17.5497 50.093 20.2048H57.8612L54.3571 24.0174C56.5041 25.9759 57.8503 28.7969 57.8503 31.9318ZM47.1573 28.1039C45.0551 28.1039 43.351 29.8081 43.351 31.9102C43.351 34.0123 45.0551 35.7163 47.1573 35.7163C49.2594 35.7163 50.9634 34.0123 50.9634 31.9102C50.9634 29.8081 49.2594 28.1039 47.1573 28.1039ZM29.5058 31.9102C29.5058 34.0123 27.8016 35.7163 25.6996 35.7163C23.5975 35.7163 21.8935 34.0123 21.8935 31.9102C21.8935 29.8081 23.5975 28.1039 25.6996 28.1039C27.8016 28.1039 29.5058 29.8081 29.5058 31.9102Z" fill="white"/>
</g>
<path d="M41.2408 126V125.056C41.9981 124.459 42.7128 123.856 43.3848 123.248C44.0675 122.629 44.6701 122.021 45.1928 121.424C45.7261 120.827 46.1421 120.24 46.4408 119.664C46.7501 119.088 46.9048 118.533 46.9048 118C46.9048 117.605 46.8355 117.237 46.6968 116.896C46.5688 116.555 46.3555 116.283 46.0568 116.08C45.7581 115.867 45.3528 115.76 44.8408 115.76C44.3501 115.76 43.9395 115.872 43.6088 116.096C43.2781 116.309 43.0275 116.597 42.8568 116.96C42.6968 117.323 42.6168 117.712 42.6168 118.128H41.3208C41.3208 117.392 41.4755 116.763 41.7848 116.24C42.0941 115.707 42.5155 115.301 43.0488 115.024C43.5821 114.747 44.1848 114.608 44.8568 114.608C45.8488 114.608 46.6595 114.891 47.2888 115.456C47.9288 116.011 48.2488 116.843 48.2488 117.952C48.2488 118.613 48.0835 119.269 47.7528 119.92C47.4221 120.56 47.0008 121.184 46.4888 121.792C45.9768 122.389 45.4275 122.949 44.8408 123.472C44.2648 123.995 43.7261 124.464 43.2248 124.88H48.6328V126H41.2408ZM51.9971 126V125.056C52.7544 124.459 53.4691 123.856 54.1411 123.248C54.8237 122.629 55.4264 122.021 55.9491 121.424C56.4824 120.827 56.8984 120.24 57.1971 119.664C57.5064 119.088 57.6611 118.533 57.6611 118C57.6611 117.605 57.5917 117.237 57.4531 116.896C57.3251 116.555 57.1117 116.283 56.8131 116.08C56.5144 115.867 56.1091 115.76 55.5971 115.76C55.1064 115.76 54.6957 115.872 54.3651 116.096C54.0344 116.309 53.7837 116.597 53.6131 116.96C53.4531 117.323 53.3731 117.712 53.3731 118.128H52.0771C52.0771 117.392 52.2317 116.763 52.5411 116.24C52.8504 115.707 53.2717 115.301 53.8051 115.024C54.3384 114.747 54.9411 114.608 55.6131 114.608C56.6051 114.608 57.4157 114.891 58.0451 115.456C58.6851 116.011 59.0051 116.843 59.0051 117.952C59.0051 118.613 58.8397 119.269 58.5091 119.92C58.1784 120.56 57.7571 121.184 57.2451 121.792C56.7331 122.389 56.1837 122.949 55.5971 123.472C55.0211 123.995 54.4824 124.464 53.9811 124.88H59.3891V126H51.9971ZM66.3597 126.192C65.6237 126.192 64.9624 126.059 64.3757 125.792C63.789 125.515 63.325 125.136 62.9837 124.656C62.653 124.165 62.4877 123.6 62.4877 122.96C62.4877 122.277 62.685 121.664 63.0797 121.12C63.485 120.576 64.0184 120.213 64.6797 120.032C64.0717 119.829 63.6024 119.504 63.2717 119.056C62.941 118.608 62.7757 118.117 62.7757 117.584C62.7757 117.04 62.9197 116.544 63.2077 116.096C63.4957 115.637 63.9064 115.275 64.4397 115.008C64.973 114.741 65.613 114.608 66.3597 114.608C67.1064 114.608 67.7464 114.741 68.2797 115.008C68.813 115.275 69.2237 115.637 69.5117 116.096C69.7997 116.544 69.9437 117.04 69.9437 117.584C69.9437 118.107 69.7784 118.597 69.4477 119.056C69.117 119.504 68.6477 119.829 68.0397 120.032C68.701 120.213 69.229 120.576 69.6237 121.12C70.029 121.664 70.2317 122.277 70.2317 122.96C70.2317 123.6 70.061 124.165 69.7197 124.656C69.389 125.136 68.9304 125.515 68.3437 125.792C67.757 126.059 67.0957 126.192 66.3597 126.192ZM66.3597 119.552C67.0424 119.552 67.581 119.381 67.9757 119.04C68.381 118.688 68.5837 118.229 68.5837 117.664C68.5837 117.035 68.3864 116.56 67.9917 116.24C67.597 115.92 67.053 115.76 66.3597 115.76C65.6664 115.76 65.1224 115.92 64.7277 116.24C64.3437 116.56 64.1517 117.035 64.1517 117.664C64.1517 118.229 64.349 118.688 64.7437 119.04C65.1384 119.381 65.677 119.552 66.3597 119.552ZM66.3597 125.008C67.2024 125.008 67.8317 124.816 68.2477 124.432C68.6744 124.037 68.8877 123.52 68.8877 122.88C68.8877 122.155 68.6584 121.605 68.1997 121.232C67.741 120.859 67.1277 120.672 66.3597 120.672C65.5917 120.672 64.9784 120.859 64.5197 121.232C64.061 121.605 63.8317 122.155 63.8317 122.88C63.8317 123.52 64.0397 124.037 64.4557 124.432C64.8824 124.816 65.517 125.008 66.3597 125.008ZM82.4237 126.192C81.7624 126.192 81.213 126.08 80.7757 125.856C80.3384 125.632 80.013 125.333 79.7997 124.96C79.5864 124.587 79.4797 124.181 79.4797 123.744C79.4797 122.933 79.789 122.309 80.4077 121.872C81.0264 121.435 81.869 121.216 82.9357 121.216H85.0797V121.12C85.0797 120.427 84.8984 119.904 84.5357 119.552C84.173 119.189 83.6877 119.008 83.0797 119.008C82.557 119.008 82.1037 119.141 81.7197 119.408C81.3464 119.664 81.1117 120.043 81.0157 120.544H79.6397C79.693 119.968 79.885 119.483 80.2157 119.088C80.557 118.693 80.9784 118.395 81.4797 118.192C81.981 117.979 82.5144 117.872 83.0797 117.872C84.189 117.872 85.021 118.171 85.5757 118.768C86.141 119.355 86.4237 120.139 86.4237 121.12V126H85.2237L85.1437 124.576C84.9197 125.024 84.589 125.408 84.1517 125.728C83.725 126.037 83.149 126.192 82.4237 126.192ZM82.6317 125.056C83.1437 125.056 83.581 124.923 83.9437 124.656C84.317 124.389 84.5997 124.043 84.7917 123.616C84.9837 123.189 85.0797 122.741 85.0797 122.272V122.256H83.0477C82.2584 122.256 81.6984 122.395 81.3677 122.672C81.0477 122.939 80.8877 123.275 80.8877 123.68C80.8877 124.096 81.037 124.432 81.3357 124.688C81.645 124.933 82.077 125.056 82.6317 125.056ZM92.0311 126L89.0231 118.064H90.4311L92.8151 124.704L95.2151 118.064H96.5911L93.5831 126H92.0311ZM101.921 126.192C101.259 126.192 100.71 126.08 100.273 125.856C99.8352 125.632 99.5099 125.333 99.2966 124.96C99.0832 124.587 98.9766 124.181 98.9766 123.744C98.9766 122.933 99.2859 122.309 99.9046 121.872C100.523 121.435 101.366 121.216 102.433 121.216H104.577V121.12C104.577 120.427 104.395 119.904 104.033 119.552C103.67 119.189 103.185 119.008 102.577 119.008C102.054 119.008 101.601 119.141 101.217 119.408C100.843 119.664 100.609 120.043 100.513 120.544H99.1366C99.1899 119.968 99.3819 119.483 99.7126 119.088C100.054 118.693 100.475 118.395 100.977 118.192C101.478 117.979 102.011 117.872 102.577 117.872C103.686 117.872 104.518 118.171 105.073 118.768C105.638 119.355 105.921 120.139 105.921 121.12V126H104.721L104.641 124.576C104.417 125.024 104.086 125.408 103.649 125.728C103.222 126.037 102.646 126.192 101.921 126.192ZM102.129 125.056C102.641 125.056 103.078 124.923 103.441 124.656C103.814 124.389 104.097 124.043 104.289 123.616C104.481 123.189 104.577 122.741 104.577 122.272V122.256H102.545C101.755 122.256 101.195 122.395 100.865 122.672C100.545 122.939 100.385 123.275 100.385 123.68C100.385 124.096 100.534 124.432 100.833 124.688C101.142 124.933 101.574 125.056 102.129 125.056ZM109.537 126V114.48H110.881V126H109.537ZM115.5 116.304C115.233 116.304 115.009 116.219 114.828 116.048C114.657 115.867 114.572 115.643 114.572 115.376C114.572 115.12 114.657 114.907 114.828 114.736C115.009 114.565 115.233 114.48 115.5 114.48C115.756 114.48 115.974 114.565 116.156 114.736C116.337 114.907 116.428 115.12 116.428 115.376C116.428 115.643 116.337 115.867 116.156 116.048C115.974 116.219 115.756 116.304 115.5 116.304ZM114.828 126V118.064H116.172V126H114.828ZM122.752 126.192C122.09 126.192 121.541 126.08 121.104 125.856C120.666 125.632 120.341 125.333 120.128 124.96C119.914 124.587 119.808 124.181 119.808 123.744C119.808 122.933 120.117 122.309 120.736 121.872C121.354 121.435 122.197 121.216 123.264 121.216H125.408V121.12C125.408 120.427 125.226 119.904 124.864 119.552C124.501 119.189 124.016 119.008 123.408 119.008C122.885 119.008 122.432 119.141 122.048 119.408C121.674 119.664 121.44 120.043 121.344 120.544H119.968C120.021 119.968 120.213 119.483 120.544 119.088C120.885 118.693 121.306 118.395 121.808 118.192C122.309 117.979 122.842 117.872 123.408 117.872C124.517 117.872 125.349 118.171 125.904 118.768C126.469 119.355 126.752 120.139 126.752 121.12V126H125.552L125.472 124.576C125.248 125.024 124.917 125.408 124.48 125.728C124.053 126.037 123.477 126.192 122.752 126.192ZM122.96 125.056C123.472 125.056 123.909 124.923 124.272 124.656C124.645 124.389 124.928 124.043 125.12 123.616C125.312 123.189 125.408 122.741 125.408 122.272V122.256H123.376C122.586 122.256 122.026 122.395 121.696 122.672C121.376 122.939 121.216 123.275 121.216 123.68C121.216 124.096 121.365 124.432 121.664 124.688C121.973 124.933 122.405 125.056 122.96 125.056ZM134.016 126.192C133.259 126.192 132.576 126.021 131.968 125.68C131.371 125.328 130.896 124.843 130.544 124.224C130.203 123.595 130.032 122.864 130.032 122.032C130.032 121.2 130.203 120.475 130.544 119.856C130.896 119.227 131.371 118.741 131.968 118.4C132.576 118.048 133.259 117.872 134.016 117.872C134.955 117.872 135.744 118.117 136.384 118.608C137.035 119.099 137.445 119.755 137.616 120.576H136.24C136.133 120.085 135.872 119.707 135.456 119.44C135.04 119.163 134.555 119.024 134 119.024C133.552 119.024 133.131 119.136 132.736 119.36C132.341 119.584 132.021 119.92 131.776 120.368C131.531 120.816 131.408 121.371 131.408 122.032C131.408 122.693 131.531 123.248 131.776 123.696C132.021 124.144 132.341 124.485 132.736 124.72C133.131 124.944 133.552 125.056 134 125.056C134.555 125.056 135.04 124.923 135.456 124.656C135.872 124.379 136.133 123.989 136.24 123.488H137.616C137.456 124.288 137.051 124.939 136.4 125.44C135.749 125.941 134.955 126.192 134.016 126.192ZM132.864 130.16V129.312H134.336C135.061 129.312 135.424 129.056 135.424 128.544C135.424 128.064 135.061 127.824 134.336 127.824H133.552V125.904H134.448V127.024C135.056 127.013 135.552 127.136 135.936 127.392C136.32 127.648 136.512 128.037 136.512 128.56C136.512 129.061 136.331 129.451 135.968 129.728C135.605 130.016 135.147 130.16 134.592 130.16H132.864ZM144.709 126.192C143.962 126.192 143.29 126.021 142.693 125.68C142.096 125.339 141.621 124.859 141.269 124.24C140.928 123.611 140.757 122.875 140.757 122.032C140.757 121.189 140.933 120.459 141.285 119.84C141.637 119.211 142.112 118.725 142.709 118.384C143.317 118.043 143.994 117.872 144.741 117.872C145.488 117.872 146.16 118.043 146.757 118.384C147.354 118.725 147.824 119.211 148.165 119.84C148.517 120.459 148.693 121.189 148.693 122.032C148.693 122.875 148.517 123.611 148.165 124.24C147.813 124.859 147.333 125.339 146.725 125.68C146.128 126.021 145.456 126.192 144.709 126.192ZM144.709 125.04C145.168 125.04 145.594 124.928 145.989 124.704C146.384 124.48 146.704 124.144 146.949 123.696C147.194 123.248 147.317 122.693 147.317 122.032C147.317 121.371 147.194 120.816 146.949 120.368C146.714 119.92 146.4 119.584 146.005 119.36C145.61 119.136 145.189 119.024 144.741 119.024C144.282 119.024 143.856 119.136 143.461 119.36C143.066 119.584 142.746 119.92 142.501 120.368C142.256 120.816 142.133 121.371 142.133 122.032C142.133 122.693 142.256 123.248 142.501 123.696C142.746 124.144 143.061 124.48 143.445 124.704C143.84 124.928 144.261 125.04 144.709 125.04ZM145.621 117.168C145.333 117.168 145.093 117.104 144.901 116.976C144.72 116.848 144.544 116.725 144.373 116.608C144.202 116.48 144.01 116.416 143.797 116.416C143.402 116.416 143.173 116.656 143.109 117.136H142.325C142.4 116.592 142.57 116.187 142.837 115.92C143.114 115.653 143.45 115.52 143.845 115.52C144.133 115.52 144.368 115.584 144.549 115.712C144.741 115.84 144.922 115.968 145.093 116.096C145.264 116.213 145.461 116.272 145.685 116.272C145.866 116.272 146.021 116.213 146.149 116.096C146.277 115.979 146.357 115.797 146.389 115.552H147.157C147.104 116.075 146.933 116.475 146.645 116.752C146.368 117.029 146.026 117.168 145.621 117.168ZM155.73 126.192C154.972 126.192 154.3 126.021 153.714 125.68C153.127 125.328 152.663 124.843 152.322 124.224C151.991 123.605 151.826 122.875 151.826 122.032C151.826 121.2 151.991 120.475 152.322 119.856C152.652 119.227 153.111 118.741 153.698 118.4C154.295 118.048 154.983 117.872 155.762 117.872C156.53 117.872 157.191 118.048 157.746 118.4C158.311 118.741 158.743 119.195 159.042 119.76C159.34 120.325 159.49 120.933 159.49 121.584C159.49 121.701 159.484 121.819 159.474 121.936C159.474 122.053 159.474 122.187 159.474 122.336H153.154C153.186 122.944 153.324 123.451 153.57 123.856C153.826 124.251 154.14 124.549 154.514 124.752C154.898 124.955 155.303 125.056 155.73 125.056C156.284 125.056 156.748 124.928 157.122 124.672C157.495 124.416 157.767 124.069 157.938 123.632H159.266C159.052 124.368 158.642 124.981 158.034 125.472C157.436 125.952 156.668 126.192 155.73 126.192ZM155.73 119.008C155.09 119.008 154.519 119.205 154.018 119.6C153.527 119.984 153.244 120.549 153.17 121.296H158.162C158.13 120.581 157.884 120.021 157.426 119.616C156.967 119.211 156.402 119.008 155.73 119.008ZM165.911 126.192C164.962 126.192 164.173 125.952 163.543 125.472C162.914 124.992 162.546 124.341 162.439 123.52H163.815C163.901 123.936 164.119 124.299 164.471 124.608C164.834 124.907 165.319 125.056 165.927 125.056C166.493 125.056 166.909 124.939 167.175 124.704C167.442 124.459 167.575 124.171 167.575 123.84C167.575 123.36 167.399 123.04 167.047 122.88C166.706 122.72 166.221 122.576 165.591 122.448C165.165 122.363 164.738 122.24 164.311 122.08C163.885 121.92 163.527 121.696 163.239 121.408C162.951 121.109 162.807 120.72 162.807 120.24C162.807 119.547 163.063 118.981 163.575 118.544C164.098 118.096 164.802 117.872 165.687 117.872C166.53 117.872 167.218 118.085 167.751 118.512C168.295 118.928 168.61 119.525 168.695 120.304H167.367C167.314 119.899 167.138 119.584 166.839 119.36C166.551 119.125 166.162 119.008 165.671 119.008C165.191 119.008 164.818 119.109 164.551 119.312C164.295 119.515 164.167 119.781 164.167 120.112C164.167 120.432 164.333 120.683 164.663 120.864C165.005 121.045 165.463 121.2 166.039 121.328C166.53 121.435 166.994 121.568 167.431 121.728C167.879 121.877 168.242 122.107 168.519 122.416C168.807 122.715 168.951 123.152 168.951 123.728C168.962 124.443 168.69 125.035 168.135 125.504C167.591 125.963 166.85 126.192 165.911 126.192Z" fill="white"/>
<path d="M40.2328 128H169.767V128.8H40.2328V128Z" fill="white"/>
</svg>
