<svg width="210" height="131" viewBox="0 0 210 131" fill="none" xmlns="http://www.w3.org/2000/svg">
<path d="M40.3145 60.8788C40.0554 60.3418 39.5077 60 38.9063 60C38.3049 60 37.7622 60.3418 37.4981 60.8788L34.3541 67.338L27.3327 68.3731C26.746 68.461 26.257 68.8711 26.0761 69.4325C25.8952 69.994 26.0419 70.614 26.4624 71.029L31.5573 76.0627L30.3545 83.1761C30.2567 83.762 30.5012 84.3576 30.9852 84.7043C31.4693 85.0509 32.1098 85.0948 32.6379 84.8166L38.9112 81.4722L45.1845 84.8166C45.7126 85.0948 46.3531 85.0558 46.8372 84.7043C47.3213 84.3527 47.5657 83.762 47.468 83.1761L46.2602 76.0627L51.3552 71.029C51.7757 70.614 51.9272 69.994 51.7414 69.4325C51.5556 68.8711 51.0716 68.461 50.4848 68.3731L43.4585 67.338L40.3145 60.8788Z" fill="#C9AB0D"/>
<path d="M73.3145 60.8788C73.0554 60.3418 72.5077 60 71.9063 60C71.3049 60 70.7622 60.3418 70.4981 60.8788L67.3541 67.338L60.3327 68.3731C59.746 68.461 59.257 68.8711 59.0761 69.4325C58.8952 69.994 59.0419 70.614 59.4624 71.029L64.5573 76.0627L63.3545 83.1761C63.2567 83.762 63.5012 84.3576 63.9852 84.7043C64.4693 85.0509 65.1098 85.0948 65.6379 84.8166L71.9112 81.4722L78.1845 84.8166C78.7126 85.0948 79.3531 85.0558 79.8372 84.7043C80.3213 84.3527 80.5657 83.762 80.468 83.1761L79.2602 76.0627L84.3552 71.029C84.7757 70.614 84.9272 69.994 84.7414 69.4325C84.5556 68.8711 84.0716 68.461 83.4848 68.3731L76.4585 67.338L73.3145 60.8788Z" fill="#C9AB0D"/>
<path d="M106.315 60.8788C106.055 60.3418 105.508 60 104.906 60C104.305 60 103.762 60.3418 103.498 60.8788L100.354 67.338L93.3327 68.3731C92.746 68.461 92.257 68.8711 92.0761 69.4325C91.8952 69.994 92.0419 70.614 92.4624 71.029L97.5573 76.0627L96.3545 83.1761C96.2567 83.762 96.5012 84.3576 96.9852 84.7043C97.4693 85.0509 98.1098 85.0948 98.6379 84.8166L104.911 81.4722L111.185 84.8166C111.713 85.0948 112.353 85.0558 112.837 84.7043C113.321 84.3527 113.566 83.762 113.468 83.1761L112.26 76.0627L117.355 71.029C117.776 70.614 117.927 69.994 117.741 69.4325C117.556 68.8711 117.072 68.461 116.485 68.3731L109.459 67.338L106.315 60.8788Z" fill="#C9AB0D"/>
<path d="M139.315 60.8788C139.055 60.3418 138.508 60 137.906 60C137.305 60 136.762 60.3418 136.498 60.8788L133.354 67.338L126.333 68.3731C125.746 68.461 125.257 68.8711 125.076 69.4325C124.895 69.994 125.042 70.614 125.462 71.029L130.557 76.0627L129.354 83.1761C129.257 83.762 129.501 84.3576 129.985 84.7043C130.469 85.0509 131.11 85.0948 131.638 84.8166L137.911 81.4722L144.185 84.8166C144.713 85.0948 145.353 85.0558 145.837 84.7043C146.321 84.3527 146.566 83.762 146.468 83.1761L145.26 76.0627L150.355 71.029C150.776 70.614 150.927 69.994 150.741 69.4325C150.556 68.8711 150.072 68.461 149.485 68.3731L142.459 67.338L139.315 60.8788Z" fill="#C9AB0D"/>
<path d="M172.315 60.8788C172.055 60.3418 171.508 60 170.906 60C170.305 60 169.762 60.3418 169.498 60.8788L166.354 67.338L159.333 68.3731C158.746 68.461 158.257 68.8711 158.076 69.4325C157.895 69.994 158.042 70.614 158.462 71.029L163.557 76.0627L162.354 83.1761C162.257 83.762 162.501 84.3576 162.985 84.7043C163.469 85.0509 164.11 85.0948 164.638 84.8166L170.911 81.4722L177.185 84.8166C177.713 85.0948 178.353 85.0558 178.837 84.7043C179.321 84.3527 179.566 83.762 179.468 83.1761L178.26 76.0627L183.355 71.029C183.776 70.614 183.927 69.994 183.741 69.4325C183.556 68.8711 183.072 68.461 182.485 68.3731L175.459 67.338L172.315 60.8788Z" fill="#C9AB0D"/>
<path d="M48.4183 126L52.8663 115.952H46.7223V114.8H54.2423V115.808L49.8423 126H48.4183ZM57.0236 126V125.056C57.781 124.459 58.4956 123.856 59.1676 123.248C59.8503 122.629 60.453 122.021 60.9756 121.424C61.509 120.827 61.925 120.24 62.2236 119.664C62.533 119.088 62.6876 118.533 62.6876 118C62.6876 117.605 62.6183 117.237 62.4796 116.896C62.3516 116.555 62.1383 116.283 61.8396 116.08C61.541 115.867 61.1356 115.76 60.6236 115.76C60.133 115.76 59.7223 115.872 59.3916 116.096C59.061 116.309 58.8103 116.597 58.6396 116.96C58.4796 117.323 58.3996 117.712 58.3996 118.128H57.1036C57.1036 117.392 57.2583 116.763 57.5676 116.24C57.877 115.707 58.2983 115.301 58.8316 115.024C59.365 114.747 59.9676 114.608 60.6396 114.608C61.6316 114.608 62.4423 114.891 63.0716 115.456C63.7116 116.011 64.0316 116.843 64.0316 117.952C64.0316 118.613 63.8663 119.269 63.5356 119.92C63.205 120.56 62.7836 121.184 62.2716 121.792C61.7596 122.389 61.2103 122.949 60.6236 123.472C60.0476 123.995 59.509 124.464 59.0076 124.88H64.4156V126H57.0236ZM76.3503 126.192C75.6889 126.192 75.1396 126.08 74.7023 125.856C74.2649 125.632 73.9396 125.333 73.7263 124.96C73.5129 124.587 73.4063 124.181 73.4063 123.744C73.4063 122.933 73.7156 122.309 74.3343 121.872C74.9529 121.435 75.7956 121.216 76.8623 121.216H79.0063V121.12C79.0063 120.427 78.8249 119.904 78.4623 119.552C78.0996 119.189 77.6143 119.008 77.0063 119.008C76.4836 119.008 76.0303 119.141 75.6463 119.408C75.2729 119.664 75.0383 120.043 74.9423 120.544H73.5663C73.6196 119.968 73.8116 119.483 74.1423 119.088C74.4836 118.693 74.9049 118.395 75.4063 118.192C75.9076 117.979 76.4409 117.872 77.0063 117.872C78.1156 117.872 78.9476 118.171 79.5023 118.768C80.0676 119.355 80.3503 120.139 80.3503 121.12V126H79.1503L79.0703 124.576C78.8463 125.024 78.5156 125.408 78.0783 125.728C77.6516 126.037 77.0756 126.192 76.3503 126.192ZM76.5583 125.056C77.0703 125.056 77.5076 124.923 77.8703 124.656C78.2436 124.389 78.5263 124.043 78.7183 123.616C78.9103 123.189 79.0063 122.741 79.0063 122.272V122.256H76.9743C76.1849 122.256 75.6249 122.395 75.2943 122.672C74.9743 122.939 74.8143 123.275 74.8143 123.68C74.8143 124.096 74.9636 124.432 75.2623 124.688C75.5716 124.933 76.0036 125.056 76.5583 125.056ZM85.9576 126L82.9496 118.064H84.3576L86.7416 124.704L89.1416 118.064H90.5176L87.5096 126H85.9576ZM95.8471 126.192C95.1858 126.192 94.6365 126.08 94.1991 125.856C93.7618 125.632 93.4365 125.333 93.2231 124.96C93.0098 124.587 92.9031 124.181 92.9031 123.744C92.9031 122.933 93.2125 122.309 93.8311 121.872C94.4498 121.435 95.2925 121.216 96.3591 121.216H98.5031V121.12C98.5031 120.427 98.3218 119.904 97.9591 119.552C97.5965 119.189 97.1111 119.008 96.5031 119.008C95.9805 119.008 95.5271 119.141 95.1431 119.408C94.7698 119.664 94.5351 120.043 94.4391 120.544H93.0631C93.1165 119.968 93.3085 119.483 93.6391 119.088C93.9805 118.693 94.4018 118.395 94.9031 118.192C95.4045 117.979 95.9378 117.872 96.5031 117.872C97.6125 117.872 98.4445 118.171 98.9991 118.768C99.5645 119.355 99.8471 120.139 99.8471 121.12V126H98.6471L98.5671 124.576C98.3431 125.024 98.0125 125.408 97.5751 125.728C97.1485 126.037 96.5725 126.192 95.8471 126.192ZM96.0551 125.056C96.5671 125.056 97.0045 124.923 97.3671 124.656C97.7405 124.389 98.0231 124.043 98.2151 123.616C98.4071 123.189 98.5031 122.741 98.5031 122.272V122.256H96.4711C95.6818 122.256 95.1218 122.395 94.7911 122.672C94.4711 122.939 94.3111 123.275 94.3111 123.68C94.3111 124.096 94.4605 124.432 94.7591 124.688C95.0685 124.933 95.5005 125.056 96.0551 125.056ZM103.463 126V114.48H104.807V126H103.463ZM109.426 116.304C109.16 116.304 108.936 116.219 108.754 116.048C108.584 115.867 108.498 115.643 108.498 115.376C108.498 115.12 108.584 114.907 108.754 114.736C108.936 114.565 109.16 114.48 109.426 114.48C109.682 114.48 109.901 114.565 110.082 114.736C110.264 114.907 110.354 115.12 110.354 115.376C110.354 115.643 110.264 115.867 110.082 116.048C109.901 116.219 109.682 116.304 109.426 116.304ZM108.754 126V118.064H110.098V126H108.754ZM116.678 126.192C116.017 126.192 115.468 126.08 115.03 125.856C114.593 125.632 114.268 125.333 114.054 124.96C113.841 124.587 113.734 124.181 113.734 123.744C113.734 122.933 114.044 122.309 114.662 121.872C115.281 121.435 116.124 121.216 117.19 121.216H119.334V121.12C119.334 120.427 119.153 119.904 118.79 119.552C118.428 119.189 117.942 119.008 117.334 119.008C116.812 119.008 116.358 119.141 115.974 119.408C115.601 119.664 115.366 120.043 115.27 120.544H113.894C113.948 119.968 114.14 119.483 114.47 119.088C114.812 118.693 115.233 118.395 115.734 118.192C116.236 117.979 116.769 117.872 117.334 117.872C118.444 117.872 119.276 118.171 119.83 118.768C120.396 119.355 120.678 120.139 120.678 121.12V126H119.478L119.398 124.576C119.174 125.024 118.844 125.408 118.406 125.728C117.98 126.037 117.404 126.192 116.678 126.192ZM116.886 125.056C117.398 125.056 117.836 124.923 118.198 124.656C118.572 124.389 118.854 124.043 119.046 123.616C119.238 123.189 119.334 122.741 119.334 122.272V122.256H117.302C116.513 122.256 115.953 122.395 115.622 122.672C115.302 122.939 115.142 123.275 115.142 123.68C115.142 124.096 115.292 124.432 115.59 124.688C115.9 124.933 116.332 125.056 116.886 125.056ZM127.943 126.192C127.185 126.192 126.503 126.021 125.895 125.68C125.297 125.328 124.823 124.843 124.471 124.224C124.129 123.595 123.959 122.864 123.959 122.032C123.959 121.2 124.129 120.475 124.471 119.856C124.823 119.227 125.297 118.741 125.895 118.4C126.503 118.048 127.185 117.872 127.943 117.872C128.881 117.872 129.671 118.117 130.311 118.608C130.961 119.099 131.372 119.755 131.543 120.576H130.167C130.06 120.085 129.799 119.707 129.383 119.44C128.967 119.163 128.481 119.024 127.927 119.024C127.479 119.024 127.057 119.136 126.663 119.36C126.268 119.584 125.948 119.92 125.703 120.368C125.457 120.816 125.335 121.371 125.335 122.032C125.335 122.693 125.457 123.248 125.703 123.696C125.948 124.144 126.268 124.485 126.663 124.72C127.057 124.944 127.479 125.056 127.927 125.056C128.481 125.056 128.967 124.923 129.383 124.656C129.799 124.379 130.06 123.989 130.167 123.488H131.543C131.383 124.288 130.977 124.939 130.327 125.44C129.676 125.941 128.881 126.192 127.943 126.192ZM126.791 130.16V129.312H128.263C128.988 129.312 129.351 129.056 129.351 128.544C129.351 128.064 128.988 127.824 128.263 127.824H127.479V125.904H128.375V127.024C128.983 127.013 129.479 127.136 129.863 127.392C130.247 127.648 130.439 128.037 130.439 128.56C130.439 129.061 130.257 129.451 129.895 129.728C129.532 130.016 129.073 130.16 128.519 130.16H126.791ZM138.636 126.192C137.889 126.192 137.217 126.021 136.62 125.68C136.022 125.339 135.548 124.859 135.196 124.24C134.854 123.611 134.684 122.875 134.684 122.032C134.684 121.189 134.86 120.459 135.212 119.84C135.564 119.211 136.038 118.725 136.636 118.384C137.244 118.043 137.921 117.872 138.668 117.872C139.414 117.872 140.086 118.043 140.684 118.384C141.281 118.725 141.75 119.211 142.092 119.84C142.444 120.459 142.62 121.189 142.62 122.032C142.62 122.875 142.444 123.611 142.092 124.24C141.74 124.859 141.26 125.339 140.652 125.68C140.054 126.021 139.382 126.192 138.636 126.192ZM138.636 125.04C139.094 125.04 139.521 124.928 139.916 124.704C140.31 124.48 140.63 124.144 140.876 123.696C141.121 123.248 141.244 122.693 141.244 122.032C141.244 121.371 141.121 120.816 140.876 120.368C140.641 119.92 140.326 119.584 139.932 119.36C139.537 119.136 139.116 119.024 138.668 119.024C138.209 119.024 137.782 119.136 137.388 119.36C136.993 119.584 136.673 119.92 136.428 120.368C136.182 120.816 136.06 121.371 136.06 122.032C136.06 122.693 136.182 123.248 136.428 123.696C136.673 124.144 136.988 124.48 137.372 124.704C137.766 124.928 138.188 125.04 138.636 125.04ZM139.548 117.168C139.26 117.168 139.02 117.104 138.828 116.976C138.646 116.848 138.47 116.725 138.3 116.608C138.129 116.48 137.937 116.416 137.724 116.416C137.329 116.416 137.1 116.656 137.036 117.136H136.252C136.326 116.592 136.497 116.187 136.764 115.92C137.041 115.653 137.377 115.52 137.772 115.52C138.06 115.52 138.294 115.584 138.476 115.712C138.668 115.84 138.849 115.968 139.02 116.096C139.19 116.213 139.388 116.272 139.612 116.272C139.793 116.272 139.948 116.213 140.076 116.096C140.204 115.979 140.284 115.797 140.316 115.552H141.084C141.03 116.075 140.86 116.475 140.572 116.752C140.294 117.029 139.953 117.168 139.548 117.168ZM149.656 126.192C148.899 126.192 148.227 126.021 147.64 125.68C147.054 125.328 146.59 124.843 146.248 124.224C145.918 123.605 145.752 122.875 145.752 122.032C145.752 121.2 145.918 120.475 146.248 119.856C146.579 119.227 147.038 118.741 147.624 118.4C148.222 118.048 148.91 117.872 149.688 117.872C150.456 117.872 151.118 118.048 151.672 118.4C152.238 118.741 152.67 119.195 152.968 119.76C153.267 120.325 153.416 120.933 153.416 121.584C153.416 121.701 153.411 121.819 153.4 121.936C153.4 122.053 153.4 122.187 153.4 122.336H147.08C147.112 122.944 147.251 123.451 147.496 123.856C147.752 124.251 148.067 124.549 148.44 124.752C148.824 124.955 149.23 125.056 149.656 125.056C150.211 125.056 150.675 124.928 151.048 124.672C151.422 124.416 151.694 124.069 151.864 123.632H153.192C152.979 124.368 152.568 124.981 151.96 125.472C151.363 125.952 150.595 126.192 149.656 126.192ZM149.656 119.008C149.016 119.008 148.446 119.205 147.944 119.6C147.454 119.984 147.171 120.549 147.096 121.296H152.088C152.056 120.581 151.811 120.021 151.352 119.616C150.894 119.211 150.328 119.008 149.656 119.008ZM159.838 126.192C158.888 126.192 158.099 125.952 157.47 125.472C156.84 124.992 156.472 124.341 156.366 123.52H157.742C157.827 123.936 158.046 124.299 158.398 124.608C158.76 124.907 159.246 125.056 159.854 125.056C160.419 125.056 160.835 124.939 161.102 124.704C161.368 124.459 161.502 124.171 161.502 123.84C161.502 123.36 161.326 123.04 160.974 122.88C160.632 122.72 160.147 122.576 159.518 122.448C159.091 122.363 158.664 122.24 158.238 122.08C157.811 121.92 157.454 121.696 157.166 121.408C156.878 121.109 156.734 120.72 156.734 120.24C156.734 119.547 156.99 118.981 157.502 118.544C158.024 118.096 158.728 117.872 159.614 117.872C160.456 117.872 161.144 118.085 161.678 118.512C162.222 118.928 162.536 119.525 162.622 120.304H161.294C161.24 119.899 161.064 119.584 160.766 119.36C160.478 119.125 160.088 119.008 159.598 119.008C159.118 119.008 158.744 119.109 158.478 119.312C158.222 119.515 158.094 119.781 158.094 120.112C158.094 120.432 158.259 120.683 158.59 120.864C158.931 121.045 159.39 121.2 159.966 121.328C160.456 121.435 160.92 121.568 161.358 121.728C161.806 121.877 162.168 122.107 162.446 122.416C162.734 122.715 162.878 123.152 162.878 123.728C162.888 124.443 162.616 125.035 162.062 125.504C161.518 125.963 160.776 126.192 159.838 126.192Z" fill="white"/>
<path d="M46.3063 128H163.694V128.8H46.3063V128Z" fill="white"/>
</svg>
