<svg width="210" height="131" viewBox="0 0 210 131" fill="none" xmlns="http://www.w3.org/2000/svg">
<mask id="mask0_38_314" style="mask-type:luminance" maskUnits="userSpaceOnUse" x="0" y="0" width="210" height="60">
<path d="M210 0H0V60H210V0Z" fill="white"/>
</mask>
<g mask="url(#mask0_38_314)">
<path d="M69.425 21.05H84.6V23.875H78.625V39.8H75.35V23.875H69.4L69.425 21.05ZM83.95 26.225H86.75V28.85H86.8C86.9 28.475 87.075 28.125 87.325 27.775C87.575 27.425 87.875 27.1 88.25 26.825C88.6 26.525 89 26.3 89.45 26.125C89.875 25.95 90.325 25.85 90.775 25.85C91.125 25.85 91.375 25.875 91.5 25.875C91.625 25.9 91.775 25.925 91.9 25.925V28.8C91.7 28.75 91.475 28.725 91.25 28.7C91.025 28.675 90.825 28.65 90.6 28.65C90.1 28.65 89.625 28.75 89.175 28.95C88.725 29.15 88.35 29.45 88 29.825C87.675 30.225 87.4 30.7 87.2 31.275C87 31.85 86.9 32.525 86.9 33.275V39.725H83.9L83.95 26.225ZM105.65 39.8H102.7V37.9H102.65C102.275 38.6 101.725 39.125 101 39.55C100.275 39.975 99.525 40.175 98.775 40.175C97 40.175 95.7 39.75 94.9 38.85C94.1 37.975 93.7 36.625 93.7 34.85V26.225H96.7V34.55C96.7 35.75 96.925 36.6 97.4 37.075C97.85 37.575 98.5 37.825 99.325 37.825C99.95 37.825 100.475 37.725 100.9 37.525C101.325 37.325 101.675 37.075 101.925 36.75C102.2 36.425 102.375 36.025 102.5 35.575C102.625 35.125 102.675 34.625 102.675 34.1V26.225H105.675V39.8H105.65ZM110.75 35.45C110.85 36.325 111.175 36.925 111.75 37.3C112.325 37.65 113.025 37.825 113.825 37.825C114.1 37.825 114.425 37.8 114.775 37.75C115.125 37.7 115.475 37.625 115.775 37.5C116.1 37.375 116.35 37.2 116.55 36.95C116.75 36.7 116.85 36.4 116.825 36.025C116.8 35.65 116.675 35.325 116.4 35.075C116.125 34.825 115.8 34.65 115.4 34.475C115 34.325 114.525 34.2 114 34.1C113.475 34 112.95 33.875 112.4 33.75C111.85 33.625 111.3 33.475 110.775 33.3C110.25 33.125 109.8 32.9 109.375 32.575C108.975 32.275 108.625 31.9 108.4 31.425C108.15 30.95 108.025 30.4 108.025 29.7C108.025 28.95 108.2 28.35 108.575 27.85C108.925 27.35 109.4 26.95 109.95 26.65C110.5 26.35 111.125 26.125 111.8 26C112.475 25.875 113.125 25.825 113.725 25.825C114.425 25.825 115.1 25.9 115.725 26.05C116.35 26.2 116.95 26.425 117.45 26.775C117.975 27.1 118.4 27.55 118.725 28.075C119.075 28.6 119.275 29.25 119.375 30H116.25C116.1 29.275 115.775 28.8 115.275 28.55C114.75 28.3 114.175 28.175 113.5 28.175C113.3 28.175 113.025 28.2 112.75 28.225C112.45 28.275 112.2 28.325 111.925 28.425C111.675 28.525 111.45 28.675 111.275 28.85C111.1 29.025 111 29.275 111 29.575C111 29.95 111.125 30.225 111.375 30.45C111.625 30.675 111.95 30.85 112.375 31.025C112.775 31.175 113.25 31.3 113.775 31.4C114.3 31.5 114.85 31.625 115.4 31.75C115.95 31.875 116.475 32.025 117 32.2C117.525 32.375 118 32.6 118.4 32.925C118.8 33.225 119.15 33.6 119.4 34.05C119.65 34.5 119.775 35.075 119.775 35.725C119.775 36.525 119.6 37.2 119.225 37.775C118.85 38.325 118.375 38.8 117.8 39.15C117.225 39.5 116.55 39.75 115.85 39.925C115.125 40.075 114.425 40.175 113.725 40.175C112.875 40.175 112.075 40.075 111.35 39.875C110.625 39.675 109.975 39.375 109.45 39C108.925 38.6 108.5 38.125 108.2 37.525C107.9 36.95 107.725 36.25 107.7 35.425H110.725V35.45H110.75ZM120.625 26.225H122.9V22.125H125.9V26.2H128.6V28.425H125.9V35.675C125.9 36 125.925 36.25 125.95 36.5C125.975 36.725 126.05 36.925 126.125 37.075C126.225 37.225 126.375 37.35 126.55 37.425C126.75 37.5 127 37.55 127.35 37.55C127.55 37.55 127.775 37.55 127.975 37.525C128.175 37.5 128.4 37.475 128.6 37.425V39.75C128.275 39.8 127.95 39.825 127.625 39.85C127.3 39.9 127 39.9 126.65 39.9C125.85 39.9 125.225 39.825 124.75 39.675C124.275 39.525 123.9 39.3 123.625 39.025C123.35 38.725 123.175 38.375 123.075 37.95C122.975 37.525 122.925 37 122.9 36.45V28.45H120.625V26.175V26.225ZM130.7 26.225H133.525V28.075H133.575C134 27.275 134.575 26.725 135.325 26.375C136.075 26.025 136.875 25.85 137.775 25.85C138.85 25.85 139.775 26.025 140.575 26.425C141.375 26.8 142.025 27.3 142.55 27.975C143.075 28.625 143.475 29.4 143.725 30.275C143.975 31.15 144.125 32.1 144.125 33.075C144.125 34 144 34.875 143.775 35.725C143.525 36.575 143.175 37.35 142.7 38C142.225 38.65 141.625 39.175 140.875 39.575C140.125 39.975 139.275 40.175 138.275 40.175C137.85 40.175 137.4 40.125 136.975 40.05C136.55 39.975 136.125 39.85 135.725 39.675C135.325 39.5 134.95 39.275 134.625 39C134.275 38.725 134 38.4 133.775 38.05H133.725V44.825H130.725V26.225H130.7ZM141.175 33.025C141.175 32.425 141.1 31.825 140.925 31.25C140.775 30.675 140.525 30.175 140.2 29.725C139.875 29.275 139.475 28.925 139.025 28.65C138.55 28.375 138 28.25 137.4 28.25C136.15 28.25 135.2 28.675 134.55 29.55C133.925 30.425 133.6 31.6 133.6 33.05C133.6 33.75 133.675 34.375 133.85 34.95C134.025 35.525 134.25 36.025 134.6 36.45C134.925 36.875 135.325 37.2 135.8 37.45C136.275 37.7 136.8 37.825 137.425 37.825C138.125 37.825 138.675 37.675 139.15 37.4C139.625 37.125 140 36.75 140.325 36.325C140.625 35.875 140.85 35.375 140.975 34.8C141.1 34.2 141.175 33.625 141.175 33.025ZM146.45 21.05H149.45V23.875H146.45V21.05ZM146.45 26.225H149.45V39.8H146.45V26.225ZM152.125 21.05H155.125V39.8H152.125V21.05ZM164.275 40.175C163.2 40.175 162.225 40 161.375 39.625C160.525 39.25 159.825 38.775 159.225 38.15C158.65 37.525 158.2 36.75 157.9 35.875C157.6 35 157.425 34.025 157.425 33C157.425 31.975 157.575 31.025 157.9 30.15C158.2 29.275 158.65 28.525 159.225 27.875C159.8 27.25 160.525 26.75 161.375 26.4C162.225 26.05 163.2 25.85 164.275 25.85C165.35 25.85 166.325 26.025 167.175 26.4C168.025 26.75 168.725 27.25 169.325 27.875C169.9 28.5 170.35 29.275 170.65 30.15C170.95 31.025 171.125 31.975 171.125 33C171.125 34.05 170.975 35 170.65 35.875C170.325 36.75 169.9 37.5 169.325 38.15C168.75 38.775 168.025 39.275 167.175 39.625C166.325 39.975 165.375 40.175 164.275 40.175ZM164.275 37.8C164.925 37.8 165.525 37.65 166 37.375C166.5 37.1 166.875 36.725 167.2 36.275C167.525 35.825 167.75 35.3 167.9 34.75C168.05 34.175 168.125 33.6 168.125 33C168.125 32.425 168.05 31.85 167.9 31.275C167.75 30.7 167.525 30.2 167.2 29.75C166.875 29.3 166.475 28.95 166 28.675C165.5 28.4 164.925 28.25 164.275 28.25C163.625 28.25 163.025 28.4 162.55 28.675C162.05 28.95 161.675 29.325 161.35 29.75C161.025 30.2 160.8 30.7 160.65 31.275C160.5 31.85 160.425 32.425 160.425 33C160.425 33.6 160.5 34.175 160.65 34.75C160.8 35.325 161.025 35.825 161.35 36.275C161.675 36.725 162.075 37.1 162.55 37.375C163.05 37.675 163.625 37.8 164.275 37.8ZM172.025 26.225H174.3V22.125H177.3V26.2H180V28.425H177.3V35.675C177.3 36 177.325 36.25 177.35 36.5C177.375 36.725 177.45 36.925 177.525 37.075C177.625 37.225 177.775 37.35 177.95 37.425C178.15 37.5 178.4 37.55 178.75 37.55C178.95 37.55 179.175 37.55 179.375 37.525C179.575 37.5 179.8 37.475 180 37.425V39.75C179.675 39.8 179.35 39.825 179.025 39.85C178.7 39.9 178.4 39.9 178.05 39.9C177.25 39.9 176.625 39.825 176.15 39.675C175.675 39.525 175.3 39.3 175.025 39.025C174.75 38.725 174.575 38.375 174.475 37.95C174.375 37.525 174.325 37 174.3 36.45V28.45H172.025V26.175V26.225Z" fill="white"/>
</g>
<mask id="mask1_38_314" style="mask-type:luminance" maskUnits="userSpaceOnUse" x="0" y="0" width="210" height="60">
<path d="M210 0H0V60H210V0Z" fill="white"/>
</mask>
<g mask="url(#mask1_38_314)">
<path d="M65.925 21.05H52.2L47.975 8L43.725 21.05L30 21.025L41.1 29.1L36.85 42.15L47.95 34.075L59.05 42.15L54.825 29.1L65.925 21.05Z" fill="white"/>
</g>
<mask id="mask2_38_314" style="mask-type:luminance" maskUnits="userSpaceOnUse" x="0" y="0" width="210" height="60">
<path d="M210 0H0V60H210V0Z" fill="white"/>
</mask>
<g mask="url(#mask2_38_314)">
<path d="M55.775 32.05L54.825 29.1L47.975 34.075L55.775 32.05Z" fill="white"/>
</g>
<path d="M40.3145 60.8788C40.0554 60.3418 39.5077 60 38.9063 60C38.3049 60 37.7622 60.3418 37.4981 60.8788L34.3541 67.338L27.3327 68.3731C26.746 68.461 26.257 68.8711 26.0761 69.4325C25.8952 69.994 26.0419 70.614 26.4624 71.029L31.5573 76.0627L30.3545 83.1761C30.2567 83.762 30.5012 84.3576 30.9852 84.7043C31.4693 85.0509 32.1098 85.0948 32.6379 84.8166L38.9112 81.4722L45.1845 84.8166C45.7126 85.0948 46.3531 85.0558 46.8372 84.7043C47.3213 84.3527 47.5657 83.762 47.468 83.1761L46.2602 76.0627L51.3552 71.029C51.7757 70.614 51.9272 69.994 51.7414 69.4325C51.5556 68.8711 51.0716 68.461 50.4848 68.3731L43.4585 67.338L40.3145 60.8788Z" fill="#C9AB0D"/>
<path d="M73.3145 60.8788C73.0554 60.3418 72.5077 60 71.9063 60C71.3049 60 70.7622 60.3418 70.4981 60.8788L67.3541 67.338L60.3327 68.3731C59.746 68.461 59.257 68.8711 59.0761 69.4325C58.8952 69.994 59.0419 70.614 59.4624 71.029L64.5573 76.0627L63.3545 83.1761C63.2567 83.762 63.5012 84.3576 63.9852 84.7043C64.4693 85.0509 65.1098 85.0948 65.6379 84.8166L71.9112 81.4722L78.1845 84.8166C78.7126 85.0948 79.3531 85.0558 79.8372 84.7043C80.3213 84.3527 80.5657 83.762 80.468 83.1761L79.2602 76.0627L84.3552 71.029C84.7757 70.614 84.9272 69.994 84.7414 69.4325C84.5556 68.8711 84.0716 68.461 83.4848 68.3731L76.4585 67.338L73.3145 60.8788Z" fill="#C9AB0D"/>
<path d="M106.315 60.8788C106.055 60.3418 105.508 60 104.906 60C104.305 60 103.762 60.3418 103.498 60.8788L100.354 67.338L93.3327 68.3731C92.746 68.461 92.257 68.8711 92.0761 69.4325C91.8952 69.994 92.0419 70.614 92.4624 71.029L97.5573 76.0627L96.3545 83.1761C96.2567 83.762 96.5012 84.3576 96.9852 84.7043C97.4693 85.0509 98.1098 85.0948 98.6379 84.8166L104.911 81.4722L111.185 84.8166C111.713 85.0948 112.353 85.0558 112.837 84.7043C113.321 84.3527 113.566 83.762 113.468 83.1761L112.26 76.0627L117.355 71.029C117.776 70.614 117.927 69.994 117.741 69.4325C117.556 68.8711 117.072 68.461 116.485 68.3731L109.459 67.338L106.315 60.8788Z" fill="#C9AB0D"/>
<path d="M139.315 60.8788C139.055 60.3418 138.508 60 137.906 60C137.305 60 136.762 60.3418 136.498 60.8788L133.354 67.338L126.333 68.3731C125.746 68.461 125.257 68.8711 125.076 69.4325C124.895 69.994 125.042 70.614 125.462 71.029L130.557 76.0627L129.354 83.1761C129.257 83.762 129.501 84.3576 129.985 84.7043C130.469 85.0509 131.11 85.0948 131.638 84.8166L137.911 81.4722L144.185 84.8166C144.713 85.0948 145.353 85.0558 145.837 84.7043C146.321 84.3527 146.566 83.762 146.468 83.1761L145.26 76.0627L150.355 71.029C150.776 70.614 150.927 69.994 150.741 69.4325C150.556 68.8711 150.072 68.461 149.485 68.3731L142.459 67.338L139.315 60.8788Z" fill="#C9AB0D"/>
<path d="M172.315 60.8788C172.055 60.3418 171.508 60 170.906 60C170.305 60 169.762 60.3418 169.498 60.8788L166.354 67.338L159.333 68.3731C158.746 68.461 158.257 68.8711 158.076 69.4325C157.895 69.994 158.042 70.614 158.462 71.029L163.557 76.0627L162.354 83.1761C162.257 83.762 162.501 84.3576 162.985 84.7043C163.469 85.0509 164.11 85.0948 164.638 84.8166L170.911 81.4722L177.185 84.8166C177.713 85.0948 178.353 85.0558 178.837 84.7043C179.321 84.3527 179.566 83.762 179.468 83.1761L178.26 76.0627L183.355 71.029C183.776 70.614 183.927 69.994 183.741 69.4325C183.556 68.8711 183.072 68.461 182.485 68.3731L175.459 67.338L172.315 60.8788Z" fill="#C9AB0D"/>
<path d="M47.3958 126V116.304L45.5878 116.704V115.776L47.8438 114.8H48.7558V126H47.3958ZM53.8239 126V116.304L52.0159 116.704V115.776L54.2719 114.8H55.1839V126H53.8239ZM62.6361 126.192C61.9214 126.192 61.2761 126.064 60.7001 125.808C60.1241 125.541 59.6601 125.147 59.3081 124.624C58.9667 124.101 58.7854 123.451 58.7641 122.672H60.1241C60.1347 123.312 60.3587 123.867 60.7961 124.336C61.2334 124.795 61.8467 125.024 62.6361 125.024C63.4254 125.024 64.0174 124.805 64.4121 124.368C64.8174 123.931 65.0201 123.403 65.0201 122.784C65.0201 122.261 64.8921 121.835 64.6361 121.504C64.3907 121.173 64.0547 120.928 63.6281 120.768C63.2121 120.608 62.7534 120.528 62.2521 120.528H61.4201V119.392H62.2521C62.9774 119.392 63.5427 119.227 63.9481 118.896C64.3641 118.565 64.5721 118.101 64.5721 117.504C64.5721 117.003 64.4067 116.592 64.0761 116.272C63.7561 115.941 63.2761 115.776 62.6361 115.776C62.0174 115.776 61.5214 115.963 61.1481 116.336C60.7747 116.699 60.5667 117.157 60.5241 117.712H59.1641C59.1961 117.104 59.3561 116.565 59.6441 116.096C59.9427 115.627 60.3481 115.264 60.8601 115.008C61.3721 114.741 61.9641 114.608 62.6361 114.608C63.3614 114.608 63.9641 114.736 64.4441 114.992C64.9347 115.248 65.3027 115.589 65.5481 116.016C65.8041 116.443 65.9321 116.912 65.9321 117.424C65.9321 117.989 65.7774 118.507 65.4681 118.976C65.1587 119.435 64.6947 119.744 64.0761 119.904C64.7374 120.043 65.2867 120.357 65.7241 120.848C66.1614 121.339 66.3801 121.984 66.3801 122.784C66.3801 123.403 66.2361 123.973 65.9481 124.496C65.6707 125.008 65.2547 125.419 64.7001 125.728C64.1454 126.037 63.4574 126.192 62.6361 126.192ZM78.5487 126.192C77.8874 126.192 77.338 126.08 76.9007 125.856C76.4634 125.632 76.138 125.333 75.9247 124.96C75.7114 124.587 75.6047 124.181 75.6047 123.744C75.6047 122.933 75.914 122.309 76.5327 121.872C77.1514 121.435 77.994 121.216 79.0607 121.216H81.2047V121.12C81.2047 120.427 81.0234 119.904 80.6607 119.552C80.298 119.189 79.8127 119.008 79.2047 119.008C78.682 119.008 78.2287 119.141 77.8447 119.408C77.4714 119.664 77.2367 120.043 77.1407 120.544H75.7647C75.818 119.968 76.01 119.483 76.3407 119.088C76.682 118.693 77.1034 118.395 77.6047 118.192C78.106 117.979 78.6394 117.872 79.2047 117.872C80.314 117.872 81.146 118.171 81.7007 118.768C82.266 119.355 82.5487 120.139 82.5487 121.12V126H81.3487L81.2687 124.576C81.0447 125.024 80.714 125.408 80.2767 125.728C79.85 126.037 79.274 126.192 78.5487 126.192ZM78.7567 125.056C79.2687 125.056 79.706 124.923 80.0687 124.656C80.442 124.389 80.7247 124.043 80.9167 123.616C81.1087 123.189 81.2047 122.741 81.2047 122.272V122.256H79.1727C78.3834 122.256 77.8234 122.395 77.4927 122.672C77.1727 122.939 77.0127 123.275 77.0127 123.68C77.0127 124.096 77.162 124.432 77.4607 124.688C77.77 124.933 78.202 125.056 78.7567 125.056ZM88.1561 126L85.1481 118.064H86.5561L88.9401 124.704L91.3401 118.064H92.7161L89.7081 126H88.1561ZM98.0456 126.192C97.3842 126.192 96.8349 126.08 96.3976 125.856C95.9602 125.632 95.6349 125.333 95.4216 124.96C95.2082 124.587 95.1016 124.181 95.1016 123.744C95.1016 122.933 95.4109 122.309 96.0296 121.872C96.6482 121.435 97.4909 121.216 98.5576 121.216H100.702V121.12C100.702 120.427 100.52 119.904 100.158 119.552C99.7949 119.189 99.3096 119.008 98.7016 119.008C98.1789 119.008 97.7256 119.141 97.3416 119.408C96.9682 119.664 96.7336 120.043 96.6376 120.544H95.2616C95.3149 119.968 95.5069 119.483 95.8376 119.088C96.1789 118.693 96.6002 118.395 97.1016 118.192C97.6029 117.979 98.1362 117.872 98.7016 117.872C99.8109 117.872 100.643 118.171 101.198 118.768C101.763 119.355 102.046 120.139 102.046 121.12V126H100.846L100.766 124.576C100.542 125.024 100.211 125.408 99.7736 125.728C99.3469 126.037 98.7709 126.192 98.0456 126.192ZM98.2536 125.056C98.7656 125.056 99.2029 124.923 99.5656 124.656C99.9389 124.389 100.222 124.043 100.414 123.616C100.606 123.189 100.702 122.741 100.702 122.272V122.256H98.6696C97.8802 122.256 97.3202 122.395 96.9896 122.672C96.6696 122.939 96.5096 123.275 96.5096 123.68C96.5096 124.096 96.6589 124.432 96.9576 124.688C97.2669 124.933 97.6989 125.056 98.2536 125.056ZM105.662 126V114.48H107.006V126H105.662ZM111.625 116.304C111.358 116.304 111.134 116.219 110.953 116.048C110.782 115.867 110.697 115.643 110.697 115.376C110.697 115.12 110.782 114.907 110.953 114.736C111.134 114.565 111.358 114.48 111.625 114.48C111.881 114.48 112.099 114.565 112.281 114.736C112.462 114.907 112.553 115.12 112.553 115.376C112.553 115.643 112.462 115.867 112.281 116.048C112.099 116.219 111.881 116.304 111.625 116.304ZM110.953 126V118.064H112.297V126H110.953ZM118.877 126.192C118.215 126.192 117.666 126.08 117.229 125.856C116.791 125.632 116.466 125.333 116.253 124.96C116.039 124.587 115.933 124.181 115.933 123.744C115.933 122.933 116.242 122.309 116.861 121.872C117.479 121.435 118.322 121.216 119.389 121.216H121.533V121.12C121.533 120.427 121.351 119.904 120.989 119.552C120.626 119.189 120.141 119.008 119.533 119.008C119.01 119.008 118.557 119.141 118.173 119.408C117.799 119.664 117.565 120.043 117.469 120.544H116.093C116.146 119.968 116.338 119.483 116.669 119.088C117.01 118.693 117.431 118.395 117.933 118.192C118.434 117.979 118.967 117.872 119.533 117.872C120.642 117.872 121.474 118.171 122.029 118.768C122.594 119.355 122.877 120.139 122.877 121.12V126H121.677L121.597 124.576C121.373 125.024 121.042 125.408 120.605 125.728C120.178 126.037 119.602 126.192 118.877 126.192ZM119.085 125.056C119.597 125.056 120.034 124.923 120.397 124.656C120.77 124.389 121.053 124.043 121.245 123.616C121.437 123.189 121.533 122.741 121.533 122.272V122.256H119.501C118.711 122.256 118.151 122.395 117.821 122.672C117.501 122.939 117.341 123.275 117.341 123.68C117.341 124.096 117.49 124.432 117.789 124.688C118.098 124.933 118.53 125.056 119.085 125.056ZM130.141 126.192C129.384 126.192 128.701 126.021 128.093 125.68C127.496 125.328 127.021 124.843 126.669 124.224C126.328 123.595 126.157 122.864 126.157 122.032C126.157 121.2 126.328 120.475 126.669 119.856C127.021 119.227 127.496 118.741 128.093 118.4C128.701 118.048 129.384 117.872 130.141 117.872C131.08 117.872 131.869 118.117 132.509 118.608C133.16 119.099 133.57 119.755 133.741 120.576H132.365C132.258 120.085 131.997 119.707 131.581 119.44C131.165 119.163 130.68 119.024 130.125 119.024C129.677 119.024 129.256 119.136 128.861 119.36C128.466 119.584 128.146 119.92 127.901 120.368C127.656 120.816 127.533 121.371 127.533 122.032C127.533 122.693 127.656 123.248 127.901 123.696C128.146 124.144 128.466 124.485 128.861 124.72C129.256 124.944 129.677 125.056 130.125 125.056C130.68 125.056 131.165 124.923 131.581 124.656C131.997 124.379 132.258 123.989 132.365 123.488H133.741C133.581 124.288 133.176 124.939 132.525 125.44C131.874 125.941 131.08 126.192 130.141 126.192ZM128.989 130.16V129.312H130.461C131.186 129.312 131.549 129.056 131.549 128.544C131.549 128.064 131.186 127.824 130.461 127.824H129.677V125.904H130.573V127.024C131.181 127.013 131.677 127.136 132.061 127.392C132.445 127.648 132.637 128.037 132.637 128.56C132.637 129.061 132.456 129.451 132.093 129.728C131.73 130.016 131.272 130.16 130.717 130.16H128.989ZM140.834 126.192C140.087 126.192 139.415 126.021 138.818 125.68C138.221 125.339 137.746 124.859 137.394 124.24C137.053 123.611 136.882 122.875 136.882 122.032C136.882 121.189 137.058 120.459 137.41 119.84C137.762 119.211 138.237 118.725 138.834 118.384C139.442 118.043 140.119 117.872 140.866 117.872C141.613 117.872 142.285 118.043 142.882 118.384C143.479 118.725 143.949 119.211 144.29 119.84C144.642 120.459 144.818 121.189 144.818 122.032C144.818 122.875 144.642 123.611 144.29 124.24C143.938 124.859 143.458 125.339 142.85 125.68C142.253 126.021 141.581 126.192 140.834 126.192ZM140.834 125.04C141.293 125.04 141.719 124.928 142.114 124.704C142.509 124.48 142.829 124.144 143.074 123.696C143.319 123.248 143.442 122.693 143.442 122.032C143.442 121.371 143.319 120.816 143.074 120.368C142.839 119.92 142.525 119.584 142.13 119.36C141.735 119.136 141.314 119.024 140.866 119.024C140.407 119.024 139.981 119.136 139.586 119.36C139.191 119.584 138.871 119.92 138.626 120.368C138.381 120.816 138.258 121.371 138.258 122.032C138.258 122.693 138.381 123.248 138.626 123.696C138.871 124.144 139.186 124.48 139.57 124.704C139.965 124.928 140.386 125.04 140.834 125.04ZM141.746 117.168C141.458 117.168 141.218 117.104 141.026 116.976C140.845 116.848 140.669 116.725 140.498 116.608C140.327 116.48 140.135 116.416 139.922 116.416C139.527 116.416 139.298 116.656 139.234 117.136H138.45C138.525 116.592 138.695 116.187 138.962 115.92C139.239 115.653 139.575 115.52 139.97 115.52C140.258 115.52 140.493 115.584 140.674 115.712C140.866 115.84 141.047 115.968 141.218 116.096C141.389 116.213 141.586 116.272 141.81 116.272C141.991 116.272 142.146 116.213 142.274 116.096C142.402 115.979 142.482 115.797 142.514 115.552H143.282C143.229 116.075 143.058 116.475 142.77 116.752C142.493 117.029 142.151 117.168 141.746 117.168ZM151.855 126.192C151.097 126.192 150.425 126.021 149.839 125.68C149.252 125.328 148.788 124.843 148.447 124.224C148.116 123.605 147.951 122.875 147.951 122.032C147.951 121.2 148.116 120.475 148.447 119.856C148.777 119.227 149.236 118.741 149.823 118.4C150.42 118.048 151.108 117.872 151.887 117.872C152.655 117.872 153.316 118.048 153.871 118.4C154.436 118.741 154.868 119.195 155.167 119.76C155.465 120.325 155.615 120.933 155.615 121.584C155.615 121.701 155.609 121.819 155.599 121.936C155.599 122.053 155.599 122.187 155.599 122.336H149.279C149.311 122.944 149.449 123.451 149.695 123.856C149.951 124.251 150.265 124.549 150.639 124.752C151.023 124.955 151.428 125.056 151.855 125.056C152.409 125.056 152.873 124.928 153.247 124.672C153.62 124.416 153.892 124.069 154.063 123.632H155.391C155.177 124.368 154.767 124.981 154.159 125.472C153.561 125.952 152.793 126.192 151.855 126.192ZM151.855 119.008C151.215 119.008 150.644 119.205 150.143 119.6C149.652 119.984 149.369 120.549 149.295 121.296H154.287C154.255 120.581 154.009 120.021 153.551 119.616C153.092 119.211 152.527 119.008 151.855 119.008ZM162.036 126.192C161.087 126.192 160.298 125.952 159.668 125.472C159.039 124.992 158.671 124.341 158.564 123.52H159.94C160.026 123.936 160.244 124.299 160.596 124.608C160.959 124.907 161.444 125.056 162.052 125.056C162.618 125.056 163.034 124.939 163.3 124.704C163.567 124.459 163.7 124.171 163.7 123.84C163.7 123.36 163.524 123.04 163.172 122.88C162.831 122.72 162.346 122.576 161.716 122.448C161.29 122.363 160.863 122.24 160.436 122.08C160.01 121.92 159.652 121.696 159.364 121.408C159.076 121.109 158.932 120.72 158.932 120.24C158.932 119.547 159.188 118.981 159.7 118.544C160.223 118.096 160.927 117.872 161.812 117.872C162.655 117.872 163.343 118.085 163.876 118.512C164.42 118.928 164.735 119.525 164.82 120.304H163.492C163.439 119.899 163.263 119.584 162.964 119.36C162.676 119.125 162.287 119.008 161.796 119.008C161.316 119.008 160.943 119.109 160.676 119.312C160.42 119.515 160.292 119.781 160.292 120.112C160.292 120.432 160.458 120.683 160.788 120.864C161.13 121.045 161.588 121.2 162.164 121.328C162.655 121.435 163.119 121.568 163.556 121.728C164.004 121.877 164.367 122.107 164.644 122.416C164.932 122.715 165.076 123.152 165.076 123.728C165.087 124.443 164.815 125.035 164.26 125.504C163.716 125.963 162.975 126.192 162.036 126.192Z" fill="white"/>
<path d="M45.1078 128H165.892V128.8H45.1078V128Z" fill="white"/>
</svg>
