<svg width="272" height="292" viewBox="0 0 272 292" fill="none" xmlns="http://www.w3.org/2000/svg">
<path d="M4.17445 244V232.4L1.91445 232.92V231.36L5.01445 230H6.37445V244H4.17445ZM14.8188 244.24C13.5522 244.24 12.4588 243.94 11.5388 243.34C10.6322 242.727 9.93216 241.88 9.43883 240.8C8.95883 239.707 8.71883 238.44 8.71883 237C8.71883 235.56 8.95883 234.3 9.43883 233.22C9.93216 232.127 10.6322 231.28 11.5388 230.68C12.4588 230.067 13.5522 229.76 14.8188 229.76C16.0855 229.76 17.1722 230.067 18.0788 230.68C18.9855 231.28 19.6788 232.127 20.1588 233.22C20.6522 234.3 20.8988 235.56 20.8988 237C20.8988 238.44 20.6522 239.707 20.1588 240.8C19.6788 241.88 18.9855 242.727 18.0788 243.34C17.1722 243.94 16.0855 244.24 14.8188 244.24ZM14.8188 242.34C15.5788 242.34 16.2522 242.127 16.8388 241.7C17.4388 241.273 17.9055 240.66 18.2388 239.86C18.5722 239.06 18.7388 238.107 18.7388 237C18.7388 235.893 18.5722 234.94 18.2388 234.14C17.9055 233.34 17.4388 232.727 16.8388 232.3C16.2522 231.873 15.5788 231.66 14.8188 231.66C14.0455 231.66 13.3655 231.873 12.7788 232.3C12.1922 232.727 11.7322 233.34 11.3988 234.14C11.0655 234.94 10.8988 235.893 10.8988 237C10.8988 238.107 11.0655 239.06 11.3988 239.86C11.7322 240.66 12.1922 241.273 12.7788 241.7C13.3655 242.127 14.0455 242.34 14.8188 242.34ZM28.8618 244.24C27.5951 244.24 26.5018 243.94 25.5818 243.34C24.6751 242.727 23.9751 241.88 23.4818 240.8C23.0018 239.707 22.7618 238.44 22.7618 237C22.7618 235.56 23.0018 234.3 23.4818 233.22C23.9751 232.127 24.6751 231.28 25.5818 230.68C26.5018 230.067 27.5951 229.76 28.8618 229.76C30.1285 229.76 31.2151 230.067 32.1218 230.68C33.0285 231.28 33.7218 232.127 34.2018 233.22C34.6951 234.3 34.9418 235.56 34.9418 237C34.9418 238.44 34.6951 239.707 34.2018 240.8C33.7218 241.88 33.0285 242.727 32.1218 243.34C31.2151 243.94 30.1285 244.24 28.8618 244.24ZM28.8618 242.34C29.6218 242.34 30.2951 242.127 30.8818 241.7C31.4818 241.273 31.9485 240.66 32.2818 239.86C32.6151 239.06 32.7818 238.107 32.7818 237C32.7818 235.893 32.6151 234.94 32.2818 234.14C31.9485 233.34 31.4818 232.727 30.8818 232.3C30.2951 231.873 29.6218 231.66 28.8618 231.66C28.0885 231.66 27.4085 231.873 26.8218 232.3C26.2351 232.727 25.7751 233.34 25.4418 234.14C25.1085 234.94 24.9418 235.893 24.9418 237C24.9418 238.107 25.1085 239.06 25.4418 239.86C25.7751 240.66 26.2351 241.273 26.8218 241.7C27.4085 242.127 28.0885 242.34 28.8618 242.34ZM40.0048 236.68C39.3781 236.68 38.8114 236.54 38.3048 236.26C37.8114 235.98 37.4181 235.587 37.1248 235.08C36.8314 234.56 36.6848 233.94 36.6848 233.22C36.6848 232.513 36.8314 231.907 37.1248 231.4C37.4181 230.88 37.8181 230.48 38.3248 230.2C38.8314 229.92 39.3981 229.78 40.0248 229.78C40.6381 229.78 41.1914 229.92 41.6848 230.2C42.1914 230.48 42.5914 230.88 42.8848 231.4C43.1781 231.907 43.3248 232.513 43.3248 233.22C43.3248 233.94 43.1781 234.56 42.8848 235.08C42.5914 235.587 42.1914 235.98 41.6848 236.26C41.1914 236.54 40.6314 236.68 40.0048 236.68ZM39.0048 244L47.0248 230H49.1048L41.1048 244H39.0048ZM40.0048 235.16C40.4314 235.16 40.7981 235 41.1048 234.68C41.4248 234.347 41.5848 233.86 41.5848 233.22C41.5848 232.58 41.4314 232.1 41.1248 231.78C40.8181 231.447 40.4448 231.28 40.0048 231.28C39.5781 231.28 39.2048 231.447 38.8848 231.78C38.5648 232.1 38.4048 232.58 38.4048 233.22C38.4048 233.86 38.5581 234.347 38.8648 234.68C39.1848 235 39.5648 235.16 40.0048 235.16ZM48.2248 244.24C47.5981 244.24 47.0314 244.1 46.5248 243.82C46.0314 243.54 45.6381 243.147 45.3448 242.64C45.0514 242.12 44.9048 241.5 44.9048 240.78C44.9048 240.073 45.0514 239.46 45.3448 238.94C45.6381 238.42 46.0381 238.02 46.5448 237.74C47.0514 237.46 47.6181 237.32 48.2448 237.32C48.8581 237.32 49.4114 237.46 49.9048 237.74C50.4114 238.02 50.8114 238.42 51.1048 238.94C51.3981 239.46 51.5448 240.073 51.5448 240.78C51.5448 241.5 51.3981 242.12 51.1048 242.64C50.8114 243.147 50.4114 243.54 49.9048 243.82C49.4114 244.1 48.8514 244.24 48.2248 244.24ZM48.2248 242.7C48.6514 242.7 49.0181 242.54 49.3248 242.22C49.6448 241.9 49.8048 241.42 49.8048 240.78C49.8048 240.14 49.6514 239.66 49.3448 239.34C49.0381 239.007 48.6648 238.84 48.2248 238.84C47.7981 238.84 47.4248 239.007 47.1048 239.34C46.7848 239.66 46.6248 240.14 46.6248 240.78C46.6248 241.42 46.7781 241.9 47.0848 242.22C47.4048 242.54 47.7848 242.7 48.2248 242.7ZM63.2487 244.24C62.2887 244.24 61.442 244.013 60.7087 243.56C59.9753 243.107 59.402 242.487 58.9887 241.7C58.5753 240.913 58.3687 240.02 58.3687 239.02C58.3687 238.02 58.5753 237.133 58.9887 236.36C59.402 235.573 59.9753 234.96 60.7087 234.52C61.4553 234.067 62.3087 233.84 63.2687 233.84C64.0553 233.84 64.742 233.993 65.3287 234.3C65.9287 234.607 66.3953 235.04 66.7287 235.6V229.6H68.8487V244H66.9487L66.7287 242.46C66.4087 242.927 65.9687 243.34 65.4087 243.7C64.8487 244.06 64.1287 244.24 63.2487 244.24ZM63.6287 242.4C64.5353 242.4 65.2753 242.087 65.8487 241.46C66.4353 240.833 66.7287 240.027 66.7287 239.04C66.7287 238.04 66.4353 237.233 65.8487 236.62C65.2753 235.993 64.5353 235.68 63.6287 235.68C62.722 235.68 61.9753 235.993 61.3887 236.62C60.802 237.233 60.5087 238.04 60.5087 239.04C60.5087 239.693 60.642 240.273 60.9087 240.78C61.1753 241.287 61.542 241.687 62.0087 241.98C62.4887 242.26 63.0287 242.4 63.6287 242.4ZM76.1616 244.24C75.1883 244.24 74.3216 244.027 73.5616 243.6C72.815 243.16 72.2283 242.553 71.8016 241.78C71.375 241.007 71.1616 240.107 71.1616 239.08C71.1616 238.04 71.3683 237.127 71.7816 236.34C72.2083 235.553 72.795 234.94 73.5416 234.5C74.3016 234.06 75.1816 233.84 76.1816 233.84C77.155 233.84 78.0016 234.06 78.7216 234.5C79.4416 234.927 80.0016 235.5 80.4016 236.22C80.8016 236.94 81.0016 237.733 81.0016 238.6C81.0016 238.733 80.995 238.88 80.9816 239.04C80.9816 239.187 80.975 239.353 80.9616 239.54H73.2416C73.3083 240.5 73.6216 241.233 74.1816 241.74C74.755 242.233 75.415 242.48 76.1616 242.48C76.7616 242.48 77.2616 242.347 77.6616 242.08C78.075 241.8 78.3816 241.427 78.5816 240.96H80.7016C80.435 241.893 79.9016 242.673 79.1016 243.3C78.315 243.927 77.335 244.24 76.1616 244.24ZM76.1616 235.58C75.455 235.58 74.8283 235.793 74.2816 236.22C73.735 236.633 73.4016 237.26 73.2816 238.1H78.8816C78.8416 237.327 78.5683 236.713 78.0616 236.26C77.555 235.807 76.9216 235.58 76.1616 235.58ZM88.2404 248.4V234.08H90.1404L90.3604 235.62C90.6804 235.153 91.1204 234.74 91.6804 234.38C92.2404 234.02 92.9604 233.84 93.8404 233.84C94.8004 233.84 95.6471 234.067 96.3804 234.52C97.1137 234.973 97.6871 235.593 98.1004 236.38C98.5271 237.167 98.7404 238.06 98.7404 239.06C98.7404 240.06 98.5271 240.953 98.1004 241.74C97.6871 242.513 97.1137 243.127 96.3804 243.58C95.6471 244.02 94.7937 244.24 93.8204 244.24C93.0471 244.24 92.3604 244.087 91.7604 243.78C91.1737 243.473 90.7071 243.04 90.3604 242.48V248.4H88.2404ZM93.4604 242.4C94.3671 242.4 95.1137 242.093 95.7004 241.48C96.2871 240.853 96.5804 240.04 96.5804 239.04C96.5804 238.387 96.4471 237.807 96.1804 237.3C95.9137 236.793 95.5471 236.4 95.0804 236.12C94.6137 235.827 94.0737 235.68 93.4604 235.68C92.5537 235.68 91.8071 235.993 91.2204 236.62C90.6471 237.247 90.3604 238.053 90.3604 239.04C90.3604 240.04 90.6471 240.853 91.2204 241.48C91.8071 242.093 92.5537 242.4 93.4604 242.4ZM101.033 244V234.08H102.933L103.113 235.96C103.46 235.307 103.94 234.793 104.553 234.42C105.18 234.033 105.933 233.84 106.813 233.84V236.06H106.233C105.647 236.06 105.12 236.16 104.653 236.36C104.2 236.547 103.833 236.873 103.553 237.34C103.287 237.793 103.153 238.427 103.153 239.24V244H101.033ZM112.998 244.24C112.051 244.24 111.198 244.027 110.438 243.6C109.691 243.16 109.098 242.553 108.658 241.78C108.218 240.993 107.998 240.08 107.998 239.04C107.998 238 108.218 237.093 108.658 236.32C109.111 235.533 109.718 234.927 110.478 234.5C111.238 234.06 112.084 233.84 113.018 233.84C113.964 233.84 114.811 234.06 115.558 234.5C116.318 234.927 116.918 235.533 117.358 236.32C117.811 237.093 118.038 238 118.038 239.04C118.038 240.08 117.811 240.993 117.358 241.78C116.918 242.553 116.318 243.16 115.558 243.6C114.798 244.027 113.944 244.24 112.998 244.24ZM112.998 242.42C113.504 242.42 113.971 242.293 114.398 242.04C114.838 241.787 115.191 241.413 115.458 240.92C115.724 240.413 115.858 239.787 115.858 239.04C115.858 238.293 115.724 237.673 115.458 237.18C115.204 236.673 114.858 236.293 114.418 236.04C113.991 235.787 113.524 235.66 113.018 235.66C112.511 235.66 112.038 235.787 111.598 236.04C111.171 236.293 110.824 236.673 110.558 237.18C110.291 237.673 110.158 238.293 110.158 239.04C110.158 239.787 110.291 240.413 110.558 240.92C110.824 241.413 111.171 241.787 111.598 242.04C112.024 242.293 112.491 242.42 112.998 242.42ZM124.1 244C123.126 244 122.353 243.767 121.78 243.3C121.206 242.82 120.92 241.973 120.92 240.76V235.86H119.22V234.08H120.92L121.18 231.56H123.04V234.08H125.84V235.86H123.04V240.76C123.04 241.307 123.153 241.687 123.38 241.9C123.62 242.1 124.026 242.2 124.6 242.2H125.74V244H124.1ZM132.412 244.24C131.438 244.24 130.572 244.027 129.812 243.6C129.065 243.16 128.478 242.553 128.052 241.78C127.625 241.007 127.412 240.107 127.412 239.08C127.412 238.04 127.618 237.127 128.032 236.34C128.458 235.553 129.045 234.94 129.792 234.5C130.552 234.06 131.432 233.84 132.432 233.84C133.405 233.84 134.252 234.06 134.972 234.5C135.692 234.927 136.252 235.5 136.652 236.22C137.052 236.94 137.252 237.733 137.252 238.6C137.252 238.733 137.245 238.88 137.232 239.04C137.232 239.187 137.225 239.353 137.212 239.54H129.492C129.558 240.5 129.872 241.233 130.432 241.74C131.005 242.233 131.665 242.48 132.412 242.48C133.012 242.48 133.512 242.347 133.912 242.08C134.325 241.8 134.632 241.427 134.832 240.96H136.952C136.685 241.893 136.152 242.673 135.352 243.3C134.565 243.927 133.585 244.24 132.412 244.24ZM132.412 235.58C131.705 235.58 131.078 235.793 130.532 236.22C129.985 236.633 129.652 237.26 129.532 238.1H135.132C135.092 237.327 134.818 236.713 134.312 236.26C133.805 235.807 133.172 235.58 132.412 235.58ZM144.151 244.24C143.178 244.24 142.305 244.02 141.531 243.58C140.771 243.14 140.171 242.533 139.731 241.76C139.305 240.973 139.091 240.067 139.091 239.04C139.091 238.013 139.305 237.113 139.731 236.34C140.171 235.553 140.771 234.94 141.531 234.5C142.305 234.06 143.178 233.84 144.151 233.84C145.378 233.84 146.405 234.16 147.231 234.8C148.071 235.44 148.611 236.307 148.851 237.4H146.631C146.498 236.853 146.205 236.427 145.751 236.12C145.298 235.813 144.765 235.66 144.151 235.66C143.631 235.66 143.151 235.793 142.711 236.06C142.271 236.313 141.918 236.693 141.651 237.2C141.385 237.693 141.251 238.307 141.251 239.04C141.251 239.773 141.385 240.393 141.651 240.9C141.918 241.393 142.271 241.773 142.711 242.04C143.151 242.307 143.631 242.44 144.151 242.44C144.765 242.44 145.298 242.287 145.751 241.98C146.205 241.673 146.498 241.24 146.631 240.68H148.851C148.625 241.747 148.091 242.607 147.251 243.26C146.411 243.913 145.378 244.24 144.151 244.24ZM142.531 249.26V247.98H144.571C145.385 247.98 145.791 247.7 145.791 247.14C145.791 246.62 145.385 246.36 144.571 246.36H143.471V243.9H144.831V245.16C145.551 245.147 146.158 245.307 146.651 245.64C147.158 245.973 147.411 246.487 147.411 247.18C147.411 247.86 147.165 248.373 146.671 248.72C146.191 249.08 145.605 249.26 144.911 249.26H142.531ZM154.511 244.24C153.671 244.24 152.977 244.1 152.431 243.82C151.884 243.54 151.477 243.173 151.211 242.72C150.944 242.253 150.811 241.747 150.811 241.2C150.811 240.24 151.184 239.48 151.931 238.92C152.677 238.36 153.744 238.08 155.131 238.08H157.731V237.9C157.731 237.127 157.517 236.547 157.091 236.16C156.677 235.773 156.137 235.58 155.471 235.58C154.884 235.58 154.371 235.727 153.931 236.02C153.504 236.3 153.244 236.72 153.151 237.28H151.031C151.097 236.56 151.337 235.947 151.751 235.44C152.177 234.92 152.711 234.527 153.351 234.26C154.004 233.98 154.717 233.84 155.491 233.84C156.877 233.84 157.951 234.207 158.711 234.94C159.471 235.66 159.851 236.647 159.851 237.9V244H158.011L157.831 242.3C157.551 242.847 157.144 243.307 156.611 243.68C156.077 244.053 155.377 244.24 154.511 244.24ZM154.931 242.52C155.504 242.52 155.984 242.387 156.371 242.12C156.771 241.84 157.077 241.473 157.291 241.02C157.517 240.567 157.657 240.067 157.711 239.52H155.351C154.511 239.52 153.911 239.667 153.551 239.96C153.204 240.253 153.031 240.62 153.031 241.06C153.031 241.513 153.197 241.873 153.531 242.14C153.877 242.393 154.344 242.52 154.931 242.52ZM156.551 233C156.191 233 155.884 232.927 155.631 232.78C155.377 232.62 155.137 232.467 154.911 232.32C154.697 232.16 154.457 232.08 154.191 232.08C153.697 232.08 153.411 232.38 153.331 232.98H152.151C152.271 232.207 152.511 231.64 152.871 231.28C153.244 230.907 153.711 230.72 154.271 230.72C154.631 230.72 154.937 230.8 155.191 230.96C155.444 231.107 155.677 231.26 155.891 231.42C156.117 231.567 156.371 231.64 156.651 231.64C156.877 231.64 157.064 231.567 157.211 231.42C157.371 231.273 157.471 231.047 157.511 230.74H158.691C158.584 231.5 158.337 232.067 157.951 232.44C157.577 232.813 157.111 233 156.551 233ZM166.962 244.24C166.016 244.24 165.162 244.027 164.402 243.6C163.656 243.16 163.062 242.553 162.622 241.78C162.182 240.993 161.962 240.08 161.962 239.04C161.962 238 162.182 237.093 162.622 236.32C163.076 235.533 163.682 234.927 164.442 234.5C165.202 234.06 166.049 233.84 166.982 233.84C167.929 233.84 168.776 234.06 169.522 234.5C170.282 234.927 170.882 235.533 171.322 236.32C171.776 237.093 172.002 238 172.002 239.04C172.002 240.08 171.776 240.993 171.322 241.78C170.882 242.553 170.282 243.16 169.522 243.6C168.762 244.027 167.909 244.24 166.962 244.24ZM166.962 242.42C167.469 242.42 167.936 242.293 168.362 242.04C168.802 241.787 169.156 241.413 169.422 240.92C169.689 240.413 169.822 239.787 169.822 239.04C169.822 238.293 169.689 237.673 169.422 237.18C169.169 236.673 168.822 236.293 168.382 236.04C167.956 235.787 167.489 235.66 166.982 235.66C166.476 235.66 166.002 235.787 165.562 236.04C165.136 236.293 164.789 236.673 164.522 237.18C164.256 237.673 164.122 238.293 164.122 239.04C164.122 239.787 164.256 240.413 164.522 240.92C164.789 241.413 165.136 241.787 165.562 242.04C165.989 242.293 166.456 242.42 166.962 242.42ZM179.834 244V235.86H178.414V234.08H179.834V232.64C179.834 231.56 180.101 230.787 180.634 230.32C181.181 229.84 181.947 229.6 182.934 229.6H183.974V231.4H183.254C182.787 231.4 182.454 231.5 182.254 231.7C182.054 231.887 181.954 232.207 181.954 232.66V234.08H188.234V244H186.114V235.86H181.954V244H179.834ZM187.194 232.42C186.794 232.42 186.461 232.3 186.194 232.06C185.941 231.807 185.814 231.487 185.814 231.1C185.814 230.727 185.941 230.42 186.194 230.18C186.461 229.94 186.794 229.82 187.194 229.82C187.594 229.82 187.921 229.94 188.174 230.18C188.441 230.42 188.574 230.727 188.574 231.1C188.574 231.487 188.441 231.807 188.174 232.06C187.921 232.3 187.594 232.42 187.194 232.42ZM191.053 244V234.08H192.933L193.093 235.82C193.4 235.207 193.846 234.727 194.433 234.38C195.033 234.02 195.72 233.84 196.493 233.84C197.693 233.84 198.633 234.213 199.313 234.96C200.006 235.707 200.353 236.82 200.353 238.3V244H198.253V238.52C198.253 236.6 197.466 235.64 195.893 235.64C195.106 235.64 194.453 235.92 193.933 236.48C193.426 237.04 193.173 237.84 193.173 238.88V244H191.053ZM206.21 244.24C205.37 244.24 204.676 244.1 204.13 243.82C203.583 243.54 203.176 243.173 202.91 242.72C202.643 242.253 202.51 241.747 202.51 241.2C202.51 240.24 202.883 239.48 203.63 238.92C204.376 238.36 205.443 238.08 206.83 238.08H209.43V237.9C209.43 237.127 209.216 236.547 208.79 236.16C208.376 235.773 207.836 235.58 207.17 235.58C206.583 235.58 206.07 235.727 205.63 236.02C205.203 236.3 204.943 236.72 204.85 237.28H202.73C202.796 236.56 203.036 235.947 203.45 235.44C203.876 234.92 204.41 234.527 205.05 234.26C205.703 233.98 206.416 233.84 207.19 233.84C208.576 233.84 209.65 234.207 210.41 234.94C211.17 235.66 211.55 236.647 211.55 237.9V244H209.71L209.53 242.3C209.25 242.847 208.843 243.307 208.31 243.68C207.776 244.053 207.076 244.24 206.21 244.24ZM206.63 242.52C207.203 242.52 207.683 242.387 208.07 242.12C208.47 241.84 208.776 241.473 208.99 241.02C209.216 240.567 209.356 240.067 209.41 239.52H207.05C206.21 239.52 205.61 239.667 205.25 239.96C204.903 240.253 204.73 240.62 204.73 241.06C204.73 241.513 204.896 241.873 205.23 242.14C205.576 242.393 206.043 242.52 206.63 242.52ZM214.022 244V234.08H215.902L216.062 235.82C216.368 235.207 216.815 234.727 217.402 234.38C218.002 234.02 218.688 233.84 219.462 233.84C220.662 233.84 221.602 234.213 222.282 234.96C222.975 235.707 223.322 236.82 223.322 238.3V244H221.222V238.52C221.222 236.6 220.435 235.64 218.862 235.64C218.075 235.64 217.422 235.92 216.902 236.48C216.395 237.04 216.142 237.84 216.142 238.88V244H214.022ZM230.519 244.24C229.545 244.24 228.672 244.02 227.899 243.58C227.139 243.14 226.539 242.533 226.099 241.76C225.672 240.973 225.459 240.067 225.459 239.04C225.459 238.013 225.672 237.113 226.099 236.34C226.539 235.553 227.139 234.94 227.899 234.5C228.672 234.06 229.545 233.84 230.519 233.84C231.745 233.84 232.772 234.16 233.599 234.8C234.439 235.44 234.979 236.307 235.219 237.4H232.999C232.865 236.853 232.572 236.427 232.119 236.12C231.665 235.813 231.132 235.66 230.519 235.66C229.999 235.66 229.519 235.793 229.079 236.06C228.639 236.313 228.285 236.693 228.019 237.2C227.752 237.693 227.619 238.307 227.619 239.04C227.619 239.773 227.752 240.393 228.019 240.9C228.285 241.393 228.639 241.773 229.079 242.04C229.519 242.307 229.999 242.44 230.519 242.44C231.132 242.44 231.665 242.287 232.119 241.98C232.572 241.673 232.865 241.24 232.999 240.68H235.219C234.992 241.747 234.459 242.607 233.619 243.26C232.779 243.913 231.745 244.24 230.519 244.24ZM242.158 244.24C241.184 244.24 240.318 244.027 239.558 243.6C238.811 243.16 238.224 242.553 237.798 241.78C237.371 241.007 237.158 240.107 237.158 239.08C237.158 238.04 237.364 237.127 237.778 236.34C238.204 235.553 238.791 234.94 239.538 234.5C240.298 234.06 241.178 233.84 242.178 233.84C243.151 233.84 243.998 234.06 244.718 234.5C245.438 234.927 245.998 235.5 246.398 236.22C246.798 236.94 246.998 237.733 246.998 238.6C246.998 238.733 246.991 238.88 246.978 239.04C246.978 239.187 246.971 239.353 246.958 239.54H239.238C239.304 240.5 239.618 241.233 240.178 241.74C240.751 242.233 241.411 242.48 242.158 242.48C242.758 242.48 243.258 242.347 243.658 242.08C244.071 241.8 244.378 241.427 244.578 240.96H246.698C246.431 241.893 245.898 242.673 245.098 243.3C244.311 243.927 243.331 244.24 242.158 244.24ZM242.158 235.58C241.451 235.58 240.824 235.793 240.278 236.22C239.731 236.633 239.398 237.26 239.278 238.1H244.878C244.838 237.327 244.564 236.713 244.058 236.26C243.551 235.807 242.918 235.58 242.158 235.58ZM250.397 232.2C249.997 232.2 249.664 232.08 249.397 231.84C249.144 231.587 249.017 231.273 249.017 230.9C249.017 230.527 249.144 230.22 249.397 229.98C249.664 229.727 249.997 229.6 250.397 229.6C250.797 229.6 251.124 229.727 251.377 229.98C251.644 230.22 251.777 230.527 251.777 230.9C251.777 231.273 251.644 231.587 251.377 231.84C251.124 232.08 250.797 232.2 250.397 232.2ZM249.337 244V234.08H251.457V244H249.337ZM254.256 244V234.08H256.156L256.336 235.96C256.683 235.307 257.163 234.793 257.776 234.42C258.403 234.033 259.156 233.84 260.036 233.84V236.06H259.456C258.869 236.06 258.343 236.16 257.876 236.36C257.423 236.547 257.056 236.873 256.776 237.34C256.509 237.793 256.376 238.427 256.376 239.24V244H254.256ZM265.214 244.24C264.374 244.24 263.68 244.1 263.134 243.82C262.587 243.54 262.18 243.173 261.914 242.72C261.647 242.253 261.514 241.747 261.514 241.2C261.514 240.24 261.887 239.48 262.634 238.92C263.38 238.36 264.447 238.08 265.834 238.08H268.434V237.9C268.434 237.127 268.22 236.547 267.794 236.16C267.38 235.773 266.84 235.58 266.174 235.58C265.587 235.58 265.074 235.727 264.634 236.02C264.207 236.3 263.947 236.72 263.854 237.28H261.734C261.8 236.56 262.04 235.947 262.454 235.44C262.88 234.92 263.414 234.527 264.054 234.26C264.707 233.98 265.42 233.84 266.194 233.84C267.58 233.84 268.654 234.207 269.414 234.94C270.174 235.66 270.554 236.647 270.554 237.9V244H268.714L268.534 242.3C268.254 242.847 267.847 243.307 267.314 243.68C266.78 244.053 266.08 244.24 265.214 244.24ZM265.634 242.52C266.207 242.52 266.687 242.387 267.074 242.12C267.474 241.84 267.78 241.473 267.994 241.02C268.22 240.567 268.36 240.067 268.414 239.52H266.054C265.214 239.52 264.614 239.667 264.254 239.96C263.907 240.253 263.734 240.62 263.734 241.06C263.734 241.513 263.9 241.873 264.234 242.14C264.58 242.393 265.047 242.52 265.634 242.52Z" fill="white"/>
<path d="M23.8471 266V255.904H20.5031V254.8H28.5351V255.904H25.1911V266H23.8471ZM29.1899 266V258.064H30.4059L30.5179 259.584C30.7633 259.061 31.1366 258.645 31.6379 258.336C32.1393 258.027 32.7579 257.872 33.4939 257.872V259.28H33.1259C32.6566 259.28 32.2246 259.365 31.8299 259.536C31.4353 259.696 31.1206 259.973 30.8859 260.368C30.6513 260.763 30.5339 261.307 30.5339 262V266H29.1899ZM37.6424 266.192C36.9811 266.192 36.4318 266.08 35.9944 265.856C35.5571 265.632 35.2318 265.333 35.0184 264.96C34.8051 264.587 34.6984 264.181 34.6984 263.744C34.6984 262.933 35.0078 262.309 35.6264 261.872C36.2451 261.435 37.0878 261.216 38.1544 261.216H40.2984V261.12C40.2984 260.427 40.1171 259.904 39.7544 259.552C39.3918 259.189 38.9064 259.008 38.2984 259.008C37.7758 259.008 37.3224 259.141 36.9384 259.408C36.5651 259.664 36.3304 260.043 36.2344 260.544H34.8584C34.9118 259.968 35.1038 259.483 35.4344 259.088C35.7758 258.693 36.1971 258.395 36.6984 258.192C37.1998 257.979 37.7331 257.872 38.2984 257.872C39.4078 257.872 40.2398 258.171 40.7944 258.768C41.3598 259.355 41.6424 260.139 41.6424 261.12V266H40.4424L40.3624 264.576C40.1384 265.024 39.8078 265.408 39.3704 265.728C38.9438 266.037 38.3678 266.192 37.6424 266.192ZM37.8504 265.056C38.3624 265.056 38.7998 264.923 39.1624 264.656C39.5358 264.389 39.8184 264.043 40.0104 263.616C40.2024 263.189 40.2984 262.741 40.2984 262.272V262.256H38.2664C37.4771 262.256 36.9171 262.395 36.5864 262.672C36.2664 262.939 36.1064 263.275 36.1064 263.68C36.1064 264.096 36.2558 264.432 36.5544 264.688C36.8638 264.933 37.2958 265.056 37.8504 265.056ZM43.6587 266V258.064H44.8747L44.9547 259.488C45.2107 258.987 45.5787 258.592 46.0587 258.304C46.5387 258.016 47.0827 257.872 47.6907 257.872C48.6294 257.872 49.376 258.16 49.9307 258.736C50.496 259.301 50.7787 260.176 50.7787 261.36V266H49.4347V261.504C49.4347 259.851 48.752 259.024 47.3867 259.024C46.704 259.024 46.1334 259.275 45.6747 259.776C45.2267 260.267 45.0027 260.971 45.0027 261.888V266H43.6587ZM59.3269 269.52V264.688C59.0709 265.072 58.7029 265.419 58.2229 265.728C57.7429 266.037 57.1403 266.192 56.4149 266.192C55.6256 266.192 54.9323 266.011 54.3349 265.648C53.7483 265.285 53.2896 264.789 52.9589 264.16C52.6389 263.531 52.4789 262.816 52.4789 262.016C52.4789 261.216 52.6443 260.507 52.9749 259.888C53.3056 259.259 53.7643 258.768 54.3509 258.416C54.9376 258.053 55.6309 257.872 56.4309 257.872C57.0816 257.872 57.6576 258.005 58.1589 258.272C58.6603 258.539 59.0496 258.912 59.3269 259.392L59.4549 258.064H60.6709V269.52H59.3269ZM56.5589 265.024C57.0923 265.024 57.5616 264.901 57.9669 264.656C58.3829 264.4 58.7029 264.048 58.9269 263.6C59.1616 263.152 59.2789 262.629 59.2789 262.032C59.2789 261.435 59.1616 260.912 58.9269 260.464C58.7029 260.016 58.3829 259.669 57.9669 259.424C57.5616 259.168 57.0923 259.04 56.5589 259.04C56.0363 259.04 55.5669 259.168 55.1509 259.424C54.7456 259.669 54.4256 260.016 54.1909 260.464C53.9669 260.912 53.8549 261.435 53.8549 262.032C53.8549 262.629 53.9669 263.152 54.1909 263.6C54.4256 264.048 54.7456 264.4 55.1509 264.656C55.5669 264.901 56.0363 265.024 56.5589 265.024ZM65.7578 266.192C64.8191 266.192 64.0725 265.909 63.5178 265.344C62.9631 264.768 62.6858 263.888 62.6858 262.704V258.064H64.0298V262.56C64.0298 264.213 64.7071 265.04 66.0618 265.04C66.7551 265.04 67.3258 264.795 67.7738 264.304C68.2325 263.803 68.4618 263.093 68.4618 262.176V258.064H69.8058V266H68.5898L68.4938 264.576C68.2485 265.077 67.8805 265.472 67.3898 265.76C66.9098 266.048 66.3658 266.192 65.7578 266.192ZM72.8341 256.304C72.5674 256.304 72.3434 256.219 72.1621 256.048C71.9914 255.867 71.9061 255.643 71.9061 255.376C71.9061 255.12 71.9914 254.907 72.1621 254.736C72.3434 254.565 72.5674 254.48 72.8341 254.48C73.0901 254.48 73.3087 254.565 73.4901 254.736C73.6714 254.907 73.7621 255.12 73.7621 255.376C73.7621 255.643 73.6714 255.867 73.4901 256.048C73.3087 256.219 73.0901 256.304 72.8341 256.304ZM72.1621 266V258.064H73.5061V266H72.1621ZM75.8462 266V254.48H77.1902V266H75.8462ZM80.2091 256.304C79.9424 256.304 79.7184 256.219 79.5371 256.048C79.3664 255.867 79.2811 255.643 79.2811 255.376C79.2811 255.12 79.3664 254.907 79.5371 254.736C79.7184 254.565 79.9424 254.48 80.2091 254.48C80.4651 254.48 80.6837 254.565 80.8651 254.736C81.0464 254.907 81.1371 255.12 81.1371 255.376C81.1371 255.643 81.0464 255.867 80.8651 256.048C80.6837 256.219 80.4651 256.304 80.2091 256.304ZM79.5371 266V258.064H80.8811V266H79.5371ZM86.8212 266.192C86.0319 266.192 85.3385 266.011 84.7412 265.648C84.1545 265.285 83.6959 264.789 83.3652 264.16C83.0452 263.531 82.8852 262.816 82.8852 262.016C82.8852 261.216 83.0505 260.507 83.3812 259.888C83.7119 259.259 84.1705 258.768 84.7572 258.416C85.3439 258.053 86.0372 257.872 86.8372 257.872C87.4879 257.872 88.0639 258.005 88.5652 258.272C89.0665 258.539 89.4559 258.912 89.7332 259.392V254.48H91.0772V266H89.8612L89.7332 264.688C89.4772 265.072 89.1092 265.419 88.6292 265.728C88.1492 266.037 87.5465 266.192 86.8212 266.192ZM86.9652 265.024C87.4985 265.024 87.9679 264.901 88.3732 264.656C88.7892 264.4 89.1092 264.048 89.3332 263.6C89.5679 263.152 89.6852 262.629 89.6852 262.032C89.6852 261.435 89.5679 260.912 89.3332 260.464C89.1092 260.016 88.7892 259.669 88.3732 259.424C87.9679 259.168 87.4985 259.04 86.9652 259.04C86.4425 259.04 85.9732 259.168 85.5572 259.424C85.1519 259.669 84.8319 260.016 84.5972 260.464C84.3732 260.912 84.2612 261.435 84.2612 262.032C84.2612 262.629 84.3732 263.152 84.5972 263.6C84.8319 264.048 85.1519 264.4 85.5572 264.656C85.9732 264.901 86.4425 265.024 86.9652 265.024ZM95.9081 266.192C95.2467 266.192 94.6974 266.08 94.2601 265.856C93.8227 265.632 93.4974 265.333 93.2841 264.96C93.0707 264.587 92.9641 264.181 92.9641 263.744C92.9641 262.933 93.2734 262.309 93.8921 261.872C94.5107 261.435 95.3534 261.216 96.4201 261.216H98.5641V261.12C98.5641 260.427 98.3827 259.904 98.0201 259.552C97.6574 259.189 97.1721 259.008 96.5641 259.008C96.0414 259.008 95.5881 259.141 95.2041 259.408C94.8307 259.664 94.5961 260.043 94.5001 260.544H93.1241C93.1774 259.968 93.3694 259.483 93.7001 259.088C94.0414 258.693 94.4627 258.395 94.9641 258.192C95.4654 257.979 95.9987 257.872 96.5641 257.872C97.6734 257.872 98.5054 258.171 99.0601 258.768C99.6254 259.355 99.9081 260.139 99.9081 261.12V266H98.7081L98.6281 264.576C98.4041 265.024 98.0734 265.408 97.6361 265.728C97.2094 266.037 96.6334 266.192 95.9081 266.192ZM96.1161 265.056C96.6281 265.056 97.0654 264.923 97.4281 264.656C97.8014 264.389 98.0841 264.043 98.2761 263.616C98.4681 263.189 98.5641 262.741 98.5641 262.272V262.256H96.5321C95.7427 262.256 95.1827 262.395 94.8521 262.672C94.5321 262.939 94.3721 263.275 94.3721 263.68C94.3721 264.096 94.5214 264.432 94.8201 264.688C95.1294 264.933 95.5614 265.056 96.1161 265.056ZM105.524 266.192C104.735 266.192 104.042 266.011 103.444 265.648C102.858 265.285 102.399 264.789 102.068 264.16C101.748 263.531 101.588 262.816 101.588 262.016C101.588 261.216 101.754 260.507 102.084 259.888C102.415 259.259 102.874 258.768 103.46 258.416C104.047 258.053 104.74 257.872 105.54 257.872C106.191 257.872 106.767 258.005 107.268 258.272C107.77 258.539 108.159 258.912 108.436 259.392V254.48H109.78V266H108.564L108.436 264.688C108.18 265.072 107.812 265.419 107.332 265.728C106.852 266.037 106.25 266.192 105.524 266.192ZM105.668 265.024C106.202 265.024 106.671 264.901 107.076 264.656C107.492 264.4 107.812 264.048 108.036 263.6C108.271 263.152 108.388 262.629 108.388 262.032C108.388 261.435 108.271 260.912 108.036 260.464C107.812 260.016 107.492 259.669 107.076 259.424C106.671 259.168 106.202 259.04 105.668 259.04C105.146 259.04 104.676 259.168 104.26 259.424C103.855 259.669 103.535 260.016 103.3 260.464C103.076 260.912 102.964 261.435 102.964 262.032C102.964 262.629 103.076 263.152 103.3 263.6C103.535 264.048 103.855 264.4 104.26 264.656C104.676 264.901 105.146 265.024 105.668 265.024ZM115.539 266.192C114.782 266.192 114.11 266.021 113.523 265.68C112.937 265.328 112.473 264.843 112.131 264.224C111.801 263.605 111.635 262.875 111.635 262.032C111.635 261.2 111.801 260.475 112.131 259.856C112.462 259.227 112.921 258.741 113.507 258.4C114.105 258.048 114.793 257.872 115.571 257.872C116.339 257.872 117.001 258.048 117.555 258.4C118.121 258.741 118.553 259.195 118.851 259.76C119.15 260.325 119.299 260.933 119.299 261.584C119.299 261.701 119.294 261.819 119.283 261.936C119.283 262.053 119.283 262.187 119.283 262.336H112.963C112.995 262.944 113.134 263.451 113.379 263.856C113.635 264.251 113.95 264.549 114.323 264.752C114.707 264.955 115.113 265.056 115.539 265.056C116.094 265.056 116.558 264.928 116.931 264.672C117.305 264.416 117.577 264.069 117.747 263.632H119.075C118.862 264.368 118.451 264.981 117.843 265.472C117.246 265.952 116.478 266.192 115.539 266.192ZM115.539 259.008C114.899 259.008 114.329 259.205 113.827 259.6C113.337 259.984 113.054 260.549 112.979 261.296H117.971C117.939 260.581 117.694 260.021 117.235 259.616C116.777 259.211 116.211 259.008 115.539 259.008ZM128.963 266.192C128.206 266.192 127.523 266.021 126.915 265.68C126.318 265.328 125.843 264.843 125.491 264.224C125.15 263.595 124.979 262.864 124.979 262.032C124.979 261.2 125.15 260.475 125.491 259.856C125.843 259.227 126.318 258.741 126.915 258.4C127.523 258.048 128.206 257.872 128.963 257.872C129.902 257.872 130.691 258.117 131.331 258.608C131.982 259.099 132.392 259.755 132.563 260.576H131.187C131.08 260.085 130.819 259.707 130.403 259.44C129.987 259.163 129.502 259.024 128.947 259.024C128.499 259.024 128.078 259.136 127.683 259.36C127.288 259.584 126.968 259.92 126.723 260.368C126.478 260.816 126.355 261.371 126.355 262.032C126.355 262.693 126.478 263.248 126.723 263.696C126.968 264.144 127.288 264.485 127.683 264.72C128.078 264.944 128.499 265.056 128.947 265.056C129.502 265.056 129.987 264.923 130.403 264.656C130.819 264.379 131.08 263.989 131.187 263.488H132.563C132.403 264.288 131.998 264.939 131.347 265.44C130.696 265.941 129.902 266.192 128.963 266.192ZM138.056 266.192C137.309 266.192 136.637 266.021 136.04 265.68C135.443 265.339 134.968 264.859 134.616 264.24C134.275 263.611 134.104 262.875 134.104 262.032C134.104 261.189 134.28 260.459 134.632 259.84C134.984 259.211 135.459 258.725 136.056 258.384C136.664 258.043 137.341 257.872 138.088 257.872C138.835 257.872 139.507 258.043 140.104 258.384C140.701 258.725 141.171 259.211 141.512 259.84C141.864 260.459 142.04 261.189 142.04 262.032C142.04 262.875 141.864 263.611 141.512 264.24C141.16 264.859 140.68 265.339 140.072 265.68C139.475 266.021 138.803 266.192 138.056 266.192ZM138.056 265.04C138.515 265.04 138.941 264.928 139.336 264.704C139.731 264.48 140.051 264.144 140.296 263.696C140.541 263.248 140.664 262.693 140.664 262.032C140.664 261.371 140.541 260.816 140.296 260.368C140.061 259.92 139.747 259.584 139.352 259.36C138.957 259.136 138.536 259.024 138.088 259.024C137.629 259.024 137.203 259.136 136.808 259.36C136.413 259.584 136.093 259.92 135.848 260.368C135.603 260.816 135.48 261.371 135.48 262.032C135.48 262.693 135.603 263.248 135.848 263.696C136.093 264.144 136.408 264.48 136.792 264.704C137.187 264.928 137.608 265.04 138.056 265.04ZM143.909 266V258.064H145.125L145.221 259.216C145.477 258.789 145.818 258.459 146.245 258.224C146.671 257.989 147.151 257.872 147.685 257.872C148.314 257.872 148.853 258 149.301 258.256C149.759 258.512 150.111 258.901 150.357 259.424C150.634 258.944 151.013 258.565 151.493 258.288C151.983 258.011 152.511 257.872 153.077 257.872C154.026 257.872 154.783 258.16 155.349 258.736C155.914 259.301 156.197 260.176 156.197 261.36V266H154.869V261.504C154.869 260.683 154.703 260.064 154.373 259.648C154.042 259.232 153.567 259.024 152.949 259.024C152.309 259.024 151.775 259.275 151.349 259.776C150.933 260.267 150.725 260.971 150.725 261.888V266H149.381V261.504C149.381 260.683 149.215 260.064 148.885 259.648C148.554 259.232 148.079 259.024 147.461 259.024C146.831 259.024 146.303 259.275 145.877 259.776C145.461 260.267 145.253 260.971 145.253 261.888V266H143.909ZM165.496 266.192C164.546 266.192 163.757 265.952 163.128 265.472C162.498 264.992 162.13 264.341 162.024 263.52H163.4C163.485 263.936 163.704 264.299 164.056 264.608C164.418 264.907 164.904 265.056 165.512 265.056C166.077 265.056 166.493 264.939 166.76 264.704C167.026 264.459 167.16 264.171 167.16 263.84C167.16 263.36 166.984 263.04 166.632 262.88C166.29 262.72 165.805 262.576 165.176 262.448C164.749 262.363 164.322 262.24 163.896 262.08C163.469 261.92 163.112 261.696 162.824 261.408C162.536 261.109 162.392 260.72 162.392 260.24C162.392 259.547 162.648 258.981 163.16 258.544C163.682 258.096 164.386 257.872 165.272 257.872C166.114 257.872 166.802 258.085 167.336 258.512C167.88 258.928 168.194 259.525 168.28 260.304H166.952C166.898 259.899 166.722 259.584 166.424 259.36C166.136 259.125 165.746 259.008 165.256 259.008C164.776 259.008 164.402 259.109 164.136 259.312C163.88 259.515 163.752 259.781 163.752 260.112C163.752 260.432 163.917 260.683 164.248 260.864C164.589 261.045 165.048 261.2 165.624 261.328C166.114 261.435 166.578 261.568 167.016 261.728C167.464 261.877 167.826 262.107 168.104 262.416C168.392 262.715 168.536 263.152 168.536 263.728C168.546 264.443 168.274 265.035 167.72 265.504C167.176 265.963 166.434 266.192 165.496 266.192ZM174.024 266.192C173.266 266.192 172.594 266.021 172.008 265.68C171.421 265.328 170.957 264.843 170.616 264.224C170.285 263.605 170.12 262.875 170.12 262.032C170.12 261.2 170.285 260.475 170.616 259.856C170.946 259.227 171.405 258.741 171.992 258.4C172.589 258.048 173.277 257.872 174.056 257.872C174.824 257.872 175.485 258.048 176.04 258.4C176.605 258.741 177.037 259.195 177.336 259.76C177.634 260.325 177.784 260.933 177.784 261.584C177.784 261.701 177.778 261.819 177.768 261.936C177.768 262.053 177.768 262.187 177.768 262.336H171.448C171.48 262.944 171.618 263.451 171.864 263.856C172.12 264.251 172.434 264.549 172.808 264.752C173.192 264.955 173.597 265.056 174.024 265.056C174.578 265.056 175.042 264.928 175.416 264.672C175.789 264.416 176.061 264.069 176.232 263.632H177.56C177.346 264.368 176.936 264.981 176.328 265.472C175.73 265.952 174.962 266.192 174.024 266.192ZM174.024 259.008C173.384 259.008 172.813 259.205 172.312 259.6C171.821 259.984 171.538 260.549 171.464 261.296H176.456C176.424 260.581 176.178 260.021 175.72 259.616C175.261 259.211 174.696 259.008 174.024 259.008ZM182.461 266.192C181.522 266.192 180.776 265.909 180.221 265.344C179.666 264.768 179.389 263.888 179.389 262.704V258.064H180.733V262.56C180.733 264.213 181.41 265.04 182.765 265.04C183.458 265.04 184.029 264.795 184.477 264.304C184.936 263.803 185.165 263.093 185.165 262.176V258.064H186.509V266H185.293L185.197 264.576C184.952 265.077 184.584 265.472 184.093 265.76C183.613 266.048 183.069 266.192 182.461 266.192ZM196.556 266.192C195.766 266.192 195.073 266.011 194.476 265.648C193.889 265.285 193.43 264.789 193.1 264.16C192.78 263.531 192.62 262.816 192.62 262.016C192.62 261.216 192.785 260.507 193.116 259.888C193.446 259.259 193.905 258.768 194.492 258.416C195.078 258.053 195.772 257.872 196.572 257.872C197.222 257.872 197.798 258.005 198.3 258.272C198.801 258.539 199.19 258.912 199.468 259.392V254.48H200.812V266H199.596L199.468 264.688C199.212 265.072 198.844 265.419 198.364 265.728C197.884 266.037 197.281 266.192 196.556 266.192ZM196.7 265.024C197.233 265.024 197.702 264.901 198.108 264.656C198.524 264.4 198.844 264.048 199.068 263.6C199.302 263.152 199.42 262.629 199.42 262.032C199.42 261.435 199.302 260.912 199.068 260.464C198.844 260.016 198.524 259.669 198.108 259.424C197.702 259.168 197.233 259.04 196.7 259.04C196.177 259.04 195.708 259.168 195.292 259.424C194.886 259.669 194.566 260.016 194.332 260.464C194.108 260.912 193.996 261.435 193.996 262.032C193.996 262.629 194.108 263.152 194.332 263.6C194.566 264.048 194.886 264.4 195.292 264.656C195.708 264.901 196.177 265.024 196.7 265.024ZM203.818 256.304C203.552 256.304 203.328 256.219 203.146 256.048C202.976 255.867 202.89 255.643 202.89 255.376C202.89 255.12 202.976 254.907 203.146 254.736C203.328 254.565 203.552 254.48 203.818 254.48C204.074 254.48 204.293 254.565 204.474 254.736C204.656 254.907 204.746 255.12 204.746 255.376C204.746 255.643 204.656 255.867 204.474 256.048C204.293 256.219 204.074 256.304 203.818 256.304ZM203.146 266V258.064H204.49V266H203.146ZM206.831 266V258.064H208.047L208.127 259.488C208.383 258.987 208.751 258.592 209.231 258.304C209.711 258.016 210.255 257.872 210.863 257.872C211.801 257.872 212.548 258.16 213.103 258.736C213.668 259.301 213.951 260.176 213.951 261.36V266H212.607V261.504C212.607 259.851 211.924 259.024 210.559 259.024C209.876 259.024 209.305 259.275 208.847 259.776C208.399 260.267 208.175 260.971 208.175 261.888V266H206.831ZM215.987 266V254.48H217.331V259.424C217.597 258.933 217.976 258.555 218.467 258.288C218.957 258.011 219.491 257.872 220.067 257.872C220.984 257.872 221.72 258.16 222.275 258.736C222.829 259.301 223.107 260.176 223.107 261.36V266H221.779V261.504C221.779 259.851 221.112 259.024 219.779 259.024C219.085 259.024 218.504 259.275 218.035 259.776C217.565 260.267 217.331 260.971 217.331 261.888V266H215.987ZM228.711 266.192C227.954 266.192 227.282 266.021 226.695 265.68C226.108 265.328 225.644 264.843 225.303 264.224C224.972 263.605 224.807 262.875 224.807 262.032C224.807 261.2 224.972 260.475 225.303 259.856C225.634 259.227 226.092 258.741 226.679 258.4C227.276 258.048 227.964 257.872 228.743 257.872C229.511 257.872 230.172 258.048 230.727 258.4C231.292 258.741 231.724 259.195 232.023 259.76C232.322 260.325 232.471 260.933 232.471 261.584C232.471 261.701 232.466 261.819 232.455 261.936C232.455 262.053 232.455 262.187 232.455 262.336H226.135C226.167 262.944 226.306 263.451 226.551 263.856C226.807 264.251 227.122 264.549 227.495 264.752C227.879 264.955 228.284 265.056 228.711 265.056C229.266 265.056 229.73 264.928 230.103 264.672C230.476 264.416 230.748 264.069 230.919 263.632H232.247C232.034 264.368 231.623 264.981 231.015 265.472C230.418 265.952 229.65 266.192 228.711 266.192ZM228.711 259.008C228.071 259.008 227.5 259.205 226.999 259.6C226.508 259.984 226.226 260.549 226.151 261.296H231.143C231.111 260.581 230.866 260.021 230.407 259.616C229.948 259.211 229.383 259.008 228.711 259.008ZM235.068 256.304C234.802 256.304 234.578 256.219 234.396 256.048C234.226 255.867 234.14 255.643 234.14 255.376C234.14 255.12 234.226 254.907 234.396 254.736C234.578 254.565 234.802 254.48 235.068 254.48C235.324 254.48 235.543 254.565 235.724 254.736C235.906 254.907 235.996 255.12 235.996 255.376C235.996 255.643 235.906 255.867 235.724 256.048C235.543 256.219 235.324 256.304 235.068 256.304ZM234.396 266V258.064H235.74V266H234.396ZM238.081 266V258.064H239.297L239.409 259.584C239.654 259.061 240.027 258.645 240.529 258.336C241.03 258.027 241.649 257.872 242.385 257.872V259.28H242.017C241.547 259.28 241.115 259.365 240.721 259.536C240.326 259.696 240.011 259.973 239.777 260.368C239.542 260.763 239.425 261.307 239.425 262V266H238.081ZM247.212 266.192C246.466 266.192 245.794 266.021 245.196 265.68C244.599 265.339 244.124 264.859 243.772 264.24C243.431 263.611 243.26 262.875 243.26 262.032C243.26 261.189 243.436 260.459 243.788 259.84C244.14 259.211 244.615 258.725 245.212 258.384C245.82 258.043 246.498 257.872 247.244 257.872C247.991 257.872 248.663 258.043 249.26 258.384C249.858 258.725 250.327 259.211 250.668 259.84C251.02 260.459 251.196 261.189 251.196 262.032C251.196 262.875 251.02 263.611 250.668 264.24C250.316 264.859 249.836 265.339 249.228 265.68C248.631 266.021 247.959 266.192 247.212 266.192ZM247.212 265.04C247.671 265.04 248.098 264.928 248.492 264.704C248.887 264.48 249.207 264.144 249.452 263.696C249.698 263.248 249.82 262.693 249.82 262.032C249.82 261.371 249.698 260.816 249.452 260.368C249.218 259.92 248.903 259.584 248.508 259.36C248.114 259.136 247.692 259.024 247.244 259.024C246.786 259.024 246.359 259.136 245.964 259.36C245.57 259.584 245.25 259.92 245.004 260.368C244.759 260.816 244.636 261.371 244.636 262.032C244.636 262.693 244.759 263.248 245.004 263.696C245.25 264.144 245.564 264.48 245.948 264.704C246.343 264.928 246.764 265.04 247.212 265.04ZM51.9712 290.52V279.064H53.1872L53.3152 280.376C53.5712 279.992 53.9339 279.645 54.4032 279.336C54.8832 279.027 55.4912 278.872 56.2272 278.872C57.0165 278.872 57.7045 279.053 58.2912 279.416C58.8779 279.779 59.3312 280.275 59.6512 280.904C59.9819 281.533 60.1472 282.248 60.1472 283.048C60.1472 283.848 59.9819 284.563 59.6512 285.192C59.3312 285.811 58.8725 286.301 58.2752 286.664C57.6885 287.016 57.0005 287.192 56.2112 287.192C55.5605 287.192 54.9792 287.059 54.4672 286.792C53.9659 286.525 53.5819 286.152 53.3152 285.672V290.52H51.9712ZM56.0672 286.024C56.6005 286.024 57.0699 285.901 57.4752 285.656C57.8805 285.4 58.2005 285.048 58.4352 284.6C58.6699 284.152 58.7872 283.629 58.7872 283.032C58.7872 282.435 58.6699 281.912 58.4352 281.464C58.2005 281.016 57.8805 280.669 57.4752 280.424C57.0699 280.168 56.6005 280.04 56.0672 280.04C55.5339 280.04 55.0645 280.168 54.6592 280.424C54.2539 280.669 53.9339 281.016 53.6992 281.464C53.4645 281.912 53.3472 282.435 53.3472 283.032C53.3472 283.629 53.4645 284.152 53.6992 284.6C53.9339 285.048 54.2539 285.4 54.6592 285.656C55.0645 285.901 55.5339 286.024 56.0672 286.024ZM62.0181 287V279.064H63.2341L63.3461 280.584C63.5914 280.061 63.9647 279.645 64.4661 279.336C64.9674 279.027 65.5861 278.872 66.3221 278.872V280.28H65.9541C65.4847 280.28 65.0527 280.365 64.6581 280.536C64.2634 280.696 63.9487 280.973 63.7141 281.368C63.4794 281.763 63.3621 282.307 63.3621 283V287H62.0181ZM71.1497 287.192C70.403 287.192 69.731 287.021 69.1337 286.68C68.5364 286.339 68.0617 285.859 67.7097 285.24C67.3684 284.611 67.1977 283.875 67.1977 283.032C67.1977 282.189 67.3737 281.459 67.7257 280.84C68.0777 280.211 68.5524 279.725 69.1497 279.384C69.7577 279.043 70.435 278.872 71.1817 278.872C71.9284 278.872 72.6004 279.043 73.1977 279.384C73.795 279.725 74.2644 280.211 74.6057 280.84C74.9577 281.459 75.1337 282.189 75.1337 283.032C75.1337 283.875 74.9577 284.611 74.6057 285.24C74.2537 285.859 73.7737 286.339 73.1657 286.68C72.5684 287.021 71.8964 287.192 71.1497 287.192ZM71.1497 286.04C71.6084 286.04 72.035 285.928 72.4297 285.704C72.8244 285.48 73.1444 285.144 73.3897 284.696C73.635 284.248 73.7577 283.693 73.7577 283.032C73.7577 282.371 73.635 281.816 73.3897 281.368C73.155 280.92 72.8404 280.584 72.4457 280.36C72.051 280.136 71.6297 280.024 71.1817 280.024C70.723 280.024 70.2964 280.136 69.9017 280.36C69.507 280.584 69.187 280.92 68.9417 281.368C68.6964 281.816 68.5737 282.371 68.5737 283.032C68.5737 283.693 68.6964 284.248 68.9417 284.696C69.187 285.144 69.5017 285.48 69.8857 285.704C70.2804 285.928 70.7017 286.04 71.1497 286.04ZM79.8259 287C79.1006 287 78.5299 286.824 78.1139 286.472C77.6979 286.12 77.4899 285.485 77.4899 284.568V280.2H76.1139V279.064H77.4899L77.6659 277.16H78.8339V279.064H81.1699V280.2H78.8339V284.568C78.8339 285.069 78.9353 285.411 79.1379 285.592C79.3406 285.763 79.6979 285.848 80.2099 285.848H81.0419V287H79.8259ZM86.2267 287.192C85.4694 287.192 84.7974 287.021 84.2107 286.68C83.624 286.328 83.16 285.843 82.8187 285.224C82.488 284.605 82.3227 283.875 82.3227 283.032C82.3227 282.2 82.488 281.475 82.8187 280.856C83.1494 280.227 83.608 279.741 84.1947 279.4C84.792 279.048 85.48 278.872 86.2587 278.872C87.0267 278.872 87.688 279.048 88.2427 279.4C88.808 279.741 89.24 280.195 89.5387 280.76C89.8374 281.325 89.9867 281.933 89.9867 282.584C89.9867 282.701 89.9814 282.819 89.9707 282.936C89.9707 283.053 89.9707 283.187 89.9707 283.336H83.6507C83.6827 283.944 83.8214 284.451 84.0667 284.856C84.3227 285.251 84.6374 285.549 85.0107 285.752C85.3947 285.955 85.8 286.056 86.2267 286.056C86.7814 286.056 87.2454 285.928 87.6187 285.672C87.992 285.416 88.264 285.069 88.4347 284.632H89.7627C89.5494 285.368 89.1387 285.981 88.5307 286.472C87.9334 286.952 87.1654 287.192 86.2267 287.192ZM86.2267 280.008C85.5867 280.008 85.016 280.205 84.5147 280.6C84.024 280.984 83.7414 281.549 83.6667 282.296H88.6587C88.6267 281.581 88.3814 281.021 87.9227 280.616C87.464 280.211 86.8987 280.008 86.2267 280.008ZM94.8572 284.504C94.4092 284.504 93.9985 284.445 93.6252 284.328L92.8252 285.08C92.9425 285.165 93.0865 285.24 93.2572 285.304C93.4385 285.357 93.6945 285.411 94.0252 285.464C94.3559 285.507 94.8199 285.555 95.4172 285.608C96.4839 285.683 97.2465 285.928 97.7052 286.344C98.1639 286.76 98.3932 287.304 98.3932 287.976C98.3932 288.435 98.2652 288.872 98.0092 289.288C97.7639 289.704 97.3799 290.045 96.8572 290.312C96.3452 290.579 95.6839 290.712 94.8732 290.712C94.1585 290.712 93.5239 290.616 92.9692 290.424C92.4145 290.243 91.9825 289.96 91.6732 289.576C91.3639 289.203 91.2092 288.728 91.2092 288.152C91.2092 287.853 91.2892 287.528 91.4492 287.176C91.6092 286.835 91.9079 286.509 92.3452 286.2C92.1105 286.104 91.9079 286.003 91.7372 285.896C91.5772 285.779 91.4279 285.651 91.2892 285.512V285.144L92.6492 283.8C92.0199 283.267 91.7052 282.563 91.7052 281.688C91.7052 281.165 91.8279 280.691 92.0732 280.264C92.3185 279.837 92.6759 279.501 93.1452 279.256C93.6145 279 94.1852 278.872 94.8572 278.872C95.3159 278.872 95.7319 278.936 96.1052 279.064H99.0332V280.072L97.5452 280.136C97.8545 280.584 98.0092 281.101 98.0092 281.688C98.0092 282.211 97.8812 282.685 97.6252 283.112C97.3799 283.539 97.0225 283.88 96.5532 284.136C96.0945 284.381 95.5292 284.504 94.8572 284.504ZM94.8572 283.4C95.4225 283.4 95.8705 283.256 96.2012 282.968C96.5425 282.669 96.7132 282.243 96.7132 281.688C96.7132 281.144 96.5425 280.728 96.2012 280.44C95.8705 280.141 95.4225 279.992 94.8572 279.992C94.2812 279.992 93.8225 280.141 93.4812 280.44C93.1505 280.728 92.9852 281.144 92.9852 281.688C92.9852 282.243 93.1505 282.669 93.4812 282.968C93.8225 283.256 94.2812 283.4 94.8572 283.4ZM92.5212 288.024C92.5212 288.557 92.7452 288.952 93.1932 289.208C93.6412 289.475 94.2012 289.608 94.8732 289.608C95.5345 289.608 96.0625 289.464 96.4572 289.176C96.8625 288.888 97.0652 288.504 97.0652 288.024C97.0652 287.683 96.9265 287.384 96.6492 287.128C96.3719 286.883 95.8599 286.739 95.1132 286.696C94.5265 286.653 94.0199 286.6 93.5932 286.536C93.1559 286.771 92.8679 287.021 92.7292 287.288C92.5905 287.565 92.5212 287.811 92.5212 288.024ZM101.365 277.304C101.099 277.304 100.875 277.219 100.693 277.048C100.523 276.867 100.437 276.643 100.437 276.376C100.437 276.12 100.523 275.907 100.693 275.736C100.875 275.565 101.099 275.48 101.365 275.48C101.621 275.48 101.84 275.565 102.021 275.736C102.203 275.907 102.293 276.12 102.293 276.376C102.293 276.643 102.203 276.867 102.021 277.048C101.84 277.219 101.621 277.304 101.365 277.304ZM100.693 287V279.064H102.037V287H100.693ZM107.977 287.192C107.188 287.192 106.495 287.011 105.897 286.648C105.311 286.285 104.852 285.789 104.521 285.16C104.201 284.531 104.041 283.816 104.041 283.016C104.041 282.216 104.207 281.507 104.537 280.888C104.868 280.259 105.327 279.768 105.913 279.416C106.5 279.053 107.193 278.872 107.993 278.872C108.644 278.872 109.22 279.005 109.721 279.272C110.223 279.539 110.612 279.912 110.889 280.392V275.48H112.233V287H111.017L110.889 285.688C110.633 286.072 110.265 286.419 109.785 286.728C109.305 287.037 108.703 287.192 107.977 287.192ZM108.121 286.024C108.655 286.024 109.124 285.901 109.529 285.656C109.945 285.4 110.265 285.048 110.489 284.6C110.724 284.152 110.841 283.629 110.841 283.032C110.841 282.435 110.724 281.912 110.489 281.464C110.265 281.016 109.945 280.669 109.529 280.424C109.124 280.168 108.655 280.04 108.121 280.04C107.599 280.04 107.129 280.168 106.713 280.424C106.308 280.669 105.988 281.016 105.753 281.464C105.529 281.912 105.417 282.435 105.417 283.032C105.417 283.629 105.529 284.152 105.753 284.6C105.988 285.048 106.308 285.4 106.713 285.656C107.129 285.901 107.599 286.024 108.121 286.024ZM118.04 287.192C117.294 287.192 116.622 287.021 116.024 286.68C115.427 286.339 114.952 285.859 114.6 285.24C114.259 284.611 114.088 283.875 114.088 283.032C114.088 282.189 114.264 281.459 114.616 280.84C114.968 280.211 115.443 279.725 116.04 279.384C116.648 279.043 117.326 278.872 118.072 278.872C118.819 278.872 119.491 279.043 120.088 279.384C120.686 279.725 121.155 280.211 121.496 280.84C121.848 281.459 122.024 282.189 122.024 283.032C122.024 283.875 121.848 284.611 121.496 285.24C121.144 285.859 120.664 286.339 120.056 286.68C119.459 287.021 118.787 287.192 118.04 287.192ZM118.04 286.04C118.499 286.04 118.926 285.928 119.32 285.704C119.715 285.48 120.035 285.144 120.28 284.696C120.526 284.248 120.648 283.693 120.648 283.032C120.648 282.371 120.526 281.816 120.28 281.368C120.046 280.92 119.731 280.584 119.336 280.36C118.942 280.136 118.52 280.024 118.072 280.024C117.614 280.024 117.187 280.136 116.792 280.36C116.398 280.584 116.078 280.92 115.832 281.368C115.587 281.816 115.464 282.371 115.464 283.032C115.464 283.693 115.587 284.248 115.832 284.696C116.078 285.144 116.392 285.48 116.776 285.704C117.171 285.928 117.592 286.04 118.04 286.04ZM128.127 290.52V279.064H129.343L129.471 280.376C129.727 279.992 130.09 279.645 130.559 279.336C131.039 279.027 131.647 278.872 132.383 278.872C133.173 278.872 133.861 279.053 134.447 279.416C135.034 279.779 135.487 280.275 135.807 280.904C136.138 281.533 136.303 282.248 136.303 283.048C136.303 283.848 136.138 284.563 135.807 285.192C135.487 285.811 135.029 286.301 134.431 286.664C133.845 287.016 133.157 287.192 132.367 287.192C131.717 287.192 131.135 287.059 130.623 286.792C130.122 286.525 129.738 286.152 129.471 285.672V290.52H128.127ZM132.223 286.024C132.757 286.024 133.226 285.901 133.631 285.656C134.037 285.4 134.357 285.048 134.591 284.6C134.826 284.152 134.943 283.629 134.943 283.032C134.943 282.435 134.826 281.912 134.591 281.464C134.357 281.016 134.037 280.669 133.631 280.424C133.226 280.168 132.757 280.04 132.223 280.04C131.69 280.04 131.221 280.168 130.815 280.424C130.41 280.669 130.09 281.016 129.855 281.464C129.621 281.912 129.503 282.435 129.503 283.032C129.503 283.629 129.621 284.152 129.855 284.6C130.09 285.048 130.41 285.4 130.815 285.656C131.221 285.901 131.69 286.024 132.223 286.024ZM141.79 287.192C141.044 287.192 140.372 287.021 139.774 286.68C139.177 286.339 138.702 285.859 138.35 285.24C138.009 284.611 137.838 283.875 137.838 283.032C137.838 282.189 138.014 281.459 138.366 280.84C138.718 280.211 139.193 279.725 139.79 279.384C140.398 279.043 141.076 278.872 141.822 278.872C142.569 278.872 143.241 279.043 143.838 279.384C144.436 279.725 144.905 280.211 145.246 280.84C145.598 281.459 145.774 282.189 145.774 283.032C145.774 283.875 145.598 284.611 145.246 285.24C144.894 285.859 144.414 286.339 143.806 286.68C143.209 287.021 142.537 287.192 141.79 287.192ZM141.79 286.04C142.249 286.04 142.676 285.928 143.07 285.704C143.465 285.48 143.785 285.144 144.03 284.696C144.276 284.248 144.398 283.693 144.398 283.032C144.398 282.371 144.276 281.816 144.03 281.368C143.796 280.92 143.481 280.584 143.086 280.36C142.692 280.136 142.27 280.024 141.822 280.024C141.364 280.024 140.937 280.136 140.542 280.36C140.148 280.584 139.828 280.92 139.582 281.368C139.337 281.816 139.214 282.371 139.214 283.032C139.214 283.693 139.337 284.248 139.582 284.696C139.828 285.144 140.142 285.48 140.526 285.704C140.921 285.928 141.342 286.04 141.79 286.04ZM147.643 287V279.064H148.859L148.971 280.584C149.216 280.061 149.59 279.645 150.091 279.336C150.592 279.027 151.211 278.872 151.947 278.872V280.28H151.579C151.11 280.28 150.678 280.365 150.283 280.536C149.888 280.696 149.574 280.973 149.339 281.368C149.104 281.763 148.987 282.307 148.987 283V287H147.643ZM160.586 287.192C159.647 287.192 158.901 286.909 158.346 286.344C157.791 285.768 157.514 284.888 157.514 283.704V279.064H158.858V283.56C158.858 285.213 159.535 286.04 160.89 286.04C161.583 286.04 162.154 285.795 162.602 285.304C163.061 284.803 163.29 284.093 163.29 283.176V279.064H164.634V287H163.418L163.322 285.576C163.077 286.077 162.709 286.472 162.218 286.76C161.738 287.048 161.194 287.192 160.586 287.192ZM166.846 287V279.064H168.062L168.158 280.216C168.414 279.789 168.756 279.459 169.182 279.224C169.609 278.989 170.089 278.872 170.622 278.872C171.252 278.872 171.79 279 172.238 279.256C172.697 279.512 173.049 279.901 173.294 280.424C173.572 279.944 173.95 279.565 174.43 279.288C174.921 279.011 175.449 278.872 176.014 278.872C176.964 278.872 177.721 279.16 178.286 279.736C178.852 280.301 179.134 281.176 179.134 282.36V287H177.806V282.504C177.806 281.683 177.641 281.064 177.31 280.648C176.98 280.232 176.505 280.024 175.886 280.024C175.246 280.024 174.713 280.275 174.286 280.776C173.87 281.267 173.662 281.971 173.662 282.888V287H172.318V282.504C172.318 281.683 172.153 281.064 171.822 280.648C171.492 280.232 171.017 280.024 170.398 280.024C169.769 280.024 169.241 280.275 168.814 280.776C168.398 281.267 168.19 281.971 168.19 282.888V287H166.846ZM188.097 287V276.904H184.753V275.8H192.785V276.904H189.441V287H188.097ZM193.44 287V279.064H194.656L194.768 280.584C195.013 280.061 195.387 279.645 195.888 279.336C196.389 279.027 197.008 278.872 197.744 278.872V280.28H197.376C196.907 280.28 196.475 280.365 196.08 280.536C195.685 280.696 195.371 280.973 195.136 281.368C194.901 281.763 194.784 282.307 194.784 283V287H193.44ZM202.148 287.192C201.21 287.192 200.463 286.909 199.908 286.344C199.354 285.768 199.076 284.888 199.076 283.704V279.064H200.42V283.56C200.42 285.213 201.098 286.04 202.452 286.04C203.146 286.04 203.716 285.795 204.164 285.304C204.623 284.803 204.852 284.093 204.852 283.176V279.064H206.196V287H204.98L204.884 285.576C204.639 286.077 204.271 286.472 203.78 286.76C203.3 287.048 202.756 287.192 202.148 287.192ZM211.449 287.192C210.499 287.192 209.71 286.952 209.081 286.472C208.451 285.992 208.083 285.341 207.977 284.52H209.353C209.438 284.936 209.657 285.299 210.009 285.608C210.371 285.907 210.857 286.056 211.465 286.056C212.03 286.056 212.446 285.939 212.713 285.704C212.979 285.459 213.113 285.171 213.113 284.84C213.113 284.36 212.937 284.04 212.585 283.88C212.243 283.72 211.758 283.576 211.129 283.448C210.702 283.363 210.275 283.24 209.849 283.08C209.422 282.92 209.065 282.696 208.777 282.408C208.489 282.109 208.345 281.72 208.345 281.24C208.345 280.547 208.601 279.981 209.113 279.544C209.635 279.096 210.339 278.872 211.225 278.872C212.067 278.872 212.755 279.085 213.289 279.512C213.833 279.928 214.147 280.525 214.233 281.304H212.905C212.851 280.899 212.675 280.584 212.377 280.36C212.089 280.125 211.699 280.008 211.209 280.008C210.729 280.008 210.355 280.109 210.089 280.312C209.833 280.515 209.705 280.781 209.705 281.112C209.705 281.432 209.87 281.683 210.201 281.864C210.542 282.045 211.001 282.2 211.577 282.328C212.067 282.435 212.531 282.568 212.969 282.728C213.417 282.877 213.779 283.107 214.057 283.416C214.345 283.715 214.489 284.152 214.489 284.728C214.499 285.443 214.227 286.035 213.673 286.504C213.129 286.963 212.387 287.192 211.449 287.192ZM219.185 287C218.46 287 217.889 286.824 217.473 286.472C217.057 286.12 216.849 285.485 216.849 284.568V280.2H215.473V279.064H216.849L217.025 277.16H218.193V279.064H220.529V280.2H218.193V284.568C218.193 285.069 218.295 285.411 218.497 285.592C218.7 285.763 219.057 285.848 219.569 285.848H220.401V287H219.185Z" fill="white"/>
<circle cx="136.5" cy="96.5" r="96.5" fill="#67407F"/>
<path d="M95.5714 49C88.0859 49 82 55.0859 82 62.5714V130.429C82 137.914 88.0859 144 95.5714 144H177C184.485 144 190.571 137.914 190.571 130.429V82.9286C190.571 75.4431 184.485 69.3571 177 69.3571H98.9643C97.0982 69.3571 95.5714 67.8304 95.5714 65.9643C95.5714 64.0982 97.0982 62.5714 98.9643 62.5714H177C180.753 62.5714 183.786 59.5391 183.786 55.7857C183.786 52.0324 180.753 49 177 49H95.5714ZM170.214 99.8929C172.014 99.8929 173.74 100.608 175.013 101.88C176.285 103.153 177 104.879 177 106.679C177 108.478 176.285 110.204 175.013 111.477C173.74 112.749 172.014 113.464 170.214 113.464C168.415 113.464 166.689 112.749 165.416 111.477C164.143 110.204 163.429 108.478 163.429 106.679C163.429 104.879 164.143 103.153 165.416 101.88C166.689 100.608 168.415 99.8929 170.214 99.8929Z" fill="white"/>
</svg>
