<svg width="272" height="292" viewBox="0 0 272 292" fill="none" xmlns="http://www.w3.org/2000/svg">
<path d="M38.0849 244.24C37.0583 244.24 36.1583 244.06 35.3849 243.7C34.6116 243.34 34.0049 242.827 33.5649 242.16C33.1383 241.493 32.9183 240.7 32.9049 239.78H35.1449C35.1583 240.527 35.4183 241.16 35.9249 241.68C36.4316 242.2 37.1449 242.46 38.0649 242.46C38.8783 242.46 39.5116 242.267 39.9649 241.88C40.4316 241.48 40.6649 240.973 40.6649 240.36C40.6649 239.867 40.5516 239.467 40.3249 239.16C40.1116 238.853 39.8116 238.6 39.4249 238.4C39.0516 238.2 38.6183 238.02 38.1249 237.86C37.6316 237.7 37.1116 237.527 36.5649 237.34C35.4849 236.98 34.6716 236.513 34.1249 235.94C33.5916 235.367 33.3249 234.613 33.3249 233.68C33.3116 232.893 33.4916 232.207 33.8649 231.62C34.2516 231.033 34.7849 230.58 35.4649 230.26C36.1583 229.927 36.9649 229.76 37.8849 229.76C38.7916 229.76 39.5849 229.927 40.2649 230.26C40.9583 230.593 41.4983 231.06 41.8849 231.66C42.2716 232.247 42.4716 232.933 42.4849 233.72H40.2449C40.2449 233.36 40.1516 233.02 39.9649 232.7C39.7783 232.367 39.5049 232.093 39.1449 231.88C38.7849 231.667 38.3449 231.56 37.8249 231.56C37.1583 231.547 36.6049 231.713 36.1649 232.06C35.7383 232.407 35.5249 232.887 35.5249 233.5C35.5249 234.047 35.6849 234.467 36.0049 234.76C36.3249 235.053 36.7649 235.3 37.3249 235.5C37.8849 235.687 38.5249 235.907 39.2449 236.16C39.9383 236.387 40.5583 236.66 41.1049 236.98C41.6516 237.3 42.0849 237.72 42.4049 238.24C42.7383 238.76 42.9049 239.42 42.9049 240.22C42.9049 240.927 42.7249 241.587 42.3649 242.2C42.0049 242.8 41.4649 243.293 40.7449 243.68C40.0249 244.053 39.1383 244.24 38.0849 244.24ZM49.7827 244.24C48.8094 244.24 47.9427 244.027 47.1827 243.6C46.4361 243.16 45.8494 242.553 45.4227 241.78C44.9961 241.007 44.7827 240.107 44.7827 239.08C44.7827 238.04 44.9894 237.127 45.4027 236.34C45.8294 235.553 46.4161 234.94 47.1627 234.5C47.9227 234.06 48.8027 233.84 49.8027 233.84C50.7761 233.84 51.6227 234.06 52.3427 234.5C53.0627 234.927 53.6227 235.5 54.0227 236.22C54.4227 236.94 54.6227 237.733 54.6227 238.6C54.6227 238.733 54.6161 238.88 54.6027 239.04C54.6027 239.187 54.5961 239.353 54.5827 239.54H46.8627C46.9294 240.5 47.2427 241.233 47.8027 241.74C48.3761 242.233 49.0361 242.48 49.7827 242.48C50.3827 242.48 50.8827 242.347 51.2827 242.08C51.6961 241.8 52.0027 241.427 52.2027 240.96H54.3227C54.0561 241.893 53.5227 242.673 52.7227 243.3C51.9361 243.927 50.9561 244.24 49.7827 244.24ZM49.7827 235.58C49.0761 235.58 48.4494 235.793 47.9027 236.22C47.3561 236.633 47.0227 237.26 46.9027 238.1H52.5027C52.4627 237.327 52.1894 236.713 51.6827 236.26C51.1761 235.807 50.5427 235.58 49.7827 235.58ZM56.8224 244V234.08H58.7224L58.9024 235.96C59.2491 235.307 59.7291 234.793 60.3424 234.42C60.9691 234.033 61.7224 233.84 62.6024 233.84V236.06H62.0224C61.4358 236.06 60.9091 236.16 60.4424 236.36C59.9891 236.547 59.6224 236.873 59.3424 237.34C59.0758 237.793 58.9424 238.427 58.9424 239.24V244H56.8224ZM67.2001 244L63.4801 234.08H65.7001L68.4601 241.98L71.2201 234.08H73.4201L69.7201 244H67.2001ZM76.3623 232.2C75.9623 232.2 75.6289 232.08 75.3623 231.84C75.1089 231.587 74.9823 231.273 74.9823 230.9C74.9823 230.527 75.1089 230.22 75.3623 229.98C75.6289 229.727 75.9623 229.6 76.3623 229.6C76.7623 229.6 77.0889 229.727 77.3423 229.98C77.6089 230.22 77.7423 230.527 77.7423 230.9C77.7423 231.273 77.6089 231.587 77.3423 231.84C77.0889 232.08 76.7623 232.2 76.3623 232.2ZM75.3023 244V234.08H77.4223V244H75.3023ZM84.9209 244.24C83.9475 244.24 83.0742 244.02 82.3009 243.58C81.5409 243.14 80.9409 242.533 80.5009 241.76C80.0742 240.973 79.8609 240.067 79.8609 239.04C79.8609 238.013 80.0742 237.113 80.5009 236.34C80.9409 235.553 81.5409 234.94 82.3009 234.5C83.0742 234.06 83.9475 233.84 84.9209 233.84C86.1475 233.84 87.1742 234.16 88.0009 234.8C88.8409 235.44 89.3809 236.307 89.6209 237.4H87.4009C87.2675 236.853 86.9742 236.427 86.5209 236.12C86.0675 235.813 85.5342 235.66 84.9209 235.66C84.4009 235.66 83.9209 235.793 83.4809 236.06C83.0409 236.313 82.6875 236.693 82.4209 237.2C82.1542 237.693 82.0209 238.307 82.0209 239.04C82.0209 239.773 82.1542 240.393 82.4209 240.9C82.6875 241.393 83.0409 241.773 83.4809 242.04C83.9209 242.307 84.4009 242.44 84.9209 242.44C85.5342 242.44 86.0675 242.287 86.5209 241.98C86.9742 241.673 87.2675 241.24 87.4009 240.68H89.6209C89.3942 241.747 88.8609 242.607 88.0209 243.26C87.1809 243.913 86.1475 244.24 84.9209 244.24ZM83.3009 249.26V247.98H85.3409C86.1542 247.98 86.5609 247.7 86.5609 247.14C86.5609 246.62 86.1542 246.36 85.3409 246.36H84.2409V243.9H85.6009V245.16C86.3209 245.147 86.9275 245.307 87.4209 245.64C87.9275 245.973 88.1809 246.487 88.1809 247.18C88.1809 247.86 87.9342 248.373 87.4409 248.72C86.9609 249.08 86.3742 249.26 85.6809 249.26H83.3009ZM96.5601 244.24C95.6134 244.24 94.7601 244.027 94.0001 243.6C93.2534 243.16 92.6601 242.553 92.2201 241.78C91.7801 240.993 91.5601 240.08 91.5601 239.04C91.5601 238 91.7801 237.093 92.2201 236.32C92.6734 235.533 93.2801 234.927 94.0401 234.5C94.8001 234.06 95.6467 233.84 96.5801 233.84C97.5267 233.84 98.3734 234.06 99.1201 234.5C99.8801 234.927 100.48 235.533 100.92 236.32C101.373 237.093 101.6 238 101.6 239.04C101.6 240.08 101.373 240.993 100.92 241.78C100.48 242.553 99.8801 243.16 99.1201 243.6C98.3601 244.027 97.5067 244.24 96.5601 244.24ZM96.5601 242.42C97.0667 242.42 97.5334 242.293 97.9601 242.04C98.4001 241.787 98.7534 241.413 99.0201 240.92C99.2867 240.413 99.4201 239.787 99.4201 239.04C99.4201 238.293 99.2867 237.673 99.0201 237.18C98.7667 236.673 98.4201 236.293 97.9801 236.04C97.5534 235.787 97.0867 235.66 96.5801 235.66C96.0734 235.66 95.6001 235.787 95.1601 236.04C94.7334 236.293 94.3867 236.673 94.1201 237.18C93.8534 237.673 93.7201 238.293 93.7201 239.04C93.7201 239.787 93.8534 240.413 94.1201 240.92C94.3867 241.413 94.7334 241.787 95.1601 242.04C95.5867 242.293 96.0534 242.42 96.5601 242.42ZM108.932 248.4V234.08H110.832L111.052 235.62C111.372 235.153 111.812 234.74 112.372 234.38C112.932 234.02 113.652 233.84 114.532 233.84C115.492 233.84 116.338 234.067 117.072 234.52C117.805 234.973 118.378 235.593 118.792 236.38C119.218 237.167 119.432 238.06 119.432 239.06C119.432 240.06 119.218 240.953 118.792 241.74C118.378 242.513 117.805 243.127 117.072 243.58C116.338 244.02 115.485 244.24 114.512 244.24C113.738 244.24 113.052 244.087 112.452 243.78C111.865 243.473 111.398 243.04 111.052 242.48V248.4H108.932ZM114.152 242.4C115.058 242.4 115.805 242.093 116.392 241.48C116.978 240.853 117.272 240.04 117.272 239.04C117.272 238.387 117.138 237.807 116.872 237.3C116.605 236.793 116.238 236.4 115.772 236.12C115.305 235.827 114.765 235.68 114.152 235.68C113.245 235.68 112.498 235.993 111.912 236.62C111.338 237.247 111.052 238.053 111.052 239.04C111.052 240.04 111.338 240.853 111.912 241.48C112.498 242.093 113.245 242.4 114.152 242.4ZM126.365 244.24C125.391 244.24 124.525 244.027 123.765 243.6C123.018 243.16 122.431 242.553 122.005 241.78C121.578 241.007 121.365 240.107 121.365 239.08C121.365 238.04 121.571 237.127 121.985 236.34C122.411 235.553 122.998 234.94 123.745 234.5C124.505 234.06 125.385 233.84 126.385 233.84C127.358 233.84 128.205 234.06 128.925 234.5C129.645 234.927 130.205 235.5 130.605 236.22C131.005 236.94 131.205 237.733 131.205 238.6C131.205 238.733 131.198 238.88 131.185 239.04C131.185 239.187 131.178 239.353 131.165 239.54H123.445C123.511 240.5 123.825 241.233 124.385 241.74C124.958 242.233 125.618 242.48 126.365 242.48C126.965 242.48 127.465 242.347 127.865 242.08C128.278 241.8 128.585 241.427 128.785 240.96H130.905C130.638 241.893 130.105 242.673 129.305 243.3C128.518 243.927 127.538 244.24 126.365 244.24ZM126.365 235.58C125.658 235.58 125.031 235.793 124.485 236.22C123.938 236.633 123.605 237.26 123.485 238.1H129.085C129.045 237.327 128.771 236.713 128.265 236.26C127.758 235.807 127.125 235.58 126.365 235.58ZM133.404 244V234.08H135.304L135.484 235.96C135.831 235.307 136.311 234.793 136.924 234.42C137.551 234.033 138.304 233.84 139.184 233.84V236.06H138.604C138.018 236.06 137.491 236.16 137.024 236.36C136.571 236.547 136.204 236.873 135.924 237.34C135.658 237.793 135.524 238.427 135.524 239.24V244H133.404ZM144.962 244.24C143.709 244.24 142.675 243.933 141.862 243.32C141.049 242.707 140.582 241.893 140.462 240.88H142.602C142.709 241.333 142.962 241.727 143.362 242.06C143.762 242.38 144.289 242.54 144.942 242.54C145.582 242.54 146.049 242.407 146.342 242.14C146.635 241.873 146.782 241.567 146.782 241.22C146.782 240.713 146.575 240.373 146.162 240.2C145.762 240.013 145.202 239.847 144.482 239.7C143.922 239.58 143.362 239.42 142.802 239.22C142.255 239.02 141.795 238.74 141.422 238.38C141.062 238.007 140.882 237.507 140.882 236.88C140.882 236.013 141.215 235.293 141.882 234.72C142.549 234.133 143.482 233.84 144.682 233.84C145.789 233.84 146.682 234.107 147.362 234.64C148.055 235.173 148.462 235.927 148.582 236.9H146.542C146.475 236.473 146.275 236.14 145.942 235.9C145.622 235.66 145.189 235.54 144.642 235.54C144.109 235.54 143.695 235.653 143.402 235.88C143.109 236.093 142.962 236.373 142.962 236.72C142.962 237.067 143.162 237.34 143.562 237.54C143.975 237.74 144.515 237.92 145.182 238.08C145.849 238.227 146.462 238.4 147.022 238.6C147.595 238.787 148.055 239.067 148.402 239.44C148.749 239.813 148.922 240.36 148.922 241.08C148.935 241.987 148.582 242.74 147.862 243.34C147.155 243.94 146.189 244.24 144.962 244.24ZM155.876 244.24C154.93 244.24 154.076 244.027 153.316 243.6C152.57 243.16 151.976 242.553 151.536 241.78C151.096 240.993 150.876 240.08 150.876 239.04C150.876 238 151.096 237.093 151.536 236.32C151.99 235.533 152.596 234.927 153.356 234.5C154.116 234.06 154.963 233.84 155.896 233.84C156.843 233.84 157.69 234.06 158.436 234.5C159.196 234.927 159.796 235.533 160.236 236.32C160.69 237.093 160.916 238 160.916 239.04C160.916 240.08 160.69 240.993 160.236 241.78C159.796 242.553 159.196 243.16 158.436 243.6C157.676 244.027 156.823 244.24 155.876 244.24ZM155.876 242.42C156.383 242.42 156.85 242.293 157.276 242.04C157.716 241.787 158.07 241.413 158.336 240.92C158.603 240.413 158.736 239.787 158.736 239.04C158.736 238.293 158.603 237.673 158.336 237.18C158.083 236.673 157.736 236.293 157.296 236.04C156.87 235.787 156.403 235.66 155.896 235.66C155.39 235.66 154.916 235.787 154.476 236.04C154.05 236.293 153.703 236.673 153.436 237.18C153.17 237.673 153.036 238.293 153.036 239.04C153.036 239.787 153.17 240.413 153.436 240.92C153.703 241.413 154.05 241.787 154.476 242.04C154.903 242.293 155.37 242.42 155.876 242.42ZM163.209 244V234.08H165.089L165.249 235.82C165.556 235.207 166.002 234.727 166.589 234.38C167.189 234.02 167.876 233.84 168.649 233.84C169.849 233.84 170.789 234.213 171.469 234.96C172.162 235.707 172.509 236.82 172.509 238.3V244H170.409V238.52C170.409 236.6 169.622 235.64 168.049 235.64C167.262 235.64 166.609 235.92 166.089 236.48C165.582 237.04 165.329 237.84 165.329 238.88V244H163.209ZM178.366 244.24C177.526 244.24 176.833 244.1 176.286 243.82C175.739 243.54 175.333 243.173 175.066 242.72C174.799 242.253 174.666 241.747 174.666 241.2C174.666 240.24 175.039 239.48 175.786 238.92C176.533 238.36 177.599 238.08 178.986 238.08H181.586V237.9C181.586 237.127 181.373 236.547 180.946 236.16C180.533 235.773 179.993 235.58 179.326 235.58C178.739 235.58 178.226 235.727 177.786 236.02C177.359 236.3 177.099 236.72 177.006 237.28H174.886C174.953 236.56 175.193 235.947 175.606 235.44C176.033 234.92 176.566 234.527 177.206 234.26C177.859 233.98 178.573 233.84 179.346 233.84C180.733 233.84 181.806 234.207 182.566 234.94C183.326 235.66 183.706 236.647 183.706 237.9V244H181.866L181.686 242.3C181.406 242.847 180.999 243.307 180.466 243.68C179.933 244.053 179.233 244.24 178.366 244.24ZM178.786 242.52C179.359 242.52 179.839 242.387 180.226 242.12C180.626 241.84 180.933 241.473 181.146 241.02C181.373 240.567 181.513 240.067 181.566 239.52H179.206C178.366 239.52 177.766 239.667 177.406 239.96C177.059 240.253 176.886 240.62 176.886 241.06C176.886 241.513 177.053 241.873 177.386 242.14C177.733 242.393 178.199 242.52 178.786 242.52ZM186.178 244V229.6H188.298V244H186.178ZM192.183 232.2C191.783 232.2 191.449 232.08 191.183 231.84C190.929 231.587 190.803 231.273 190.803 230.9C190.803 230.527 190.929 230.22 191.183 229.98C191.449 229.727 191.783 229.6 192.183 229.6C192.583 229.6 192.909 229.727 193.163 229.98C193.429 230.22 193.563 230.527 193.563 230.9C193.563 231.273 193.429 231.587 193.163 231.84C192.909 232.08 192.583 232.2 192.183 232.2ZM191.123 244V234.08H193.243V244H191.123ZM195.381 244V242.28L200.681 235.84H195.461V234.08H203.081V235.8L197.741 242.24H203.181V244H195.381ZM208.718 244.24C207.878 244.24 207.184 244.1 206.638 243.82C206.091 243.54 205.684 243.173 205.418 242.72C205.151 242.253 205.018 241.747 205.018 241.2C205.018 240.24 205.391 239.48 206.138 238.92C206.884 238.36 207.951 238.08 209.338 238.08H211.938V237.9C211.938 237.127 211.724 236.547 211.298 236.16C210.884 235.773 210.344 235.58 209.678 235.58C209.091 235.58 208.578 235.727 208.138 236.02C207.711 236.3 207.451 236.72 207.358 237.28H205.238C205.304 236.56 205.544 235.947 205.958 235.44C206.384 234.92 206.918 234.527 207.558 234.26C208.211 233.98 208.924 233.84 209.698 233.84C211.084 233.84 212.158 234.207 212.918 234.94C213.678 235.66 214.058 236.647 214.058 237.9V244H212.218L212.038 242.3C211.758 242.847 211.351 243.307 210.818 243.68C210.284 244.053 209.584 244.24 208.718 244.24ZM209.138 242.52C209.711 242.52 210.191 242.387 210.578 242.12C210.978 241.84 211.284 241.473 211.498 241.02C211.724 240.567 211.864 240.067 211.918 239.52H209.558C208.718 239.52 208.118 239.667 207.758 239.96C207.411 240.253 207.238 240.62 207.238 241.06C207.238 241.513 207.404 241.873 207.738 242.14C208.084 242.393 208.551 242.52 209.138 242.52ZM221.049 244.24C220.089 244.24 219.243 244.013 218.509 243.56C217.776 243.107 217.203 242.487 216.789 241.7C216.376 240.913 216.169 240.02 216.169 239.02C216.169 238.02 216.376 237.133 216.789 236.36C217.203 235.573 217.776 234.96 218.509 234.52C219.256 234.067 220.109 233.84 221.069 233.84C221.856 233.84 222.543 233.993 223.129 234.3C223.729 234.607 224.196 235.04 224.529 235.6V229.6H226.649V244H224.749L224.529 242.46C224.209 242.927 223.769 243.34 223.209 243.7C222.649 244.06 221.929 244.24 221.049 244.24ZM221.429 242.4C222.336 242.4 223.076 242.087 223.649 241.46C224.236 240.833 224.529 240.027 224.529 239.04C224.529 238.04 224.236 237.233 223.649 236.62C223.076 235.993 222.336 235.68 221.429 235.68C220.523 235.68 219.776 235.993 219.189 236.62C218.603 237.233 218.309 238.04 218.309 239.04C218.309 239.693 218.443 240.273 218.709 240.78C218.976 241.287 219.343 241.687 219.809 241.98C220.289 242.26 220.829 242.4 221.429 242.4ZM233.962 244.24C233.016 244.24 232.162 244.027 231.402 243.6C230.656 243.16 230.062 242.553 229.622 241.78C229.182 240.993 228.962 240.08 228.962 239.04C228.962 238 229.182 237.093 229.622 236.32C230.076 235.533 230.682 234.927 231.442 234.5C232.202 234.06 233.049 233.84 233.982 233.84C234.929 233.84 235.776 234.06 236.522 234.5C237.282 234.927 237.882 235.533 238.322 236.32C238.776 237.093 239.002 238 239.002 239.04C239.002 240.08 238.776 240.993 238.322 241.78C237.882 242.553 237.282 243.16 236.522 243.6C235.762 244.027 234.909 244.24 233.962 244.24ZM233.962 242.42C234.469 242.42 234.936 242.293 235.362 242.04C235.802 241.787 236.156 241.413 236.422 240.92C236.689 240.413 236.822 239.787 236.822 239.04C236.822 238.293 236.689 237.673 236.422 237.18C236.169 236.673 235.822 236.293 235.382 236.04C234.956 235.787 234.489 235.66 233.982 235.66C233.476 235.66 233.002 235.787 232.562 236.04C232.136 236.293 231.789 236.673 231.522 237.18C231.256 237.673 231.122 238.293 231.122 239.04C231.122 239.787 231.256 240.413 231.522 240.92C231.789 241.413 232.136 241.787 232.562 242.04C232.989 242.293 233.456 242.42 233.962 242.42Z" fill="white"/>
<path d="M25.5491 266.192C24.4505 266.192 23.5011 265.952 22.7011 265.472C21.9118 264.981 21.2985 264.304 20.8611 263.44C20.4238 262.565 20.2051 261.552 20.2051 260.4C20.2051 259.259 20.4238 258.256 20.8611 257.392C21.2985 256.517 21.9118 255.835 22.7011 255.344C23.5011 254.853 24.4505 254.608 25.5491 254.608C26.8291 254.608 27.8691 254.917 28.6691 255.536C29.4798 256.144 29.9971 256.997 30.2211 258.096H28.7331C28.5625 257.403 28.2105 256.848 27.6771 256.432C27.1545 256.005 26.4451 255.792 25.5491 255.792C24.7491 255.792 24.0505 255.979 23.4531 256.352C22.8558 256.715 22.3918 257.243 22.0611 257.936C21.7411 258.619 21.5811 259.44 21.5811 260.4C21.5811 261.36 21.7411 262.187 22.0611 262.88C22.3918 263.563 22.8558 264.091 23.4531 264.464C24.0505 264.827 24.7491 265.008 25.5491 265.008C26.4451 265.008 27.1545 264.805 27.6771 264.4C28.2105 263.984 28.5625 263.435 28.7331 262.752H30.2211C29.9971 263.829 29.4798 264.672 28.6691 265.28C27.8691 265.888 26.8291 266.192 25.5491 266.192ZM35.6888 266.192C34.9421 266.192 34.2701 266.021 33.6728 265.68C33.0754 265.339 32.6008 264.859 32.2488 264.24C31.9074 263.611 31.7368 262.875 31.7368 262.032C31.7368 261.189 31.9128 260.459 32.2648 259.84C32.6168 259.211 33.0914 258.725 33.6888 258.384C34.2968 258.043 34.9741 257.872 35.7208 257.872C36.4674 257.872 37.1394 258.043 37.7368 258.384C38.3341 258.725 38.8034 259.211 39.1448 259.84C39.4968 260.459 39.6728 261.189 39.6728 262.032C39.6728 262.875 39.4968 263.611 39.1448 264.24C38.7928 264.859 38.3128 265.339 37.7048 265.68C37.1074 266.021 36.4354 266.192 35.6888 266.192ZM35.6888 265.04C36.1474 265.04 36.5741 264.928 36.9688 264.704C37.3634 264.48 37.6834 264.144 37.9288 263.696C38.1741 263.248 38.2968 262.693 38.2968 262.032C38.2968 261.371 38.1741 260.816 37.9288 260.368C37.6941 259.92 37.3794 259.584 36.9848 259.36C36.5901 259.136 36.1688 259.024 35.7208 259.024C35.2621 259.024 34.8354 259.136 34.4408 259.36C34.0461 259.584 33.7261 259.92 33.4808 260.368C33.2354 260.816 33.1128 261.371 33.1128 262.032C33.1128 262.693 33.2354 263.248 33.4808 263.696C33.7261 264.144 34.0408 264.48 34.4248 264.704C34.8194 264.928 35.2408 265.04 35.6888 265.04ZM41.5415 266V258.064H42.7575L42.8375 259.488C43.0935 258.987 43.4615 258.592 43.9415 258.304C44.4215 258.016 44.9655 257.872 45.5735 257.872C46.5122 257.872 47.2588 258.16 47.8135 258.736C48.3788 259.301 48.6615 260.176 48.6615 261.36V266H47.3175V261.504C47.3175 259.851 46.6348 259.024 45.2695 259.024C44.5868 259.024 44.0162 259.275 43.5575 259.776C43.1095 260.267 42.8855 260.971 42.8855 261.888V266H41.5415ZM53.7378 266.192C52.7884 266.192 51.9991 265.952 51.3698 265.472C50.7404 264.992 50.3724 264.341 50.2658 263.52H51.6418C51.7271 263.936 51.9458 264.299 52.2978 264.608C52.6604 264.907 53.1458 265.056 53.7538 265.056C54.3191 265.056 54.7351 264.939 55.0018 264.704C55.2684 264.459 55.4018 264.171 55.4018 263.84C55.4018 263.36 55.2258 263.04 54.8738 262.88C54.5324 262.72 54.0471 262.576 53.4178 262.448C52.9911 262.363 52.5644 262.24 52.1378 262.08C51.7111 261.92 51.3538 261.696 51.0658 261.408C50.7778 261.109 50.6338 260.72 50.6338 260.24C50.6338 259.547 50.8898 258.981 51.4018 258.544C51.9244 258.096 52.6284 257.872 53.5138 257.872C54.3564 257.872 55.0444 258.085 55.5778 258.512C56.1218 258.928 56.4364 259.525 56.5218 260.304H55.1938C55.1404 259.899 54.9644 259.584 54.6658 259.36C54.3778 259.125 53.9884 259.008 53.4978 259.008C53.0178 259.008 52.6444 259.109 52.3778 259.312C52.1218 259.515 51.9938 259.781 51.9938 260.112C51.9938 260.432 52.1591 260.683 52.4898 260.864C52.8311 261.045 53.2898 261.2 53.8658 261.328C54.3564 261.435 54.8204 261.568 55.2578 261.728C55.7058 261.877 56.0684 262.107 56.3458 262.416C56.6338 262.715 56.7778 263.152 56.7778 263.728C56.7884 264.443 56.5164 265.035 55.9618 265.504C55.4178 265.963 54.6764 266.192 53.7378 266.192ZM62.2658 266.192C61.5084 266.192 60.8364 266.021 60.2498 265.68C59.6631 265.328 59.1991 264.843 58.8578 264.224C58.5271 263.605 58.3618 262.875 58.3618 262.032C58.3618 261.2 58.5271 260.475 58.8578 259.856C59.1884 259.227 59.6471 258.741 60.2338 258.4C60.8311 258.048 61.5191 257.872 62.2977 257.872C63.0658 257.872 63.7271 258.048 64.2818 258.4C64.8471 258.741 65.2791 259.195 65.5778 259.76C65.8764 260.325 66.0258 260.933 66.0258 261.584C66.0258 261.701 66.0204 261.819 66.0098 261.936C66.0098 262.053 66.0098 262.187 66.0098 262.336H59.6898C59.7218 262.944 59.8604 263.451 60.1058 263.856C60.3618 264.251 60.6764 264.549 61.0498 264.752C61.4338 264.955 61.8391 265.056 62.2658 265.056C62.8204 265.056 63.2844 264.928 63.6578 264.672C64.0311 264.416 64.3031 264.069 64.4738 263.632H65.8018C65.5884 264.368 65.1778 264.981 64.5698 265.472C63.9724 265.952 63.2044 266.192 62.2658 266.192ZM62.2658 259.008C61.6258 259.008 61.0551 259.205 60.5538 259.6C60.0631 259.984 59.7804 260.549 59.7057 261.296H64.6978C64.6658 260.581 64.4204 260.021 63.9618 259.616C63.5031 259.211 62.9378 259.008 62.2658 259.008ZM67.8071 266V258.064H69.0231L69.1351 259.584C69.3805 259.061 69.7538 258.645 70.2551 258.336C70.7565 258.027 71.3751 257.872 72.1111 257.872V259.28H71.7431C71.2738 259.28 70.8418 259.365 70.4471 259.536C70.0525 259.696 69.7378 259.973 69.5031 260.368C69.2685 260.763 69.1511 261.307 69.1511 262V266H67.8071ZM75.9076 266L72.8996 258.064H74.3076L76.6916 264.704L79.0916 258.064H80.4676L77.4596 266H75.9076ZM84.1971 266.192C83.5358 266.192 82.9865 266.08 82.5491 265.856C82.1118 265.632 81.7865 265.333 81.5731 264.96C81.3598 264.587 81.2531 264.181 81.2531 263.744C81.2531 262.933 81.5625 262.309 82.1811 261.872C82.7998 261.435 83.6425 261.216 84.7091 261.216H86.8531V261.12C86.8531 260.427 86.6718 259.904 86.3091 259.552C85.9465 259.189 85.4611 259.008 84.8531 259.008C84.3305 259.008 83.8771 259.141 83.4931 259.408C83.1198 259.664 82.8851 260.043 82.7891 260.544H81.4131C81.4665 259.968 81.6585 259.483 81.9891 259.088C82.3305 258.693 82.7518 258.395 83.2531 258.192C83.7545 257.979 84.2878 257.872 84.8531 257.872C85.9625 257.872 86.7945 258.171 87.3491 258.768C87.9145 259.355 88.1971 260.139 88.1971 261.12V266H86.9971L86.9171 264.576C86.6931 265.024 86.3625 265.408 85.9251 265.728C85.4985 266.037 84.9225 266.192 84.1971 266.192ZM84.4051 265.056C84.9171 265.056 85.3545 264.923 85.7171 264.656C86.0905 264.389 86.3731 264.043 86.5651 263.616C86.7571 263.189 86.8531 262.741 86.8531 262.272V262.256H84.8211C84.0318 262.256 83.4718 262.395 83.1411 262.672C82.8211 262.939 82.6611 263.275 82.6611 263.68C82.6611 264.096 82.8105 264.432 83.1091 264.688C83.4185 264.933 83.8505 265.056 84.4051 265.056ZM90.2134 266V258.064H91.4294L91.5094 259.488C91.7654 258.987 92.1334 258.592 92.6134 258.304C93.0934 258.016 93.6374 257.872 94.2454 257.872C95.184 257.872 95.9307 258.16 96.4854 258.736C97.0507 259.301 97.3334 260.176 97.3334 261.36V266H95.9894V261.504C95.9894 259.851 95.3067 259.024 93.9414 259.024C93.2587 259.024 92.688 259.275 92.2294 259.776C91.7814 260.267 91.5574 260.971 91.5574 261.888V266H90.2134ZM102.97 266.192C102.18 266.192 101.487 266.011 100.89 265.648C100.303 265.285 99.8443 264.789 99.5136 264.16C99.1936 263.531 99.0336 262.816 99.0336 262.016C99.0336 261.216 99.199 260.507 99.5296 259.888C99.8603 259.259 100.319 258.768 100.906 258.416C101.492 258.053 102.186 257.872 102.986 257.872C103.636 257.872 104.212 258.005 104.714 258.272C105.215 258.539 105.604 258.912 105.882 259.392V254.48H107.226V266H106.01L105.882 264.688C105.626 265.072 105.258 265.419 104.778 265.728C104.298 266.037 103.695 266.192 102.97 266.192ZM103.114 265.024C103.647 265.024 104.116 264.901 104.522 264.656C104.938 264.4 105.258 264.048 105.482 263.6C105.716 263.152 105.834 262.629 105.834 262.032C105.834 261.435 105.716 260.912 105.482 260.464C105.258 260.016 104.938 259.669 104.522 259.424C104.116 259.168 103.647 259.04 103.114 259.04C102.591 259.04 102.122 259.168 101.706 259.424C101.3 259.669 100.98 260.016 100.746 260.464C100.522 260.912 100.41 261.435 100.41 262.032C100.41 262.629 100.522 263.152 100.746 263.6C100.98 264.048 101.3 264.4 101.706 264.656C102.122 264.901 102.591 265.024 103.114 265.024ZM113.033 266.192C112.286 266.192 111.614 266.021 111.017 265.68C110.419 265.339 109.945 264.859 109.593 264.24C109.251 263.611 109.081 262.875 109.081 262.032C109.081 261.189 109.257 260.459 109.609 259.84C109.961 259.211 110.435 258.725 111.033 258.384C111.641 258.043 112.318 257.872 113.065 257.872C113.811 257.872 114.483 258.043 115.081 258.384C115.678 258.725 116.147 259.211 116.489 259.84C116.841 260.459 117.017 261.189 117.017 262.032C117.017 262.875 116.841 263.611 116.489 264.24C116.137 264.859 115.657 265.339 115.049 265.68C114.451 266.021 113.779 266.192 113.033 266.192ZM113.033 265.04C113.491 265.04 113.918 264.928 114.313 264.704C114.707 264.48 115.027 264.144 115.273 263.696C115.518 263.248 115.641 262.693 115.641 262.032C115.641 261.371 115.518 260.816 115.273 260.368C115.038 259.92 114.723 259.584 114.329 259.36C113.934 259.136 113.513 259.024 113.065 259.024C112.606 259.024 112.179 259.136 111.785 259.36C111.39 259.584 111.07 259.92 110.825 260.368C110.579 260.816 110.457 261.371 110.457 262.032C110.457 262.693 110.579 263.248 110.825 263.696C111.07 264.144 111.385 264.48 111.769 264.704C112.163 264.928 112.585 265.04 113.033 265.04ZM125.76 266.192C125.098 266.192 124.549 266.08 124.112 265.856C123.674 265.632 123.349 265.333 123.136 264.96C122.922 264.587 122.816 264.181 122.816 263.744C122.816 262.933 123.125 262.309 123.744 261.872C124.362 261.435 125.205 261.216 126.272 261.216H128.416V261.12C128.416 260.427 128.234 259.904 127.872 259.552C127.509 259.189 127.024 259.008 126.416 259.008C125.893 259.008 125.44 259.141 125.056 259.408C124.682 259.664 124.448 260.043 124.352 260.544H122.976C123.029 259.968 123.221 259.483 123.552 259.088C123.893 258.693 124.314 258.395 124.816 258.192C125.317 257.979 125.85 257.872 126.416 257.872C127.525 257.872 128.357 258.171 128.912 258.768C129.477 259.355 129.76 260.139 129.76 261.12V266H128.56L128.48 264.576C128.256 265.024 127.925 265.408 127.488 265.728C127.061 266.037 126.485 266.192 125.76 266.192ZM125.968 265.056C126.48 265.056 126.917 264.923 127.28 264.656C127.653 264.389 127.936 264.043 128.128 263.616C128.32 263.189 128.416 262.741 128.416 262.272V262.256H126.384C125.594 262.256 125.034 262.395 124.704 262.672C124.384 262.939 124.224 263.275 124.224 263.68C124.224 264.096 124.373 264.432 124.672 264.688C124.981 264.933 125.413 265.056 125.968 265.056ZM138.298 266L135.29 258.064H136.698L139.082 264.704L141.482 258.064H142.858L139.85 266H138.298ZM145.17 256.304C144.903 256.304 144.679 256.219 144.498 256.048C144.327 255.867 144.242 255.643 144.242 255.376C144.242 255.12 144.327 254.907 144.498 254.736C144.679 254.565 144.903 254.48 145.17 254.48C145.426 254.48 145.645 254.565 145.826 254.736C146.007 254.907 146.098 255.12 146.098 255.376C146.098 255.643 146.007 255.867 145.826 256.048C145.645 256.219 145.426 256.304 145.17 256.304ZM144.498 266V258.064H145.842V266H144.498ZM151.782 266.192C150.993 266.192 150.299 266.011 149.702 265.648C149.115 265.285 148.657 264.789 148.326 264.16C148.006 263.531 147.846 262.816 147.846 262.016C147.846 261.216 148.011 260.507 148.342 259.888C148.673 259.259 149.131 258.768 149.718 258.416C150.305 258.053 150.998 257.872 151.798 257.872C152.449 257.872 153.025 258.005 153.526 258.272C154.027 258.539 154.417 258.912 154.694 259.392V254.48H156.038V266H154.822L154.694 264.688C154.438 265.072 154.07 265.419 153.59 265.728C153.11 266.037 152.507 266.192 151.782 266.192ZM151.926 265.024C152.459 265.024 152.929 264.901 153.334 264.656C153.75 264.4 154.07 264.048 154.294 263.6C154.529 263.152 154.646 262.629 154.646 262.032C154.646 261.435 154.529 260.912 154.294 260.464C154.07 260.016 153.75 259.669 153.334 259.424C152.929 259.168 152.459 259.04 151.926 259.04C151.403 259.04 150.934 259.168 150.518 259.424C150.113 259.669 149.793 260.016 149.558 260.464C149.334 260.912 149.222 261.435 149.222 262.032C149.222 262.629 149.334 263.152 149.558 263.6C149.793 264.048 150.113 264.4 150.518 264.656C150.934 264.901 151.403 265.024 151.926 265.024ZM160.869 266.192C160.208 266.192 159.658 266.08 159.221 265.856C158.784 265.632 158.458 265.333 158.245 264.96C158.032 264.587 157.925 264.181 157.925 263.744C157.925 262.933 158.234 262.309 158.853 261.872C159.472 261.435 160.314 261.216 161.381 261.216H163.525V261.12C163.525 260.427 163.344 259.904 162.981 259.552C162.618 259.189 162.133 259.008 161.525 259.008C161.002 259.008 160.549 259.141 160.165 259.408C159.792 259.664 159.557 260.043 159.461 260.544H158.085C158.138 259.968 158.33 259.483 158.661 259.088C159.002 258.693 159.424 258.395 159.925 258.192C160.426 257.979 160.96 257.872 161.525 257.872C162.634 257.872 163.466 258.171 164.021 258.768C164.586 259.355 164.869 260.139 164.869 261.12V266H163.669L163.589 264.576C163.365 265.024 163.034 265.408 162.597 265.728C162.17 266.037 161.594 266.192 160.869 266.192ZM161.077 265.056C161.589 265.056 162.026 264.923 162.389 264.656C162.762 264.389 163.045 264.043 163.237 263.616C163.429 263.189 163.525 262.741 163.525 262.272V262.256H161.493C160.704 262.256 160.144 262.395 159.813 262.672C159.493 262.939 159.333 263.275 159.333 263.68C159.333 264.096 159.482 264.432 159.781 264.688C160.09 264.933 160.522 265.056 161.077 265.056ZM174.16 266.192C173.21 266.192 172.421 265.952 171.792 265.472C171.162 264.992 170.794 264.341 170.688 263.52H172.064C172.149 263.936 172.368 264.299 172.72 264.608C173.082 264.907 173.568 265.056 174.176 265.056C174.741 265.056 175.157 264.939 175.424 264.704C175.69 264.459 175.824 264.171 175.824 263.84C175.824 263.36 175.648 263.04 175.296 262.88C174.954 262.72 174.469 262.576 173.84 262.448C173.413 262.363 172.986 262.24 172.56 262.08C172.133 261.92 171.776 261.696 171.488 261.408C171.2 261.109 171.056 260.72 171.056 260.24C171.056 259.547 171.312 258.981 171.824 258.544C172.346 258.096 173.05 257.872 173.936 257.872C174.778 257.872 175.466 258.085 176 258.512C176.544 258.928 176.858 259.525 176.944 260.304H175.616C175.562 259.899 175.386 259.584 175.088 259.36C174.8 259.125 174.41 259.008 173.92 259.008C173.44 259.008 173.066 259.109 172.8 259.312C172.544 259.515 172.416 259.781 172.416 260.112C172.416 260.432 172.581 260.683 172.912 260.864C173.253 261.045 173.712 261.2 174.288 261.328C174.778 261.435 175.242 261.568 175.68 261.728C176.128 261.877 176.49 262.107 176.768 262.416C177.056 262.715 177.2 263.152 177.2 263.728C177.21 264.443 176.938 265.035 176.384 265.504C175.84 265.963 175.098 266.192 174.16 266.192ZM182.688 266.192C181.93 266.192 181.258 266.021 180.672 265.68C180.085 265.328 179.621 264.843 179.28 264.224C178.949 263.605 178.784 262.875 178.784 262.032C178.784 261.2 178.949 260.475 179.28 259.856C179.61 259.227 180.069 258.741 180.656 258.4C181.253 258.048 181.941 257.872 182.72 257.872C183.488 257.872 184.149 258.048 184.704 258.4C185.269 258.741 185.701 259.195 186 259.76C186.298 260.325 186.448 260.933 186.448 261.584C186.448 261.701 186.442 261.819 186.432 261.936C186.432 262.053 186.432 262.187 186.432 262.336H180.112C180.144 262.944 180.282 263.451 180.528 263.856C180.784 264.251 181.098 264.549 181.472 264.752C181.856 264.955 182.261 265.056 182.688 265.056C183.242 265.056 183.706 264.928 184.08 264.672C184.453 264.416 184.725 264.069 184.896 263.632H186.224C186.01 264.368 185.6 264.981 184.992 265.472C184.394 265.952 183.626 266.192 182.688 266.192ZM182.688 259.008C182.048 259.008 181.477 259.205 180.976 259.6C180.485 259.984 180.202 260.549 180.128 261.296H185.12C185.088 260.581 184.842 260.021 184.384 259.616C183.925 259.211 183.36 259.008 182.688 259.008ZM188.229 266V254.48H189.573V266H188.229ZM194.064 266L191.056 258.064H192.464L194.848 264.704L197.248 258.064H198.624L195.616 266H194.064ZM202.353 266.192C201.692 266.192 201.143 266.08 200.705 265.856C200.268 265.632 199.943 265.333 199.729 264.96C199.516 264.587 199.409 264.181 199.409 263.744C199.409 262.933 199.719 262.309 200.337 261.872C200.956 261.435 201.799 261.216 202.865 261.216H205.009V261.12C205.009 260.427 204.828 259.904 204.465 259.552C204.103 259.189 203.617 259.008 203.009 259.008C202.487 259.008 202.033 259.141 201.649 259.408C201.276 259.664 201.041 260.043 200.945 260.544H199.569C199.623 259.968 199.815 259.483 200.145 259.088C200.487 258.693 200.908 258.395 201.409 258.192C201.911 257.979 202.444 257.872 203.009 257.872C204.119 257.872 204.951 258.171 205.505 258.768C206.071 259.355 206.353 260.139 206.353 261.12V266H205.153L205.073 264.576C204.849 265.024 204.519 265.408 204.081 265.728C203.655 266.037 203.079 266.192 202.353 266.192ZM202.561 265.056C203.073 265.056 203.511 264.923 203.873 264.656C204.247 264.389 204.529 264.043 204.721 263.616C204.913 263.189 205.009 262.741 205.009 262.272V262.256H202.977C202.188 262.256 201.628 262.395 201.297 262.672C200.977 262.939 200.817 263.275 200.817 263.68C200.817 264.096 200.967 264.432 201.265 264.688C201.575 264.933 202.007 265.056 202.561 265.056ZM211.506 263.504C211.058 263.504 210.647 263.445 210.274 263.328L209.474 264.08C209.591 264.165 209.735 264.24 209.906 264.304C210.087 264.357 210.343 264.411 210.674 264.464C211.004 264.507 211.468 264.555 212.066 264.608C213.132 264.683 213.895 264.928 214.354 265.344C214.812 265.76 215.042 266.304 215.042 266.976C215.042 267.435 214.914 267.872 214.658 268.288C214.412 268.704 214.028 269.045 213.506 269.312C212.994 269.579 212.332 269.712 211.522 269.712C210.807 269.712 210.172 269.616 209.618 269.424C209.063 269.243 208.631 268.96 208.322 268.576C208.012 268.203 207.858 267.728 207.858 267.152C207.858 266.853 207.938 266.528 208.098 266.176C208.258 265.835 208.556 265.509 208.994 265.2C208.759 265.104 208.556 265.003 208.386 264.896C208.226 264.779 208.076 264.651 207.938 264.512V264.144L209.298 262.8C208.668 262.267 208.354 261.563 208.354 260.688C208.354 260.165 208.476 259.691 208.722 259.264C208.967 258.837 209.324 258.501 209.794 258.256C210.263 258 210.834 257.872 211.506 257.872C211.964 257.872 212.38 257.936 212.754 258.064H215.682V259.072L214.194 259.136C214.503 259.584 214.658 260.101 214.658 260.688C214.658 261.211 214.53 261.685 214.274 262.112C214.028 262.539 213.671 262.88 213.202 263.136C212.743 263.381 212.178 263.504 211.506 263.504ZM211.506 262.4C212.071 262.4 212.519 262.256 212.85 261.968C213.191 261.669 213.362 261.243 213.362 260.688C213.362 260.144 213.191 259.728 212.85 259.44C212.519 259.141 212.071 258.992 211.506 258.992C210.93 258.992 210.471 259.141 210.13 259.44C209.799 259.728 209.634 260.144 209.634 260.688C209.634 261.243 209.799 261.669 210.13 261.968C210.471 262.256 210.93 262.4 211.506 262.4ZM209.17 267.024C209.17 267.557 209.394 267.952 209.842 268.208C210.29 268.475 210.85 268.608 211.522 268.608C212.183 268.608 212.711 268.464 213.106 268.176C213.511 267.888 213.714 267.504 213.714 267.024C213.714 266.683 213.575 266.384 213.298 266.128C213.02 265.883 212.508 265.739 211.762 265.696C211.175 265.653 210.668 265.6 210.242 265.536C209.804 265.771 209.516 266.021 209.378 266.288C209.239 266.565 209.17 266.811 209.17 267.024ZM220.453 266.192C219.696 266.192 219.024 266.021 218.437 265.68C217.851 265.328 217.387 264.843 217.045 264.224C216.715 263.605 216.549 262.875 216.549 262.032C216.549 261.2 216.715 260.475 217.045 259.856C217.376 259.227 217.835 258.741 218.421 258.4C219.019 258.048 219.707 257.872 220.485 257.872C221.253 257.872 221.915 258.048 222.469 258.4C223.035 258.741 223.467 259.195 223.765 259.76C224.064 260.325 224.213 260.933 224.213 261.584C224.213 261.701 224.208 261.819 224.197 261.936C224.197 262.053 224.197 262.187 224.197 262.336H217.877C217.909 262.944 218.048 263.451 218.293 263.856C218.549 264.251 218.864 264.549 219.237 264.752C219.621 264.955 220.027 265.056 220.453 265.056C221.008 265.056 221.472 264.928 221.845 264.672C222.219 264.416 222.491 264.069 222.661 263.632H223.989C223.776 264.368 223.365 264.981 222.757 265.472C222.16 265.952 221.392 266.192 220.453 266.192ZM220.453 259.008C219.813 259.008 219.243 259.205 218.741 259.6C218.251 259.984 217.968 260.549 217.893 261.296H222.885C222.853 260.581 222.608 260.021 222.149 259.616C221.691 259.211 221.125 259.008 220.453 259.008ZM225.995 266V258.064H227.211L227.307 259.216C227.563 258.789 227.904 258.459 228.331 258.224C228.757 257.989 229.237 257.872 229.771 257.872C230.4 257.872 230.939 258 231.387 258.256C231.845 258.512 232.197 258.901 232.443 259.424C232.72 258.944 233.099 258.565 233.579 258.288C234.069 258.011 234.597 257.872 235.163 257.872C236.112 257.872 236.869 258.16 237.435 258.736C238 259.301 238.283 260.176 238.283 261.36V266H236.955V261.504C236.955 260.683 236.789 260.064 236.459 259.648C236.128 259.232 235.653 259.024 235.035 259.024C234.395 259.024 233.861 259.275 233.435 259.776C233.019 260.267 232.811 260.971 232.811 261.888V266H231.467V261.504C231.467 260.683 231.301 260.064 230.971 259.648C230.64 259.232 230.165 259.024 229.547 259.024C228.917 259.024 228.389 259.275 227.963 259.776C227.547 260.267 227.339 260.971 227.339 261.888V266H225.995ZM248.11 266.192C247.352 266.192 246.68 266.021 246.094 265.68C245.507 265.328 245.043 264.843 244.702 264.224C244.371 263.605 244.206 262.875 244.206 262.032C244.206 261.2 244.371 260.475 244.702 259.856C245.032 259.227 245.491 258.741 246.078 258.4C246.675 258.048 247.363 257.872 248.141 257.872C248.91 257.872 249.571 258.048 250.126 258.4C250.691 258.741 251.123 259.195 251.422 259.76C251.72 260.325 251.87 260.933 251.87 261.584C251.87 261.701 251.864 261.819 251.854 261.936C251.854 262.053 251.854 262.187 251.854 262.336H245.534C245.566 262.944 245.704 263.451 245.95 263.856C246.206 264.251 246.52 264.549 246.894 264.752C247.278 264.955 247.683 265.056 248.11 265.056C248.664 265.056 249.128 264.928 249.502 264.672C249.875 264.416 250.147 264.069 250.318 263.632H251.646C251.432 264.368 251.022 264.981 250.414 265.472C249.816 265.952 249.048 266.192 248.11 266.192ZM248.11 259.008C247.47 259.008 246.899 259.205 246.398 259.6C245.907 259.984 245.624 260.549 245.549 261.296H250.542C250.51 260.581 250.264 260.021 249.806 259.616C249.347 259.211 248.782 259.008 248.11 259.008ZM42.0643 287.192C41.403 287.192 40.8536 287.08 40.4163 286.856C39.979 286.632 39.6536 286.333 39.4403 285.96C39.227 285.587 39.1203 285.181 39.1203 284.744C39.1203 283.933 39.4296 283.309 40.0483 282.872C40.667 282.435 41.5096 282.216 42.5763 282.216H44.7203V282.12C44.7203 281.427 44.539 280.904 44.1763 280.552C43.8136 280.189 43.3283 280.008 42.7203 280.008C42.1976 280.008 41.7443 280.141 41.3603 280.408C40.987 280.664 40.7523 281.043 40.6563 281.544H39.2803C39.3336 280.968 39.5256 280.483 39.8563 280.088C40.1976 279.693 40.619 279.395 41.1203 279.192C41.6216 278.979 42.155 278.872 42.7203 278.872C43.8296 278.872 44.6616 279.171 45.2163 279.768C45.7816 280.355 46.0643 281.139 46.0643 282.12V287H44.8643L44.7843 285.576C44.5603 286.024 44.2296 286.408 43.7923 286.728C43.3656 287.037 42.7896 287.192 42.0643 287.192ZM42.2723 286.056C42.7843 286.056 43.2216 285.923 43.5843 285.656C43.9576 285.389 44.2403 285.043 44.4323 284.616C44.6243 284.189 44.7203 283.741 44.7203 283.272V283.256H42.6883C41.899 283.256 41.339 283.395 41.0083 283.672C40.6883 283.939 40.5283 284.275 40.5283 284.68C40.5283 285.096 40.6776 285.432 40.9763 285.688C41.2856 285.933 41.7176 286.056 42.2723 286.056ZM48.0806 290.52V279.064H49.2966L49.4246 280.376C49.6806 279.992 50.0432 279.645 50.5126 279.336C50.9926 279.027 51.6006 278.872 52.3366 278.872C53.1259 278.872 53.8139 279.053 54.4006 279.416C54.9872 279.779 55.4406 280.275 55.7606 280.904C56.0912 281.533 56.2566 282.248 56.2566 283.048C56.2566 283.848 56.0912 284.563 55.7606 285.192C55.4406 285.811 54.9819 286.301 54.3846 286.664C53.7979 287.016 53.1099 287.192 52.3206 287.192C51.6699 287.192 51.0886 287.059 50.5766 286.792C50.0752 286.525 49.6912 286.152 49.4246 285.672V290.52H48.0806ZM52.1766 286.024C52.7099 286.024 53.1792 285.901 53.5846 285.656C53.9899 285.4 54.3099 285.048 54.5446 284.6C54.7792 284.152 54.8966 283.629 54.8966 283.032C54.8966 282.435 54.7792 281.912 54.5446 281.464C54.3099 281.016 53.9899 280.669 53.5846 280.424C53.1792 280.168 52.7099 280.04 52.1766 280.04C51.6432 280.04 51.1739 280.168 50.7686 280.424C50.3632 280.669 50.0432 281.016 49.8086 281.464C49.5739 281.912 49.4566 282.435 49.4566 283.032C49.4566 283.629 49.5739 284.152 49.8086 284.6C50.0432 285.048 50.3632 285.4 50.7686 285.656C51.1739 285.901 51.6432 286.024 52.1766 286.024ZM61.7434 287.192C60.9968 287.192 60.3248 287.021 59.7274 286.68C59.1301 286.339 58.6554 285.859 58.3034 285.24C57.9621 284.611 57.7914 283.875 57.7914 283.032C57.7914 282.189 57.9674 281.459 58.3194 280.84C58.6714 280.211 59.1461 279.725 59.7434 279.384C60.3514 279.043 61.0288 278.872 61.7754 278.872C62.5221 278.872 63.1941 279.043 63.7914 279.384C64.3888 279.725 64.8581 280.211 65.1994 280.84C65.5514 281.459 65.7274 282.189 65.7274 283.032C65.7274 283.875 65.5514 284.611 65.1994 285.24C64.8474 285.859 64.3674 286.339 63.7594 286.68C63.1621 287.021 62.4901 287.192 61.7434 287.192ZM61.7434 286.04C62.2021 286.04 62.6288 285.928 63.0234 285.704C63.4181 285.48 63.7381 285.144 63.9834 284.696C64.2288 284.248 64.3514 283.693 64.3514 283.032C64.3514 282.371 64.2288 281.816 63.9834 281.368C63.7488 280.92 63.4341 280.584 63.0394 280.36C62.6448 280.136 62.2234 280.024 61.7754 280.024C61.3168 280.024 60.8901 280.136 60.4954 280.36C60.1008 280.584 59.7808 280.92 59.5354 281.368C59.2901 281.816 59.1674 282.371 59.1674 283.032C59.1674 283.693 59.2901 284.248 59.5354 284.696C59.7808 285.144 60.0954 285.48 60.4794 285.704C60.8741 285.928 61.2954 286.04 61.7434 286.04ZM68.4122 277.304C68.1455 277.304 67.9215 277.219 67.7402 277.048C67.5695 276.867 67.4842 276.643 67.4842 276.376C67.4842 276.12 67.5695 275.907 67.7402 275.736C67.9215 275.565 68.1455 275.48 68.4122 275.48C68.6682 275.48 68.8869 275.565 69.0682 275.736C69.2495 275.907 69.3402 276.12 69.3402 276.376C69.3402 276.643 69.2495 276.867 69.0682 277.048C68.8869 277.219 68.6682 277.304 68.4122 277.304ZM67.7402 287V279.064H69.0842V287H67.7402ZM74.0643 287.192C73.403 287.192 72.8536 287.08 72.4163 286.856C71.979 286.632 71.6536 286.333 71.4403 285.96C71.227 285.587 71.1203 285.181 71.1203 284.744C71.1203 283.933 71.4296 283.309 72.0483 282.872C72.667 282.435 73.5096 282.216 74.5763 282.216H76.7203V282.12C76.7203 281.427 76.539 280.904 76.1763 280.552C75.8136 280.189 75.3283 280.008 74.7203 280.008C74.1976 280.008 73.7443 280.141 73.3603 280.408C72.987 280.664 72.7523 281.043 72.6563 281.544H71.2803C71.3336 280.968 71.5256 280.483 71.8563 280.088C72.1976 279.693 72.619 279.395 73.1203 279.192C73.6216 278.979 74.155 278.872 74.7203 278.872C75.8296 278.872 76.6616 279.171 77.2163 279.768C77.7816 280.355 78.0643 281.139 78.0643 282.12V287H76.8643L76.7843 285.576C76.5603 286.024 76.2296 286.408 75.7923 286.728C75.3656 287.037 74.7896 287.192 74.0643 287.192ZM74.2723 286.056C74.7843 286.056 75.2216 285.923 75.5843 285.656C75.9576 285.389 76.2403 285.043 76.4323 284.616C76.6243 284.189 76.7203 283.741 76.7203 283.272V283.256H74.6883C73.899 283.256 73.339 283.395 73.0083 283.672C72.6883 283.939 72.5283 284.275 72.5283 284.68C72.5283 285.096 72.6776 285.432 72.9763 285.688C73.2856 285.933 73.7176 286.056 74.2723 286.056ZM80.0806 287V279.064H81.2966L81.3766 280.488C81.6326 279.987 82.0006 279.592 82.4806 279.304C82.9606 279.016 83.5046 278.872 84.1126 278.872C85.0512 278.872 85.7979 279.16 86.3526 279.736C86.9179 280.301 87.2006 281.176 87.2006 282.36V287H85.8566V282.504C85.8566 280.851 85.1739 280.024 83.8086 280.024C83.1259 280.024 82.5552 280.275 82.0966 280.776C81.6486 281.267 81.4246 281.971 81.4246 282.888V287H80.0806ZM92.8368 287.192C92.0475 287.192 91.3541 287.011 90.7568 286.648C90.1701 286.285 89.7115 285.789 89.3808 285.16C89.0608 284.531 88.9008 283.816 88.9008 283.016C88.9008 282.216 89.0661 281.507 89.3968 280.888C89.7275 280.259 90.1861 279.768 90.7728 279.416C91.3595 279.053 92.0528 278.872 92.8528 278.872C93.5035 278.872 94.0795 279.005 94.5808 279.272C95.0821 279.539 95.4715 279.912 95.7488 280.392V275.48H97.0928V287H95.8768L95.7488 285.688C95.4928 286.072 95.1248 286.419 94.6448 286.728C94.1648 287.037 93.5621 287.192 92.8368 287.192ZM92.9808 286.024C93.5141 286.024 93.9835 285.901 94.3888 285.656C94.8048 285.4 95.1248 285.048 95.3488 284.6C95.5835 284.152 95.7008 283.629 95.7008 283.032C95.7008 282.435 95.5835 281.912 95.3488 281.464C95.1248 281.016 94.8048 280.669 94.3888 280.424C93.9835 280.168 93.5141 280.04 92.9808 280.04C92.4581 280.04 91.9888 280.168 91.5728 280.424C91.1675 280.669 90.8475 281.016 90.6128 281.464C90.3888 281.912 90.2768 282.435 90.2768 283.032C90.2768 283.629 90.3888 284.152 90.6128 284.6C90.8475 285.048 91.1675 285.4 91.5728 285.656C91.9888 285.901 92.4581 286.024 92.9808 286.024ZM102.9 287.192C102.153 287.192 101.481 287.021 100.884 286.68C100.286 286.339 99.8117 285.859 99.4597 285.24C99.1184 284.611 98.9477 283.875 98.9477 283.032C98.9477 282.189 99.1237 281.459 99.4757 280.84C99.8277 280.211 100.302 279.725 100.9 279.384C101.508 279.043 102.185 278.872 102.932 278.872C103.678 278.872 104.35 279.043 104.948 279.384C105.545 279.725 106.014 280.211 106.356 280.84C106.708 281.459 106.884 282.189 106.884 283.032C106.884 283.875 106.708 284.611 106.356 285.24C106.004 285.859 105.524 286.339 104.916 286.68C104.318 287.021 103.646 287.192 102.9 287.192ZM102.9 286.04C103.358 286.04 103.785 285.928 104.18 285.704C104.574 285.48 104.894 285.144 105.14 284.696C105.385 284.248 105.508 283.693 105.508 283.032C105.508 282.371 105.385 281.816 105.14 281.368C104.905 280.92 104.59 280.584 104.196 280.36C103.801 280.136 103.38 280.024 102.932 280.024C102.473 280.024 102.046 280.136 101.652 280.36C101.257 280.584 100.937 280.92 100.692 281.368C100.446 281.816 100.324 282.371 100.324 283.032C100.324 283.693 100.446 284.248 100.692 284.696C100.937 285.144 101.252 285.48 101.636 285.704C102.03 285.928 102.452 286.04 102.9 286.04ZM115.627 287.192C114.965 287.192 114.416 287.08 113.979 286.856C113.541 286.632 113.216 286.333 113.003 285.96C112.789 285.587 112.683 285.181 112.683 284.744C112.683 283.933 112.992 283.309 113.611 282.872C114.229 282.435 115.072 282.216 116.139 282.216H118.283V282.12C118.283 281.427 118.101 280.904 117.739 280.552C117.376 280.189 116.891 280.008 116.283 280.008C115.76 280.008 115.307 280.141 114.923 280.408C114.549 280.664 114.315 281.043 114.219 281.544H112.843C112.896 280.968 113.088 280.483 113.419 280.088C113.76 279.693 114.181 279.395 114.683 279.192C115.184 278.979 115.717 278.872 116.283 278.872C117.392 278.872 118.224 279.171 118.779 279.768C119.344 280.355 119.627 281.139 119.627 282.12V287H118.427L118.347 285.576C118.123 286.024 117.792 286.408 117.355 286.728C116.928 287.037 116.352 287.192 115.627 287.192ZM115.835 286.056C116.347 286.056 116.784 285.923 117.147 285.656C117.52 285.389 117.803 285.043 117.995 284.616C118.187 284.189 118.283 283.741 118.283 283.272V283.256H116.251C115.461 283.256 114.901 283.395 114.571 283.672C114.251 283.939 114.091 284.275 114.091 284.68C114.091 285.096 114.24 285.432 114.539 285.688C114.848 285.933 115.28 286.056 115.835 286.056ZM124.683 287.192C123.734 287.192 122.944 286.952 122.315 286.472C121.686 285.992 121.318 285.341 121.211 284.52H122.587C122.672 284.936 122.891 285.299 123.243 285.608C123.606 285.907 124.091 286.056 124.699 286.056C125.264 286.056 125.68 285.939 125.947 285.704C126.214 285.459 126.347 285.171 126.347 284.84C126.347 284.36 126.171 284.04 125.819 283.88C125.478 283.72 124.992 283.576 124.363 283.448C123.936 283.363 123.51 283.24 123.083 283.08C122.656 282.92 122.299 282.696 122.011 282.408C121.723 282.109 121.579 281.72 121.579 281.24C121.579 280.547 121.835 279.981 122.347 279.544C122.87 279.096 123.574 278.872 124.459 278.872C125.302 278.872 125.99 279.085 126.523 279.512C127.067 279.928 127.382 280.525 127.467 281.304H126.139C126.086 280.899 125.91 280.584 125.611 280.36C125.323 280.125 124.934 280.008 124.443 280.008C123.963 280.008 123.59 280.109 123.323 280.312C123.067 280.515 122.939 280.781 122.939 281.112C122.939 281.432 123.104 281.683 123.435 281.864C123.776 282.045 124.235 282.2 124.811 282.328C125.302 282.435 125.766 282.568 126.203 282.728C126.651 282.877 127.014 283.107 127.291 283.416C127.579 283.715 127.723 284.152 127.723 284.728C127.734 285.443 127.462 286.035 126.907 286.504C126.363 286.963 125.622 287.192 124.683 287.192ZM137.525 287.192C136.768 287.192 136.085 287.021 135.477 286.68C134.88 286.328 134.405 285.843 134.053 285.224C133.712 284.595 133.541 283.864 133.541 283.032C133.541 282.2 133.712 281.475 134.053 280.856C134.405 280.227 134.88 279.741 135.477 279.4C136.085 279.048 136.768 278.872 137.525 278.872C138.464 278.872 139.253 279.117 139.893 279.608C140.544 280.099 140.955 280.755 141.125 281.576H139.749C139.643 281.085 139.381 280.707 138.965 280.44C138.549 280.163 138.064 280.024 137.509 280.024C137.061 280.024 136.64 280.136 136.245 280.36C135.851 280.584 135.531 280.92 135.285 281.368C135.04 281.816 134.917 282.371 134.917 283.032C134.917 283.693 135.04 284.248 135.285 284.696C135.531 285.144 135.851 285.485 136.245 285.72C136.64 285.944 137.061 286.056 137.509 286.056C138.064 286.056 138.549 285.923 138.965 285.656C139.381 285.379 139.643 284.989 139.749 284.488H141.125C140.965 285.288 140.56 285.939 139.909 286.44C139.259 286.941 138.464 287.192 137.525 287.192ZM146.618 287.192C145.872 287.192 145.2 287.021 144.602 286.68C144.005 286.339 143.53 285.859 143.178 285.24C142.837 284.611 142.666 283.875 142.666 283.032C142.666 282.189 142.842 281.459 143.194 280.84C143.546 280.211 144.021 279.725 144.618 279.384C145.226 279.043 145.904 278.872 146.65 278.872C147.397 278.872 148.069 279.043 148.666 279.384C149.264 279.725 149.733 280.211 150.074 280.84C150.426 281.459 150.602 282.189 150.602 283.032C150.602 283.875 150.426 284.611 150.074 285.24C149.722 285.859 149.242 286.339 148.634 286.68C148.037 287.021 147.365 287.192 146.618 287.192ZM146.618 286.04C147.077 286.04 147.504 285.928 147.898 285.704C148.293 285.48 148.613 285.144 148.858 284.696C149.104 284.248 149.226 283.693 149.226 283.032C149.226 282.371 149.104 281.816 148.858 281.368C148.624 280.92 148.309 280.584 147.914 280.36C147.52 280.136 147.098 280.024 146.65 280.024C146.192 280.024 145.765 280.136 145.37 280.36C144.976 280.584 144.656 280.92 144.41 281.368C144.165 281.816 144.042 282.371 144.042 283.032C144.042 283.693 144.165 284.248 144.41 284.696C144.656 285.144 144.97 285.48 145.354 285.704C145.749 285.928 146.17 286.04 146.618 286.04ZM152.471 287V279.064H153.687L153.783 280.216C154.039 279.789 154.381 279.459 154.807 279.224C155.234 278.989 155.714 278.872 156.247 278.872C156.877 278.872 157.415 279 157.863 279.256C158.322 279.512 158.674 279.901 158.919 280.424C159.197 279.944 159.575 279.565 160.055 279.288C160.546 279.011 161.074 278.872 161.639 278.872C162.589 278.872 163.346 279.16 163.911 279.736C164.477 280.301 164.759 281.176 164.759 282.36V287H163.431V282.504C163.431 281.683 163.266 281.064 162.935 280.648C162.605 280.232 162.13 280.024 161.511 280.024C160.871 280.024 160.338 280.275 159.911 280.776C159.495 281.267 159.287 281.971 159.287 282.888V287H157.943V282.504C157.943 281.683 157.778 281.064 157.447 280.648C157.117 280.232 156.642 280.024 156.023 280.024C155.394 280.024 154.866 280.275 154.439 280.776C154.023 281.267 153.815 281.971 153.815 282.888V287H152.471ZM169.68 287.192C168.741 287.192 167.994 286.909 167.44 286.344C166.885 285.768 166.608 284.888 166.608 283.704V279.064H167.952V283.56C167.952 285.213 168.629 286.04 169.984 286.04C170.677 286.04 171.248 285.795 171.696 285.304C172.154 284.803 172.384 284.093 172.384 283.176V279.064H173.728V287H172.512L172.416 285.576C172.17 286.077 171.802 286.472 171.312 286.76C170.832 287.048 170.288 287.192 169.68 287.192ZM175.94 287V279.064H177.156L177.236 280.488C177.492 279.987 177.86 279.592 178.34 279.304C178.82 279.016 179.364 278.872 179.972 278.872C180.911 278.872 181.657 279.16 182.212 279.736C182.777 280.301 183.06 281.176 183.06 282.36V287H181.716V282.504C181.716 280.851 181.033 280.024 179.668 280.024C178.985 280.024 178.415 280.275 177.956 280.776C177.508 281.267 177.284 281.971 177.284 282.888V287H175.94ZM185.912 277.304C185.646 277.304 185.422 277.219 185.24 277.048C185.07 276.867 184.984 276.643 184.984 276.376C184.984 276.12 185.07 275.907 185.24 275.736C185.422 275.565 185.646 275.48 185.912 275.48C186.168 275.48 186.387 275.565 186.568 275.736C186.75 275.907 186.84 276.12 186.84 276.376C186.84 276.643 186.75 276.867 186.568 277.048C186.387 277.219 186.168 277.304 185.912 277.304ZM185.24 287V279.064H186.584V287H185.24ZM192.524 287.192C191.735 287.192 191.042 287.011 190.444 286.648C189.858 286.285 189.399 285.789 189.068 285.16C188.748 284.531 188.588 283.816 188.588 283.016C188.588 282.216 188.754 281.507 189.084 280.888C189.415 280.259 189.874 279.768 190.46 279.416C191.047 279.053 191.74 278.872 192.54 278.872C193.191 278.872 193.767 279.005 194.268 279.272C194.77 279.539 195.159 279.912 195.436 280.392V275.48H196.78V287H195.564L195.436 285.688C195.18 286.072 194.812 286.419 194.332 286.728C193.852 287.037 193.25 287.192 192.524 287.192ZM192.668 286.024C193.202 286.024 193.671 285.901 194.076 285.656C194.492 285.4 194.812 285.048 195.036 284.6C195.271 284.152 195.388 283.629 195.388 283.032C195.388 282.435 195.271 281.912 195.036 281.464C194.812 281.016 194.492 280.669 194.076 280.424C193.671 280.168 193.202 280.04 192.668 280.04C192.146 280.04 191.676 280.168 191.26 280.424C190.855 280.669 190.535 281.016 190.3 281.464C190.076 281.912 189.964 282.435 189.964 283.032C189.964 283.629 190.076 284.152 190.3 284.6C190.535 285.048 190.855 285.4 191.26 285.656C191.676 285.901 192.146 286.024 192.668 286.024ZM201.611 287.192C200.95 287.192 200.401 287.08 199.963 286.856C199.526 286.632 199.201 286.333 198.987 285.96C198.774 285.587 198.667 285.181 198.667 284.744C198.667 283.933 198.977 283.309 199.595 282.872C200.214 282.435 201.057 282.216 202.123 282.216H204.267V282.12C204.267 281.427 204.086 280.904 203.723 280.552C203.361 280.189 202.875 280.008 202.267 280.008C201.745 280.008 201.291 280.141 200.907 280.408C200.534 280.664 200.299 281.043 200.203 281.544H198.827C198.881 280.968 199.073 280.483 199.403 280.088C199.745 279.693 200.166 279.395 200.667 279.192C201.169 278.979 201.702 278.872 202.267 278.872C203.377 278.872 204.209 279.171 204.763 279.768C205.329 280.355 205.611 281.139 205.611 282.12V287H204.411L204.331 285.576C204.107 286.024 203.777 286.408 203.339 286.728C202.913 287.037 202.337 287.192 201.611 287.192ZM201.819 286.056C202.331 286.056 202.769 285.923 203.131 285.656C203.505 285.389 203.787 285.043 203.979 284.616C204.171 284.189 204.267 283.741 204.267 283.272V283.256H202.235C201.446 283.256 200.886 283.395 200.555 283.672C200.235 283.939 200.075 284.275 200.075 284.68C200.075 285.096 200.225 285.432 200.523 285.688C200.833 285.933 201.265 286.056 201.819 286.056ZM211.227 287.192C210.438 287.192 209.745 287.011 209.147 286.648C208.561 286.285 208.102 285.789 207.771 285.16C207.451 284.531 207.291 283.816 207.291 283.016C207.291 282.216 207.457 281.507 207.787 280.888C208.118 280.259 208.577 279.768 209.163 279.416C209.75 279.053 210.443 278.872 211.243 278.872C211.894 278.872 212.47 279.005 212.971 279.272C213.473 279.539 213.862 279.912 214.139 280.392V275.48H215.483V287H214.267L214.139 285.688C213.883 286.072 213.515 286.419 213.035 286.728C212.555 287.037 211.953 287.192 211.227 287.192ZM211.371 286.024C211.905 286.024 212.374 285.901 212.779 285.656C213.195 285.4 213.515 285.048 213.739 284.6C213.974 284.152 214.091 283.629 214.091 283.032C214.091 282.435 213.974 281.912 213.739 281.464C213.515 281.016 213.195 280.669 212.779 280.424C212.374 280.168 211.905 280.04 211.371 280.04C210.849 280.04 210.379 280.168 209.963 280.424C209.558 280.669 209.238 281.016 209.003 281.464C208.779 281.912 208.667 282.435 208.667 283.032C208.667 283.629 208.779 284.152 209.003 284.6C209.238 285.048 209.558 285.4 209.963 285.656C210.379 285.901 210.849 286.024 211.371 286.024ZM221.242 287.192C220.485 287.192 219.813 287.021 219.226 286.68C218.64 286.328 218.176 285.843 217.834 285.224C217.504 284.605 217.338 283.875 217.338 283.032C217.338 282.2 217.504 281.475 217.834 280.856C218.165 280.227 218.624 279.741 219.21 279.4C219.808 279.048 220.496 278.872 221.274 278.872C222.042 278.872 222.704 279.048 223.258 279.4C223.824 279.741 224.256 280.195 224.554 280.76C224.853 281.325 225.002 281.933 225.002 282.584C225.002 282.701 224.997 282.819 224.986 282.936C224.986 283.053 224.986 283.187 224.986 283.336H218.666C218.698 283.944 218.837 284.451 219.082 284.856C219.338 285.251 219.653 285.549 220.026 285.752C220.41 285.955 220.816 286.056 221.242 286.056C221.797 286.056 222.261 285.928 222.634 285.672C223.008 285.416 223.28 285.069 223.45 284.632H224.778C224.565 285.368 224.154 285.981 223.546 286.472C222.949 286.952 222.181 287.192 221.242 287.192ZM221.242 280.008C220.602 280.008 220.032 280.205 219.53 280.6C219.04 280.984 218.757 281.549 218.682 282.296H223.674C223.642 281.581 223.397 281.021 222.938 280.616C222.48 280.211 221.914 280.008 221.242 280.008ZM229.824 287.192C228.874 287.192 228.085 286.952 227.456 286.472C226.826 285.992 226.458 285.341 226.352 284.52H227.728C227.813 284.936 228.032 285.299 228.384 285.608C228.746 285.907 229.232 286.056 229.84 286.056C230.405 286.056 230.821 285.939 231.088 285.704C231.354 285.459 231.488 285.171 231.488 284.84C231.488 284.36 231.312 284.04 230.96 283.88C230.618 283.72 230.133 283.576 229.504 283.448C229.077 283.363 228.65 283.24 228.224 283.08C227.797 282.92 227.44 282.696 227.152 282.408C226.864 282.109 226.72 281.72 226.72 281.24C226.72 280.547 226.976 279.981 227.488 279.544C228.01 279.096 228.714 278.872 229.6 278.872C230.442 278.872 231.13 279.085 231.664 279.512C232.208 279.928 232.522 280.525 232.608 281.304H231.28C231.226 280.899 231.05 280.584 230.752 280.36C230.464 280.125 230.074 280.008 229.584 280.008C229.104 280.008 228.73 280.109 228.464 280.312C228.208 280.515 228.08 280.781 228.08 281.112C228.08 281.432 228.245 281.683 228.576 281.864C228.917 282.045 229.376 282.2 229.952 282.328C230.442 282.435 230.906 282.568 231.344 282.728C231.792 282.877 232.154 283.107 232.432 283.416C232.72 283.715 232.864 284.152 232.864 284.728C232.874 285.443 232.602 286.035 232.048 286.504C231.504 286.963 230.762 287.192 229.824 287.192Z" fill="white"/>
<circle cx="135.5" cy="96.5" r="96.5" fill="#5BB474"/>
<path d="M158.314 71.5994C158.314 81.8821 144.462 100.206 138.379 107.758C136.92 109.566 134.21 109.566 132.77 107.758C126.687 100.206 112.835 81.8821 112.835 71.5994C112.835 59.1132 123.011 49 135.574 49C148.138 49 158.314 59.1132 158.314 71.5994ZM159.83 86.741C160.493 85.4415 161.099 84.1421 161.649 82.8614C161.744 82.6354 161.838 82.3906 161.933 82.1646L183.915 73.4262C186.909 72.2397 190.149 74.4243 190.149 77.6259V128.625C190.149 130.471 189.012 132.128 187.288 132.825L159.83 143.729V86.741ZM107.074 75.0458C107.529 77.7012 108.439 80.3755 109.5 82.8614C110.05 84.1421 110.656 85.4415 111.319 86.741V134.087L87.2344 143.673C84.2404 144.859 81 142.674 81 139.473V88.4736C81 86.628 82.137 84.9707 83.8614 84.2739L107.093 75.0458H107.074ZM143.116 111.525C145.75 108.248 149.881 102.918 153.766 97.0237V143.974L117.383 133.635V97.0237C121.268 102.918 125.399 108.248 128.033 111.525C131.917 116.346 139.232 116.346 143.116 111.525ZM135.574 77.6259C137.585 77.6259 139.513 76.8322 140.934 75.4195C142.356 74.0068 143.154 72.0907 143.154 70.0928C143.154 68.0949 142.356 66.1788 140.934 64.766C139.513 63.3533 137.585 62.5596 135.574 62.5596C133.564 62.5596 131.636 63.3533 130.215 64.766C128.793 66.1788 127.995 68.0949 127.995 70.0928C127.995 72.0907 128.793 74.0068 130.215 75.4195C131.636 76.8322 133.564 77.6259 135.574 77.6259Z" fill="white"/>
</svg>
