<svg width="272" height="292" viewBox="0 0 272 292" fill="none" xmlns="http://www.w3.org/2000/svg">
<path d="M42.6557 244L37.4757 230H39.7357L43.9357 241.8L48.1557 230H50.3957L45.2157 244H42.6557ZM53.3076 232.2C52.9076 232.2 52.5742 232.08 52.3076 231.84C52.0542 231.587 51.9276 231.273 51.9276 230.9C51.9276 230.527 52.0542 230.22 52.3076 229.98C52.5742 229.727 52.9076 229.6 53.3076 229.6C53.7076 229.6 54.0342 229.727 54.2876 229.98C54.5542 230.22 54.6876 230.527 54.6876 230.9C54.6876 231.273 54.5542 231.587 54.2876 231.84C54.0342 232.08 53.7076 232.2 53.3076 232.2ZM52.2476 244V234.08H54.3676V244H52.2476ZM60.5262 244.24C59.6862 244.24 58.9928 244.1 58.4462 243.82C57.8995 243.54 57.4928 243.173 57.2262 242.72C56.9595 242.253 56.8262 241.747 56.8262 241.2C56.8262 240.24 57.1995 239.48 57.9462 238.92C58.6928 238.36 59.7595 238.08 61.1462 238.08H63.7462V237.9C63.7462 237.127 63.5328 236.547 63.1062 236.16C62.6928 235.773 62.1528 235.58 61.4862 235.58C60.8995 235.58 60.3862 235.727 59.9462 236.02C59.5195 236.3 59.2595 236.72 59.1662 237.28H57.0462C57.1128 236.56 57.3528 235.947 57.7662 235.44C58.1928 234.92 58.7262 234.527 59.3662 234.26C60.0195 233.98 60.7328 233.84 61.5062 233.84C62.8928 233.84 63.9662 234.207 64.7262 234.94C65.4862 235.66 65.8662 236.647 65.8662 237.9V244H64.0262L63.8462 242.3C63.5662 242.847 63.1595 243.307 62.6262 243.68C62.0928 244.053 61.3928 244.24 60.5262 244.24ZM60.9462 242.52C61.5195 242.52 61.9995 242.387 62.3862 242.12C62.7862 241.84 63.0928 241.473 63.3062 241.02C63.5328 240.567 63.6728 240.067 63.7262 239.52H61.3662C60.5262 239.52 59.9262 239.667 59.5662 239.96C59.2195 240.253 59.0462 240.62 59.0462 241.06C59.0462 241.513 59.2128 241.873 59.5462 242.14C59.8928 242.393 60.3595 242.52 60.9462 242.52ZM72.398 240.96C71.878 240.96 71.398 240.9 70.958 240.78L70.098 241.62C70.2447 241.713 70.4247 241.793 70.638 241.86C70.8514 241.927 71.1514 241.987 71.538 242.04C71.9247 242.093 72.4514 242.147 73.118 242.2C74.438 242.32 75.3914 242.64 75.978 243.16C76.5647 243.667 76.858 244.347 76.858 245.2C76.858 245.787 76.698 246.34 76.378 246.86C76.0714 247.393 75.5847 247.82 74.918 248.14C74.2647 248.473 73.4247 248.64 72.398 248.64C71.0114 248.64 69.8847 248.373 69.018 247.84C68.1647 247.32 67.738 246.527 67.738 245.46C67.738 245.047 67.8447 244.633 68.058 244.22C68.2847 243.82 68.638 243.44 69.118 243.08C68.838 242.96 68.5914 242.833 68.378 242.7C68.178 242.553 67.998 242.407 67.838 242.26V241.78L69.558 240.02C68.7847 239.353 68.398 238.48 68.398 237.4C68.398 236.747 68.5514 236.153 68.858 235.62C69.178 235.073 69.638 234.64 70.238 234.32C70.838 234 71.558 233.84 72.398 233.84C72.958 233.84 73.478 233.92 73.958 234.08H77.658V235.48L75.898 235.58C76.218 236.127 76.378 236.733 76.378 237.4C76.378 238.067 76.218 238.667 75.898 239.2C75.5914 239.733 75.138 240.16 74.538 240.48C73.9514 240.8 73.238 240.96 72.398 240.96ZM72.398 239.3C73.0114 239.3 73.5047 239.14 73.878 238.82C74.2647 238.487 74.458 238.02 74.458 237.42C74.458 236.807 74.2647 236.34 73.878 236.02C73.5047 235.7 73.0114 235.54 72.398 235.54C71.7714 235.54 71.2647 235.7 70.878 236.02C70.5047 236.34 70.318 236.807 70.318 237.42C70.318 238.02 70.5047 238.487 70.878 238.82C71.2647 239.14 71.7714 239.3 72.398 239.3ZM69.738 245.26C69.738 245.833 69.9914 246.26 70.498 246.54C71.0047 246.833 71.638 246.98 72.398 246.98C73.1314 246.98 73.7247 246.82 74.178 246.5C74.6314 246.193 74.858 245.78 74.858 245.26C74.858 244.873 74.7047 244.54 74.398 244.26C74.0914 243.993 73.5114 243.827 72.658 243.76C72.018 243.72 71.4514 243.66 70.958 243.58C70.4914 243.833 70.1714 244.107 69.998 244.4C69.8247 244.693 69.738 244.98 69.738 245.26ZM83.7984 244.24C82.825 244.24 81.9584 244.027 81.1984 243.6C80.4517 243.16 79.865 242.553 79.4384 241.78C79.0117 241.007 78.7984 240.107 78.7984 239.08C78.7984 238.04 79.005 237.127 79.4184 236.34C79.845 235.553 80.4317 234.94 81.1784 234.5C81.9384 234.06 82.8184 233.84 83.8184 233.84C84.7917 233.84 85.6384 234.06 86.3584 234.5C87.0784 234.927 87.6384 235.5 88.0384 236.22C88.4384 236.94 88.6384 237.733 88.6384 238.6C88.6384 238.733 88.6317 238.88 88.6184 239.04C88.6184 239.187 88.6117 239.353 88.5984 239.54H80.8784C80.945 240.5 81.2584 241.233 81.8184 241.74C82.3917 242.233 83.0517 242.48 83.7984 242.48C84.3984 242.48 84.8984 242.347 85.2984 242.08C85.7117 241.8 86.0184 241.427 86.2184 240.96H88.3384C88.0717 241.893 87.5384 242.673 86.7384 243.3C85.9517 243.927 84.9717 244.24 83.7984 244.24ZM83.7984 235.58C83.0917 235.58 82.465 235.793 81.9184 236.22C81.3717 236.633 81.0384 237.26 80.9184 238.1H86.5184C86.4784 237.327 86.205 236.713 85.6984 236.26C85.1917 235.807 84.5584 235.58 83.7984 235.58ZM90.838 244V234.08H92.718L92.878 235.82C93.1847 235.207 93.6314 234.727 94.218 234.38C94.818 234.02 95.5047 233.84 96.278 233.84C97.478 233.84 98.418 234.213 99.098 234.96C99.7914 235.707 100.138 236.82 100.138 238.3V244H98.038V238.52C98.038 236.6 97.2514 235.64 95.678 235.64C94.8914 235.64 94.238 235.92 93.718 236.48C93.2114 237.04 92.958 237.84 92.958 238.88V244H90.838ZM106.595 244.24C105.342 244.24 104.308 243.933 103.495 243.32C102.682 242.707 102.215 241.893 102.095 240.88H104.235C104.342 241.333 104.595 241.727 104.995 242.06C105.395 242.38 105.922 242.54 106.575 242.54C107.215 242.54 107.682 242.407 107.975 242.14C108.268 241.873 108.415 241.567 108.415 241.22C108.415 240.713 108.208 240.373 107.795 240.2C107.395 240.013 106.835 239.847 106.115 239.7C105.555 239.58 104.995 239.42 104.435 239.22C103.888 239.02 103.428 238.74 103.055 238.38C102.695 238.007 102.515 237.507 102.515 236.88C102.515 236.013 102.848 235.293 103.515 234.72C104.182 234.133 105.115 233.84 106.315 233.84C107.422 233.84 108.315 234.107 108.995 234.64C109.688 235.173 110.095 235.927 110.215 236.9H108.175C108.108 236.473 107.908 236.14 107.575 235.9C107.255 235.66 106.822 235.54 106.275 235.54C105.742 235.54 105.328 235.653 105.035 235.88C104.742 236.093 104.595 236.373 104.595 236.72C104.595 237.067 104.795 237.34 105.195 237.54C105.608 237.74 106.148 237.92 106.815 238.08C107.482 238.227 108.095 238.4 108.655 238.6C109.228 238.787 109.688 239.067 110.035 239.44C110.382 239.813 110.555 240.36 110.555 241.08C110.568 241.987 110.215 242.74 109.495 243.34C108.788 243.94 107.822 244.24 106.595 244.24ZM121.868 244.24C120.615 244.24 119.582 243.933 118.768 243.32C117.955 242.707 117.488 241.893 117.368 240.88H119.508C119.615 241.333 119.868 241.727 120.268 242.06C120.668 242.38 121.195 242.54 121.848 242.54C122.488 242.54 122.955 242.407 123.248 242.14C123.542 241.873 123.688 241.567 123.688 241.22C123.688 240.713 123.482 240.373 123.068 240.2C122.668 240.013 122.108 239.847 121.388 239.7C120.828 239.58 120.268 239.42 119.708 239.22C119.162 239.02 118.702 238.74 118.328 238.38C117.968 238.007 117.788 237.507 117.788 236.88C117.788 236.013 118.122 235.293 118.788 234.72C119.455 234.133 120.388 233.84 121.588 233.84C122.695 233.84 123.588 234.107 124.268 234.64C124.962 235.173 125.368 235.927 125.488 236.9H123.448C123.382 236.473 123.182 236.14 122.848 235.9C122.528 235.66 122.095 235.54 121.548 235.54C121.015 235.54 120.602 235.653 120.308 235.88C120.015 236.093 119.868 236.373 119.868 236.72C119.868 237.067 120.068 237.34 120.468 237.54C120.882 237.74 121.422 237.92 122.088 238.08C122.755 238.227 123.368 238.4 123.928 238.6C124.502 238.787 124.962 239.067 125.308 239.44C125.655 239.813 125.828 240.36 125.828 241.08C125.842 241.987 125.488 242.74 124.768 243.34C124.062 243.94 123.095 244.24 121.868 244.24ZM131.803 244.24C130.603 244.24 129.656 243.867 128.963 243.12C128.283 242.373 127.943 241.26 127.943 239.78V234.08H130.063V239.56C130.063 241.48 130.849 242.44 132.423 242.44C133.209 242.44 133.856 242.16 134.363 241.6C134.869 241.04 135.123 240.24 135.123 239.2V234.08H137.243V244H135.363L135.203 242.26C134.896 242.873 134.443 243.36 133.843 243.72C133.256 244.067 132.576 244.24 131.803 244.24ZM143.9 244.24C142.646 244.24 141.613 243.933 140.8 243.32C139.986 242.707 139.52 241.893 139.4 240.88H141.54C141.646 241.333 141.9 241.727 142.3 242.06C142.7 242.38 143.226 242.54 143.88 242.54C144.52 242.54 144.986 242.407 145.28 242.14C145.573 241.873 145.72 241.567 145.72 241.22C145.72 240.713 145.513 240.373 145.1 240.2C144.7 240.013 144.14 239.847 143.42 239.7C142.86 239.58 142.3 239.42 141.74 239.22C141.193 239.02 140.733 238.74 140.36 238.38C140 238.007 139.82 237.507 139.82 236.88C139.82 236.013 140.153 235.293 140.82 234.72C141.486 234.133 142.42 233.84 143.62 233.84C144.726 233.84 145.62 234.107 146.3 234.64C146.993 235.173 147.4 235.927 147.52 236.9H145.48C145.413 236.473 145.213 236.14 144.88 235.9C144.56 235.66 144.126 235.54 143.58 235.54C143.046 235.54 142.633 235.653 142.34 235.88C142.046 236.093 141.9 236.373 141.9 236.72C141.9 237.067 142.1 237.34 142.5 237.54C142.913 237.74 143.453 237.92 144.12 238.08C144.786 238.227 145.4 238.4 145.96 238.6C146.533 238.787 146.993 239.067 147.34 239.44C147.686 239.813 147.86 240.36 147.86 241.08C147.873 241.987 147.52 242.74 146.8 243.34C146.093 243.94 145.126 244.24 143.9 244.24ZM153.963 244C152.99 244 152.216 243.767 151.643 243.3C151.07 242.82 150.783 241.973 150.783 240.76V235.86H149.083V234.08H150.783L151.043 231.56H152.903V234.08H155.703V235.86H152.903V240.76C152.903 241.307 153.016 241.687 153.243 241.9C153.483 242.1 153.89 242.2 154.463 242.2H155.603V244H153.963ZM162.275 244.24C161.302 244.24 160.435 244.027 159.675 243.6C158.928 243.16 158.342 242.553 157.915 241.78C157.488 241.007 157.275 240.107 157.275 239.08C157.275 238.04 157.482 237.127 157.895 236.34C158.322 235.553 158.908 234.94 159.655 234.5C160.415 234.06 161.295 233.84 162.295 233.84C163.268 233.84 164.115 234.06 164.835 234.5C165.555 234.927 166.115 235.5 166.515 236.22C166.915 236.94 167.115 237.733 167.115 238.6C167.115 238.733 167.108 238.88 167.095 239.04C167.095 239.187 167.088 239.353 167.075 239.54H159.355C159.422 240.5 159.735 241.233 160.295 241.74C160.868 242.233 161.528 242.48 162.275 242.48C162.875 242.48 163.375 242.347 163.775 242.08C164.188 241.8 164.495 241.427 164.695 240.96H166.815C166.548 241.893 166.015 242.673 165.215 243.3C164.428 243.927 163.448 244.24 162.275 244.24ZM162.275 235.58C161.568 235.58 160.942 235.793 160.395 236.22C159.848 236.633 159.515 237.26 159.395 238.1H164.995C164.955 237.327 164.682 236.713 164.175 236.26C163.668 235.807 163.035 235.58 162.275 235.58ZM169.315 244V234.08H171.195L171.355 235.82C171.661 235.207 172.108 234.727 172.695 234.38C173.295 234.02 173.981 233.84 174.755 233.84C175.955 233.84 176.895 234.213 177.575 234.96C178.268 235.707 178.615 236.82 178.615 238.3V244H176.515V238.52C176.515 236.6 175.728 235.64 174.155 235.64C173.368 235.64 172.715 235.92 172.195 236.48C171.688 237.04 171.435 237.84 171.435 238.88V244H169.315ZM185.271 244C184.298 244 183.525 243.767 182.951 243.3C182.378 242.82 182.091 241.973 182.091 240.76V235.86H180.391V234.08H182.091L182.351 231.56H184.211V234.08H187.011V235.86H184.211V240.76C184.211 241.307 184.325 241.687 184.551 241.9C184.791 242.1 185.198 242.2 185.771 242.2H186.911V244H185.271ZM192.557 244.24C191.717 244.24 191.024 244.1 190.477 243.82C189.931 243.54 189.524 243.173 189.257 242.72C188.991 242.253 188.857 241.747 188.857 241.2C188.857 240.24 189.231 239.48 189.977 238.92C190.724 238.36 191.791 238.08 193.177 238.08H195.777V237.9C195.777 237.127 195.564 236.547 195.137 236.16C194.724 235.773 194.184 235.58 193.517 235.58C192.931 235.58 192.417 235.727 191.977 236.02C191.551 236.3 191.291 236.72 191.197 237.28H189.077C189.144 236.56 189.384 235.947 189.797 235.44C190.224 234.92 190.757 234.527 191.397 234.26C192.051 233.98 192.764 233.84 193.537 233.84C194.924 233.84 195.997 234.207 196.757 234.94C197.517 235.66 197.897 236.647 197.897 237.9V244H196.057L195.877 242.3C195.597 242.847 195.191 243.307 194.657 243.68C194.124 244.053 193.424 244.24 192.557 244.24ZM192.977 242.52C193.551 242.52 194.031 242.387 194.417 242.12C194.817 241.84 195.124 241.473 195.337 241.02C195.564 240.567 195.704 240.067 195.757 239.52H193.397C192.557 239.52 191.957 239.667 191.597 239.96C191.251 240.253 191.077 240.62 191.077 241.06C191.077 241.513 191.244 241.873 191.577 242.14C191.924 242.393 192.391 242.52 192.977 242.52ZM192.897 233.26V231.74L197.257 229.26V231.02L192.897 233.26ZM202.817 244L199.097 234.08H201.317L204.077 241.98L206.837 234.08H209.037L205.337 244H202.817ZM214.912 244.24C213.938 244.24 213.072 244.027 212.312 243.6C211.565 243.16 210.978 242.553 210.552 241.78C210.125 241.007 209.912 240.107 209.912 239.08C209.912 238.04 210.118 237.127 210.532 236.34C210.958 235.553 211.545 234.94 212.292 234.5C213.052 234.06 213.932 233.84 214.932 233.84C215.905 233.84 216.752 234.06 217.472 234.5C218.192 234.927 218.752 235.5 219.152 236.22C219.552 236.94 219.752 237.733 219.752 238.6C219.752 238.733 219.745 238.88 219.732 239.04C219.732 239.187 219.725 239.353 219.712 239.54H211.992C212.058 240.5 212.372 241.233 212.932 241.74C213.505 242.233 214.165 242.48 214.912 242.48C215.512 242.48 216.012 242.347 216.412 242.08C216.825 241.8 217.132 241.427 217.332 240.96H219.452C219.185 241.893 218.652 242.673 217.852 243.3C217.065 243.927 216.085 244.24 214.912 244.24ZM214.912 235.58C214.205 235.58 213.578 235.793 213.032 236.22C212.485 236.633 212.152 237.26 212.032 238.1H217.632C217.592 237.327 217.318 236.713 216.812 236.26C216.305 235.807 215.672 235.58 214.912 235.58ZM223.151 232.2C222.751 232.2 222.418 232.08 222.151 231.84C221.898 231.587 221.771 231.273 221.771 230.9C221.771 230.527 221.898 230.22 222.151 229.98C222.418 229.727 222.751 229.6 223.151 229.6C223.551 229.6 223.878 229.727 224.131 229.98C224.398 230.22 224.531 230.527 224.531 230.9C224.531 231.273 224.398 231.587 224.131 231.84C223.878 232.08 223.551 232.2 223.151 232.2ZM222.091 244V234.08H224.211V244H222.091ZM230.97 244.24C229.717 244.24 228.683 243.933 227.87 243.32C227.057 242.707 226.59 241.893 226.47 240.88H228.61C228.717 241.333 228.97 241.727 229.37 242.06C229.77 242.38 230.297 242.54 230.95 242.54C231.59 242.54 232.057 242.407 232.35 242.14C232.643 241.873 232.79 241.567 232.79 241.22C232.79 240.713 232.583 240.373 232.17 240.2C231.77 240.013 231.21 239.847 230.49 239.7C229.93 239.58 229.37 239.42 228.81 239.22C228.263 239.02 227.803 238.74 227.43 238.38C227.07 238.007 226.89 237.507 226.89 236.88C226.89 236.013 227.223 235.293 227.89 234.72C228.557 234.133 229.49 233.84 230.69 233.84C231.797 233.84 232.69 234.107 233.37 234.64C234.063 235.173 234.47 235.927 234.59 236.9H232.55C232.483 236.473 232.283 236.14 231.95 235.9C231.63 235.66 231.197 235.54 230.65 235.54C230.117 235.54 229.703 235.653 229.41 235.88C229.117 236.093 228.97 236.373 228.97 236.72C228.97 237.067 229.17 237.34 229.57 237.54C229.983 237.74 230.523 237.92 231.19 238.08C231.857 238.227 232.47 238.4 233.03 238.6C233.603 238.787 234.063 239.067 234.41 239.44C234.757 239.813 234.93 240.36 234.93 241.08C234.943 241.987 234.59 242.74 233.87 243.34C233.163 243.94 232.197 244.24 230.97 244.24Z" fill="white"/>
<path d="M25.5491 266.192C24.4505 266.192 23.5011 265.952 22.7011 265.472C21.9118 264.981 21.2985 264.304 20.8611 263.44C20.4238 262.565 20.2051 261.552 20.2051 260.4C20.2051 259.259 20.4238 258.256 20.8611 257.392C21.2985 256.517 21.9118 255.835 22.7011 255.344C23.5011 254.853 24.4505 254.608 25.5491 254.608C26.8291 254.608 27.8691 254.917 28.6691 255.536C29.4798 256.144 29.9971 256.997 30.2211 258.096H28.7331C28.5625 257.403 28.2105 256.848 27.6771 256.432C27.1545 256.005 26.4451 255.792 25.5491 255.792C24.7491 255.792 24.0505 255.979 23.4531 256.352C22.8558 256.715 22.3918 257.243 22.0611 257.936C21.7411 258.619 21.5811 259.44 21.5811 260.4C21.5811 261.36 21.7411 262.187 22.0611 262.88C22.3918 263.563 22.8558 264.091 23.4531 264.464C24.0505 264.827 24.7491 265.008 25.5491 265.008C26.4451 265.008 27.1545 264.805 27.6771 264.4C28.2105 263.984 28.5625 263.435 28.7331 262.752H30.2211C29.9971 263.829 29.4798 264.672 28.6691 265.28C27.8691 265.888 26.8291 266.192 25.5491 266.192ZM35.6888 266.192C34.9421 266.192 34.2701 266.021 33.6728 265.68C33.0754 265.339 32.6008 264.859 32.2488 264.24C31.9074 263.611 31.7368 262.875 31.7368 262.032C31.7368 261.189 31.9128 260.459 32.2648 259.84C32.6168 259.211 33.0914 258.725 33.6888 258.384C34.2968 258.043 34.9741 257.872 35.7208 257.872C36.4674 257.872 37.1394 258.043 37.7368 258.384C38.3341 258.725 38.8034 259.211 39.1448 259.84C39.4968 260.459 39.6728 261.189 39.6728 262.032C39.6728 262.875 39.4968 263.611 39.1448 264.24C38.7928 264.859 38.3128 265.339 37.7048 265.68C37.1074 266.021 36.4354 266.192 35.6888 266.192ZM35.6888 265.04C36.1474 265.04 36.5741 264.928 36.9688 264.704C37.3634 264.48 37.6834 264.144 37.9288 263.696C38.1741 263.248 38.2968 262.693 38.2968 262.032C38.2968 261.371 38.1741 260.816 37.9288 260.368C37.6941 259.92 37.3794 259.584 36.9848 259.36C36.5901 259.136 36.1688 259.024 35.7208 259.024C35.2621 259.024 34.8354 259.136 34.4408 259.36C34.0461 259.584 33.7261 259.92 33.4808 260.368C33.2354 260.816 33.1128 261.371 33.1128 262.032C33.1128 262.693 33.2354 263.248 33.4808 263.696C33.7261 264.144 34.0408 264.48 34.4248 264.704C34.8194 264.928 35.2408 265.04 35.6888 265.04ZM41.5415 266V258.064H42.7575L42.8375 259.488C43.0935 258.987 43.4615 258.592 43.9415 258.304C44.4215 258.016 44.9655 257.872 45.5735 257.872C46.5122 257.872 47.2588 258.16 47.8135 258.736C48.3788 259.301 48.6615 260.176 48.6615 261.36V266H47.3175V261.504C47.3175 259.851 46.6348 259.024 45.2695 259.024C44.5868 259.024 44.0162 259.275 43.5575 259.776C43.1095 260.267 42.8855 260.971 42.8855 261.888V266H41.5415ZM53.7378 266.192C52.7884 266.192 51.9991 265.952 51.3698 265.472C50.7404 264.992 50.3724 264.341 50.2658 263.52H51.6418C51.7271 263.936 51.9458 264.299 52.2978 264.608C52.6604 264.907 53.1458 265.056 53.7538 265.056C54.3191 265.056 54.7351 264.939 55.0018 264.704C55.2684 264.459 55.4018 264.171 55.4018 263.84C55.4018 263.36 55.2258 263.04 54.8738 262.88C54.5324 262.72 54.0471 262.576 53.4178 262.448C52.9911 262.363 52.5644 262.24 52.1378 262.08C51.7111 261.92 51.3538 261.696 51.0658 261.408C50.7778 261.109 50.6338 260.72 50.6338 260.24C50.6338 259.547 50.8898 258.981 51.4018 258.544C51.9244 258.096 52.6284 257.872 53.5138 257.872C54.3564 257.872 55.0444 258.085 55.5778 258.512C56.1218 258.928 56.4364 259.525 56.5218 260.304H55.1938C55.1404 259.899 54.9644 259.584 54.6658 259.36C54.3778 259.125 53.9884 259.008 53.4978 259.008C53.0178 259.008 52.6444 259.109 52.3778 259.312C52.1218 259.515 51.9938 259.781 51.9938 260.112C51.9938 260.432 52.1591 260.683 52.4898 260.864C52.8311 261.045 53.2898 261.2 53.8658 261.328C54.3564 261.435 54.8204 261.568 55.2578 261.728C55.7058 261.877 56.0684 262.107 56.3458 262.416C56.6338 262.715 56.7778 263.152 56.7778 263.728C56.7884 264.443 56.5164 265.035 55.9618 265.504C55.4178 265.963 54.6764 266.192 53.7378 266.192ZM62.2658 266.192C61.5084 266.192 60.8364 266.021 60.2498 265.68C59.6631 265.328 59.1991 264.843 58.8578 264.224C58.5271 263.605 58.3618 262.875 58.3618 262.032C58.3618 261.2 58.5271 260.475 58.8578 259.856C59.1884 259.227 59.6471 258.741 60.2338 258.4C60.8311 258.048 61.5191 257.872 62.2977 257.872C63.0658 257.872 63.7271 258.048 64.2818 258.4C64.8471 258.741 65.2791 259.195 65.5778 259.76C65.8764 260.325 66.0258 260.933 66.0258 261.584C66.0258 261.701 66.0204 261.819 66.0098 261.936C66.0098 262.053 66.0098 262.187 66.0098 262.336H59.6898C59.7218 262.944 59.8604 263.451 60.1058 263.856C60.3618 264.251 60.6764 264.549 61.0498 264.752C61.4338 264.955 61.8391 265.056 62.2658 265.056C62.8204 265.056 63.2844 264.928 63.6578 264.672C64.0311 264.416 64.3031 264.069 64.4738 263.632H65.8018C65.5884 264.368 65.1778 264.981 64.5698 265.472C63.9724 265.952 63.2044 266.192 62.2658 266.192ZM62.2658 259.008C61.6258 259.008 61.0551 259.205 60.5538 259.6C60.0631 259.984 59.7804 260.549 59.7057 261.296H64.6978C64.6658 260.581 64.4204 260.021 63.9618 259.616C63.5031 259.211 62.9378 259.008 62.2658 259.008ZM67.8071 266V258.064H69.0231L69.1351 259.584C69.3805 259.061 69.7538 258.645 70.2551 258.336C70.7565 258.027 71.3751 257.872 72.1111 257.872V259.28H71.7431C71.2738 259.28 70.8418 259.365 70.4471 259.536C70.0525 259.696 69.7378 259.973 69.5031 260.368C69.2685 260.763 69.1511 261.307 69.1511 262V266H67.8071ZM75.9076 266L72.8996 258.064H74.3076L76.6916 264.704L79.0916 258.064H80.4676L77.4596 266H75.9076ZM84.1971 266.192C83.5358 266.192 82.9865 266.08 82.5491 265.856C82.1118 265.632 81.7865 265.333 81.5731 264.96C81.3598 264.587 81.2531 264.181 81.2531 263.744C81.2531 262.933 81.5625 262.309 82.1811 261.872C82.7998 261.435 83.6425 261.216 84.7091 261.216H86.8531V261.12C86.8531 260.427 86.6718 259.904 86.3091 259.552C85.9465 259.189 85.4611 259.008 84.8531 259.008C84.3305 259.008 83.8771 259.141 83.4931 259.408C83.1198 259.664 82.8851 260.043 82.7891 260.544H81.4131C81.4665 259.968 81.6585 259.483 81.9891 259.088C82.3305 258.693 82.7518 258.395 83.2531 258.192C83.7545 257.979 84.2878 257.872 84.8531 257.872C85.9625 257.872 86.7945 258.171 87.3491 258.768C87.9145 259.355 88.1971 260.139 88.1971 261.12V266H86.9971L86.9171 264.576C86.6931 265.024 86.3625 265.408 85.9251 265.728C85.4985 266.037 84.9225 266.192 84.1971 266.192ZM84.4051 265.056C84.9171 265.056 85.3545 264.923 85.7171 264.656C86.0905 264.389 86.3731 264.043 86.5651 263.616C86.7571 263.189 86.8531 262.741 86.8531 262.272V262.256H84.8211C84.0318 262.256 83.4718 262.395 83.1411 262.672C82.8211 262.939 82.6611 263.275 82.6611 263.68C82.6611 264.096 82.8105 264.432 83.1091 264.688C83.4185 264.933 83.8505 265.056 84.4051 265.056ZM90.2134 266V258.064H91.4294L91.5094 259.488C91.7654 258.987 92.1334 258.592 92.6134 258.304C93.0934 258.016 93.6374 257.872 94.2454 257.872C95.184 257.872 95.9307 258.16 96.4854 258.736C97.0507 259.301 97.3334 260.176 97.3334 261.36V266H95.9894V261.504C95.9894 259.851 95.3067 259.024 93.9414 259.024C93.2587 259.024 92.688 259.275 92.2294 259.776C91.7814 260.267 91.5574 260.971 91.5574 261.888V266H90.2134ZM102.97 266.192C102.18 266.192 101.487 266.011 100.89 265.648C100.303 265.285 99.8443 264.789 99.5136 264.16C99.1936 263.531 99.0336 262.816 99.0336 262.016C99.0336 261.216 99.199 260.507 99.5296 259.888C99.8603 259.259 100.319 258.768 100.906 258.416C101.492 258.053 102.186 257.872 102.986 257.872C103.636 257.872 104.212 258.005 104.714 258.272C105.215 258.539 105.604 258.912 105.882 259.392V254.48H107.226V266H106.01L105.882 264.688C105.626 265.072 105.258 265.419 104.778 265.728C104.298 266.037 103.695 266.192 102.97 266.192ZM103.114 265.024C103.647 265.024 104.116 264.901 104.522 264.656C104.938 264.4 105.258 264.048 105.482 263.6C105.716 263.152 105.834 262.629 105.834 262.032C105.834 261.435 105.716 260.912 105.482 260.464C105.258 260.016 104.938 259.669 104.522 259.424C104.116 259.168 103.647 259.04 103.114 259.04C102.591 259.04 102.122 259.168 101.706 259.424C101.3 259.669 100.98 260.016 100.746 260.464C100.522 260.912 100.41 261.435 100.41 262.032C100.41 262.629 100.522 263.152 100.746 263.6C100.98 264.048 101.3 264.4 101.706 264.656C102.122 264.901 102.591 265.024 103.114 265.024ZM113.033 266.192C112.286 266.192 111.614 266.021 111.017 265.68C110.419 265.339 109.945 264.859 109.593 264.24C109.251 263.611 109.081 262.875 109.081 262.032C109.081 261.189 109.257 260.459 109.609 259.84C109.961 259.211 110.435 258.725 111.033 258.384C111.641 258.043 112.318 257.872 113.065 257.872C113.811 257.872 114.483 258.043 115.081 258.384C115.678 258.725 116.147 259.211 116.489 259.84C116.841 260.459 117.017 261.189 117.017 262.032C117.017 262.875 116.841 263.611 116.489 264.24C116.137 264.859 115.657 265.339 115.049 265.68C114.451 266.021 113.779 266.192 113.033 266.192ZM113.033 265.04C113.491 265.04 113.918 264.928 114.313 264.704C114.707 264.48 115.027 264.144 115.273 263.696C115.518 263.248 115.641 262.693 115.641 262.032C115.641 261.371 115.518 260.816 115.273 260.368C115.038 259.92 114.723 259.584 114.329 259.36C113.934 259.136 113.513 259.024 113.065 259.024C112.606 259.024 112.179 259.136 111.785 259.36C111.39 259.584 111.07 259.92 110.825 260.368C110.579 260.816 110.457 261.371 110.457 262.032C110.457 262.693 110.579 263.248 110.825 263.696C111.07 264.144 111.385 264.48 111.769 264.704C112.163 264.928 112.585 265.04 113.033 265.04ZM125.76 266.192C125.098 266.192 124.549 266.08 124.112 265.856C123.674 265.632 123.349 265.333 123.136 264.96C122.922 264.587 122.816 264.181 122.816 263.744C122.816 262.933 123.125 262.309 123.744 261.872C124.362 261.435 125.205 261.216 126.272 261.216H128.416V261.12C128.416 260.427 128.234 259.904 127.872 259.552C127.509 259.189 127.024 259.008 126.416 259.008C125.893 259.008 125.44 259.141 125.056 259.408C124.682 259.664 124.448 260.043 124.352 260.544H122.976C123.029 259.968 123.221 259.483 123.552 259.088C123.893 258.693 124.314 258.395 124.816 258.192C125.317 257.979 125.85 257.872 126.416 257.872C127.525 257.872 128.357 258.171 128.912 258.768C129.477 259.355 129.76 260.139 129.76 261.12V266H128.56L128.48 264.576C128.256 265.024 127.925 265.408 127.488 265.728C127.061 266.037 126.485 266.192 125.76 266.192ZM125.968 265.056C126.48 265.056 126.917 264.923 127.28 264.656C127.653 264.389 127.936 264.043 128.128 263.616C128.32 263.189 128.416 262.741 128.416 262.272V262.256H126.384C125.594 262.256 125.034 262.395 124.704 262.672C124.384 262.939 124.224 263.275 124.224 263.68C124.224 264.096 124.373 264.432 124.672 264.688C124.981 264.933 125.413 265.056 125.968 265.056ZM138.298 266L135.29 258.064H136.698L139.082 264.704L141.482 258.064H142.858L139.85 266H138.298ZM145.17 256.304C144.903 256.304 144.679 256.219 144.498 256.048C144.327 255.867 144.242 255.643 144.242 255.376C144.242 255.12 144.327 254.907 144.498 254.736C144.679 254.565 144.903 254.48 145.17 254.48C145.426 254.48 145.645 254.565 145.826 254.736C146.007 254.907 146.098 255.12 146.098 255.376C146.098 255.643 146.007 255.867 145.826 256.048C145.645 256.219 145.426 256.304 145.17 256.304ZM144.498 266V258.064H145.842V266H144.498ZM151.782 266.192C150.993 266.192 150.299 266.011 149.702 265.648C149.115 265.285 148.657 264.789 148.326 264.16C148.006 263.531 147.846 262.816 147.846 262.016C147.846 261.216 148.011 260.507 148.342 259.888C148.673 259.259 149.131 258.768 149.718 258.416C150.305 258.053 150.998 257.872 151.798 257.872C152.449 257.872 153.025 258.005 153.526 258.272C154.027 258.539 154.417 258.912 154.694 259.392V254.48H156.038V266H154.822L154.694 264.688C154.438 265.072 154.07 265.419 153.59 265.728C153.11 266.037 152.507 266.192 151.782 266.192ZM151.926 265.024C152.459 265.024 152.929 264.901 153.334 264.656C153.75 264.4 154.07 264.048 154.294 263.6C154.529 263.152 154.646 262.629 154.646 262.032C154.646 261.435 154.529 260.912 154.294 260.464C154.07 260.016 153.75 259.669 153.334 259.424C152.929 259.168 152.459 259.04 151.926 259.04C151.403 259.04 150.934 259.168 150.518 259.424C150.113 259.669 149.793 260.016 149.558 260.464C149.334 260.912 149.222 261.435 149.222 262.032C149.222 262.629 149.334 263.152 149.558 263.6C149.793 264.048 150.113 264.4 150.518 264.656C150.934 264.901 151.403 265.024 151.926 265.024ZM160.869 266.192C160.208 266.192 159.658 266.08 159.221 265.856C158.784 265.632 158.458 265.333 158.245 264.96C158.032 264.587 157.925 264.181 157.925 263.744C157.925 262.933 158.234 262.309 158.853 261.872C159.472 261.435 160.314 261.216 161.381 261.216H163.525V261.12C163.525 260.427 163.344 259.904 162.981 259.552C162.618 259.189 162.133 259.008 161.525 259.008C161.002 259.008 160.549 259.141 160.165 259.408C159.792 259.664 159.557 260.043 159.461 260.544H158.085C158.138 259.968 158.33 259.483 158.661 259.088C159.002 258.693 159.424 258.395 159.925 258.192C160.426 257.979 160.96 257.872 161.525 257.872C162.634 257.872 163.466 258.171 164.021 258.768C164.586 259.355 164.869 260.139 164.869 261.12V266H163.669L163.589 264.576C163.365 265.024 163.034 265.408 162.597 265.728C162.17 266.037 161.594 266.192 160.869 266.192ZM161.077 265.056C161.589 265.056 162.026 264.923 162.389 264.656C162.762 264.389 163.045 264.043 163.237 263.616C163.429 263.189 163.525 262.741 163.525 262.272V262.256H161.493C160.704 262.256 160.144 262.395 159.813 262.672C159.493 262.939 159.333 263.275 159.333 263.68C159.333 264.096 159.482 264.432 159.781 264.688C160.09 264.933 160.522 265.056 161.077 265.056ZM174.16 266.192C173.21 266.192 172.421 265.952 171.792 265.472C171.162 264.992 170.794 264.341 170.688 263.52H172.064C172.149 263.936 172.368 264.299 172.72 264.608C173.082 264.907 173.568 265.056 174.176 265.056C174.741 265.056 175.157 264.939 175.424 264.704C175.69 264.459 175.824 264.171 175.824 263.84C175.824 263.36 175.648 263.04 175.296 262.88C174.954 262.72 174.469 262.576 173.84 262.448C173.413 262.363 172.986 262.24 172.56 262.08C172.133 261.92 171.776 261.696 171.488 261.408C171.2 261.109 171.056 260.72 171.056 260.24C171.056 259.547 171.312 258.981 171.824 258.544C172.346 258.096 173.05 257.872 173.936 257.872C174.778 257.872 175.466 258.085 176 258.512C176.544 258.928 176.858 259.525 176.944 260.304H175.616C175.562 259.899 175.386 259.584 175.088 259.36C174.8 259.125 174.41 259.008 173.92 259.008C173.44 259.008 173.066 259.109 172.8 259.312C172.544 259.515 172.416 259.781 172.416 260.112C172.416 260.432 172.581 260.683 172.912 260.864C173.253 261.045 173.712 261.2 174.288 261.328C174.778 261.435 175.242 261.568 175.68 261.728C176.128 261.877 176.49 262.107 176.768 262.416C177.056 262.715 177.2 263.152 177.2 263.728C177.21 264.443 176.938 265.035 176.384 265.504C175.84 265.963 175.098 266.192 174.16 266.192ZM182.688 266.192C181.93 266.192 181.258 266.021 180.672 265.68C180.085 265.328 179.621 264.843 179.28 264.224C178.949 263.605 178.784 262.875 178.784 262.032C178.784 261.2 178.949 260.475 179.28 259.856C179.61 259.227 180.069 258.741 180.656 258.4C181.253 258.048 181.941 257.872 182.72 257.872C183.488 257.872 184.149 258.048 184.704 258.4C185.269 258.741 185.701 259.195 186 259.76C186.298 260.325 186.448 260.933 186.448 261.584C186.448 261.701 186.442 261.819 186.432 261.936C186.432 262.053 186.432 262.187 186.432 262.336H180.112C180.144 262.944 180.282 263.451 180.528 263.856C180.784 264.251 181.098 264.549 181.472 264.752C181.856 264.955 182.261 265.056 182.688 265.056C183.242 265.056 183.706 264.928 184.08 264.672C184.453 264.416 184.725 264.069 184.896 263.632H186.224C186.01 264.368 185.6 264.981 184.992 265.472C184.394 265.952 183.626 266.192 182.688 266.192ZM182.688 259.008C182.048 259.008 181.477 259.205 180.976 259.6C180.485 259.984 180.202 260.549 180.128 261.296H185.12C185.088 260.581 184.842 260.021 184.384 259.616C183.925 259.211 183.36 259.008 182.688 259.008ZM188.229 266V254.48H189.573V266H188.229ZM194.064 266L191.056 258.064H192.464L194.848 264.704L197.248 258.064H198.624L195.616 266H194.064ZM202.353 266.192C201.692 266.192 201.143 266.08 200.705 265.856C200.268 265.632 199.943 265.333 199.729 264.96C199.516 264.587 199.409 264.181 199.409 263.744C199.409 262.933 199.719 262.309 200.337 261.872C200.956 261.435 201.799 261.216 202.865 261.216H205.009V261.12C205.009 260.427 204.828 259.904 204.465 259.552C204.103 259.189 203.617 259.008 203.009 259.008C202.487 259.008 202.033 259.141 201.649 259.408C201.276 259.664 201.041 260.043 200.945 260.544H199.569C199.623 259.968 199.815 259.483 200.145 259.088C200.487 258.693 200.908 258.395 201.409 258.192C201.911 257.979 202.444 257.872 203.009 257.872C204.119 257.872 204.951 258.171 205.505 258.768C206.071 259.355 206.353 260.139 206.353 261.12V266H205.153L205.073 264.576C204.849 265.024 204.519 265.408 204.081 265.728C203.655 266.037 203.079 266.192 202.353 266.192ZM202.561 265.056C203.073 265.056 203.511 264.923 203.873 264.656C204.247 264.389 204.529 264.043 204.721 263.616C204.913 263.189 205.009 262.741 205.009 262.272V262.256H202.977C202.188 262.256 201.628 262.395 201.297 262.672C200.977 262.939 200.817 263.275 200.817 263.68C200.817 264.096 200.967 264.432 201.265 264.688C201.575 264.933 202.007 265.056 202.561 265.056ZM211.506 263.504C211.058 263.504 210.647 263.445 210.274 263.328L209.474 264.08C209.591 264.165 209.735 264.24 209.906 264.304C210.087 264.357 210.343 264.411 210.674 264.464C211.004 264.507 211.468 264.555 212.066 264.608C213.132 264.683 213.895 264.928 214.354 265.344C214.812 265.76 215.042 266.304 215.042 266.976C215.042 267.435 214.914 267.872 214.658 268.288C214.412 268.704 214.028 269.045 213.506 269.312C212.994 269.579 212.332 269.712 211.522 269.712C210.807 269.712 210.172 269.616 209.618 269.424C209.063 269.243 208.631 268.96 208.322 268.576C208.012 268.203 207.858 267.728 207.858 267.152C207.858 266.853 207.938 266.528 208.098 266.176C208.258 265.835 208.556 265.509 208.994 265.2C208.759 265.104 208.556 265.003 208.386 264.896C208.226 264.779 208.076 264.651 207.938 264.512V264.144L209.298 262.8C208.668 262.267 208.354 261.563 208.354 260.688C208.354 260.165 208.476 259.691 208.722 259.264C208.967 258.837 209.324 258.501 209.794 258.256C210.263 258 210.834 257.872 211.506 257.872C211.964 257.872 212.38 257.936 212.754 258.064H215.682V259.072L214.194 259.136C214.503 259.584 214.658 260.101 214.658 260.688C214.658 261.211 214.53 261.685 214.274 262.112C214.028 262.539 213.671 262.88 213.202 263.136C212.743 263.381 212.178 263.504 211.506 263.504ZM211.506 262.4C212.071 262.4 212.519 262.256 212.85 261.968C213.191 261.669 213.362 261.243 213.362 260.688C213.362 260.144 213.191 259.728 212.85 259.44C212.519 259.141 212.071 258.992 211.506 258.992C210.93 258.992 210.471 259.141 210.13 259.44C209.799 259.728 209.634 260.144 209.634 260.688C209.634 261.243 209.799 261.669 210.13 261.968C210.471 262.256 210.93 262.4 211.506 262.4ZM209.17 267.024C209.17 267.557 209.394 267.952 209.842 268.208C210.29 268.475 210.85 268.608 211.522 268.608C212.183 268.608 212.711 268.464 213.106 268.176C213.511 267.888 213.714 267.504 213.714 267.024C213.714 266.683 213.575 266.384 213.298 266.128C213.02 265.883 212.508 265.739 211.762 265.696C211.175 265.653 210.668 265.6 210.242 265.536C209.804 265.771 209.516 266.021 209.378 266.288C209.239 266.565 209.17 266.811 209.17 267.024ZM220.453 266.192C219.696 266.192 219.024 266.021 218.437 265.68C217.851 265.328 217.387 264.843 217.045 264.224C216.715 263.605 216.549 262.875 216.549 262.032C216.549 261.2 216.715 260.475 217.045 259.856C217.376 259.227 217.835 258.741 218.421 258.4C219.019 258.048 219.707 257.872 220.485 257.872C221.253 257.872 221.915 258.048 222.469 258.4C223.035 258.741 223.467 259.195 223.765 259.76C224.064 260.325 224.213 260.933 224.213 261.584C224.213 261.701 224.208 261.819 224.197 261.936C224.197 262.053 224.197 262.187 224.197 262.336H217.877C217.909 262.944 218.048 263.451 218.293 263.856C218.549 264.251 218.864 264.549 219.237 264.752C219.621 264.955 220.027 265.056 220.453 265.056C221.008 265.056 221.472 264.928 221.845 264.672C222.219 264.416 222.491 264.069 222.661 263.632H223.989C223.776 264.368 223.365 264.981 222.757 265.472C222.16 265.952 221.392 266.192 220.453 266.192ZM220.453 259.008C219.813 259.008 219.243 259.205 218.741 259.6C218.251 259.984 217.968 260.549 217.893 261.296H222.885C222.853 260.581 222.608 260.021 222.149 259.616C221.691 259.211 221.125 259.008 220.453 259.008ZM225.995 266V258.064H227.211L227.307 259.216C227.563 258.789 227.904 258.459 228.331 258.224C228.757 257.989 229.237 257.872 229.771 257.872C230.4 257.872 230.939 258 231.387 258.256C231.845 258.512 232.197 258.901 232.443 259.424C232.72 258.944 233.099 258.565 233.579 258.288C234.069 258.011 234.597 257.872 235.163 257.872C236.112 257.872 236.869 258.16 237.435 258.736C238 259.301 238.283 260.176 238.283 261.36V266H236.955V261.504C236.955 260.683 236.789 260.064 236.459 259.648C236.128 259.232 235.653 259.024 235.035 259.024C234.395 259.024 233.861 259.275 233.435 259.776C233.019 260.267 232.811 260.971 232.811 261.888V266H231.467V261.504C231.467 260.683 231.301 260.064 230.971 259.648C230.64 259.232 230.165 259.024 229.547 259.024C228.917 259.024 228.389 259.275 227.963 259.776C227.547 260.267 227.339 260.971 227.339 261.888V266H225.995ZM248.11 266.192C247.352 266.192 246.68 266.021 246.094 265.68C245.507 265.328 245.043 264.843 244.702 264.224C244.371 263.605 244.206 262.875 244.206 262.032C244.206 261.2 244.371 260.475 244.702 259.856C245.032 259.227 245.491 258.741 246.078 258.4C246.675 258.048 247.363 257.872 248.141 257.872C248.91 257.872 249.571 258.048 250.126 258.4C250.691 258.741 251.123 259.195 251.422 259.76C251.72 260.325 251.87 260.933 251.87 261.584C251.87 261.701 251.864 261.819 251.854 261.936C251.854 262.053 251.854 262.187 251.854 262.336H245.534C245.566 262.944 245.704 263.451 245.95 263.856C246.206 264.251 246.52 264.549 246.894 264.752C247.278 264.955 247.683 265.056 248.11 265.056C248.664 265.056 249.128 264.928 249.502 264.672C249.875 264.416 250.147 264.069 250.318 263.632H251.646C251.432 264.368 251.022 264.981 250.414 265.472C249.816 265.952 249.048 266.192 248.11 266.192ZM248.11 259.008C247.47 259.008 246.899 259.205 246.398 259.6C245.907 259.984 245.624 260.549 245.549 261.296H250.542C250.51 260.581 250.264 260.021 249.806 259.616C249.347 259.211 248.782 259.008 248.11 259.008ZM42.0643 287.192C41.403 287.192 40.8536 287.08 40.4163 286.856C39.979 286.632 39.6536 286.333 39.4403 285.96C39.227 285.587 39.1203 285.181 39.1203 284.744C39.1203 283.933 39.4296 283.309 40.0483 282.872C40.667 282.435 41.5096 282.216 42.5763 282.216H44.7203V282.12C44.7203 281.427 44.539 280.904 44.1763 280.552C43.8136 280.189 43.3283 280.008 42.7203 280.008C42.1976 280.008 41.7443 280.141 41.3603 280.408C40.987 280.664 40.7523 281.043 40.6563 281.544H39.2803C39.3336 280.968 39.5256 280.483 39.8563 280.088C40.1976 279.693 40.619 279.395 41.1203 279.192C41.6216 278.979 42.155 278.872 42.7203 278.872C43.8296 278.872 44.6616 279.171 45.2163 279.768C45.7816 280.355 46.0643 281.139 46.0643 282.12V287H44.8643L44.7843 285.576C44.5603 286.024 44.2296 286.408 43.7923 286.728C43.3656 287.037 42.7896 287.192 42.0643 287.192ZM42.2723 286.056C42.7843 286.056 43.2216 285.923 43.5843 285.656C43.9576 285.389 44.2403 285.043 44.4323 284.616C44.6243 284.189 44.7203 283.741 44.7203 283.272V283.256H42.6883C41.899 283.256 41.339 283.395 41.0083 283.672C40.6883 283.939 40.5283 284.275 40.5283 284.68C40.5283 285.096 40.6776 285.432 40.9763 285.688C41.2856 285.933 41.7176 286.056 42.2723 286.056ZM48.0806 290.52V279.064H49.2966L49.4246 280.376C49.6806 279.992 50.0432 279.645 50.5126 279.336C50.9926 279.027 51.6006 278.872 52.3366 278.872C53.1259 278.872 53.8139 279.053 54.4006 279.416C54.9872 279.779 55.4406 280.275 55.7606 280.904C56.0912 281.533 56.2566 282.248 56.2566 283.048C56.2566 283.848 56.0912 284.563 55.7606 285.192C55.4406 285.811 54.9819 286.301 54.3846 286.664C53.7979 287.016 53.1099 287.192 52.3206 287.192C51.6699 287.192 51.0886 287.059 50.5766 286.792C50.0752 286.525 49.6912 286.152 49.4246 285.672V290.52H48.0806ZM52.1766 286.024C52.7099 286.024 53.1792 285.901 53.5846 285.656C53.9899 285.4 54.3099 285.048 54.5446 284.6C54.7792 284.152 54.8966 283.629 54.8966 283.032C54.8966 282.435 54.7792 281.912 54.5446 281.464C54.3099 281.016 53.9899 280.669 53.5846 280.424C53.1792 280.168 52.7099 280.04 52.1766 280.04C51.6432 280.04 51.1739 280.168 50.7686 280.424C50.3632 280.669 50.0432 281.016 49.8086 281.464C49.5739 281.912 49.4566 282.435 49.4566 283.032C49.4566 283.629 49.5739 284.152 49.8086 284.6C50.0432 285.048 50.3632 285.4 50.7686 285.656C51.1739 285.901 51.6432 286.024 52.1766 286.024ZM61.7434 287.192C60.9968 287.192 60.3248 287.021 59.7274 286.68C59.1301 286.339 58.6554 285.859 58.3034 285.24C57.9621 284.611 57.7914 283.875 57.7914 283.032C57.7914 282.189 57.9674 281.459 58.3194 280.84C58.6714 280.211 59.1461 279.725 59.7434 279.384C60.3514 279.043 61.0288 278.872 61.7754 278.872C62.5221 278.872 63.1941 279.043 63.7914 279.384C64.3888 279.725 64.8581 280.211 65.1994 280.84C65.5514 281.459 65.7274 282.189 65.7274 283.032C65.7274 283.875 65.5514 284.611 65.1994 285.24C64.8474 285.859 64.3674 286.339 63.7594 286.68C63.1621 287.021 62.4901 287.192 61.7434 287.192ZM61.7434 286.04C62.2021 286.04 62.6288 285.928 63.0234 285.704C63.4181 285.48 63.7381 285.144 63.9834 284.696C64.2288 284.248 64.3514 283.693 64.3514 283.032C64.3514 282.371 64.2288 281.816 63.9834 281.368C63.7488 280.92 63.4341 280.584 63.0394 280.36C62.6448 280.136 62.2234 280.024 61.7754 280.024C61.3168 280.024 60.8901 280.136 60.4954 280.36C60.1008 280.584 59.7808 280.92 59.5354 281.368C59.2901 281.816 59.1674 282.371 59.1674 283.032C59.1674 283.693 59.2901 284.248 59.5354 284.696C59.7808 285.144 60.0954 285.48 60.4794 285.704C60.8741 285.928 61.2954 286.04 61.7434 286.04ZM68.4122 277.304C68.1455 277.304 67.9215 277.219 67.7402 277.048C67.5695 276.867 67.4842 276.643 67.4842 276.376C67.4842 276.12 67.5695 275.907 67.7402 275.736C67.9215 275.565 68.1455 275.48 68.4122 275.48C68.6682 275.48 68.8869 275.565 69.0682 275.736C69.2495 275.907 69.3402 276.12 69.3402 276.376C69.3402 276.643 69.2495 276.867 69.0682 277.048C68.8869 277.219 68.6682 277.304 68.4122 277.304ZM67.7402 287V279.064H69.0842V287H67.7402ZM74.0643 287.192C73.403 287.192 72.8536 287.08 72.4163 286.856C71.979 286.632 71.6536 286.333 71.4403 285.96C71.227 285.587 71.1203 285.181 71.1203 284.744C71.1203 283.933 71.4296 283.309 72.0483 282.872C72.667 282.435 73.5096 282.216 74.5763 282.216H76.7203V282.12C76.7203 281.427 76.539 280.904 76.1763 280.552C75.8136 280.189 75.3283 280.008 74.7203 280.008C74.1976 280.008 73.7443 280.141 73.3603 280.408C72.987 280.664 72.7523 281.043 72.6563 281.544H71.2803C71.3336 280.968 71.5256 280.483 71.8563 280.088C72.1976 279.693 72.619 279.395 73.1203 279.192C73.6216 278.979 74.155 278.872 74.7203 278.872C75.8296 278.872 76.6616 279.171 77.2163 279.768C77.7816 280.355 78.0643 281.139 78.0643 282.12V287H76.8643L76.7843 285.576C76.5603 286.024 76.2296 286.408 75.7923 286.728C75.3656 287.037 74.7896 287.192 74.0643 287.192ZM74.2723 286.056C74.7843 286.056 75.2216 285.923 75.5843 285.656C75.9576 285.389 76.2403 285.043 76.4323 284.616C76.6243 284.189 76.7203 283.741 76.7203 283.272V283.256H74.6883C73.899 283.256 73.339 283.395 73.0083 283.672C72.6883 283.939 72.5283 284.275 72.5283 284.68C72.5283 285.096 72.6776 285.432 72.9763 285.688C73.2856 285.933 73.7176 286.056 74.2723 286.056ZM80.0806 287V279.064H81.2966L81.3766 280.488C81.6326 279.987 82.0006 279.592 82.4806 279.304C82.9606 279.016 83.5046 278.872 84.1126 278.872C85.0512 278.872 85.7979 279.16 86.3526 279.736C86.9179 280.301 87.2006 281.176 87.2006 282.36V287H85.8566V282.504C85.8566 280.851 85.1739 280.024 83.8086 280.024C83.1259 280.024 82.5552 280.275 82.0966 280.776C81.6486 281.267 81.4246 281.971 81.4246 282.888V287H80.0806ZM92.8368 287.192C92.0475 287.192 91.3541 287.011 90.7568 286.648C90.1701 286.285 89.7115 285.789 89.3808 285.16C89.0608 284.531 88.9008 283.816 88.9008 283.016C88.9008 282.216 89.0661 281.507 89.3968 280.888C89.7275 280.259 90.1861 279.768 90.7728 279.416C91.3595 279.053 92.0528 278.872 92.8528 278.872C93.5035 278.872 94.0795 279.005 94.5808 279.272C95.0821 279.539 95.4715 279.912 95.7488 280.392V275.48H97.0928V287H95.8768L95.7488 285.688C95.4928 286.072 95.1248 286.419 94.6448 286.728C94.1648 287.037 93.5621 287.192 92.8368 287.192ZM92.9808 286.024C93.5141 286.024 93.9835 285.901 94.3888 285.656C94.8048 285.4 95.1248 285.048 95.3488 284.6C95.5835 284.152 95.7008 283.629 95.7008 283.032C95.7008 282.435 95.5835 281.912 95.3488 281.464C95.1248 281.016 94.8048 280.669 94.3888 280.424C93.9835 280.168 93.5141 280.04 92.9808 280.04C92.4581 280.04 91.9888 280.168 91.5728 280.424C91.1675 280.669 90.8475 281.016 90.6128 281.464C90.3888 281.912 90.2768 282.435 90.2768 283.032C90.2768 283.629 90.3888 284.152 90.6128 284.6C90.8475 285.048 91.1675 285.4 91.5728 285.656C91.9888 285.901 92.4581 286.024 92.9808 286.024ZM102.9 287.192C102.153 287.192 101.481 287.021 100.884 286.68C100.286 286.339 99.8117 285.859 99.4597 285.24C99.1184 284.611 98.9477 283.875 98.9477 283.032C98.9477 282.189 99.1237 281.459 99.4757 280.84C99.8277 280.211 100.302 279.725 100.9 279.384C101.508 279.043 102.185 278.872 102.932 278.872C103.678 278.872 104.35 279.043 104.948 279.384C105.545 279.725 106.014 280.211 106.356 280.84C106.708 281.459 106.884 282.189 106.884 283.032C106.884 283.875 106.708 284.611 106.356 285.24C106.004 285.859 105.524 286.339 104.916 286.68C104.318 287.021 103.646 287.192 102.9 287.192ZM102.9 286.04C103.358 286.04 103.785 285.928 104.18 285.704C104.574 285.48 104.894 285.144 105.14 284.696C105.385 284.248 105.508 283.693 105.508 283.032C105.508 282.371 105.385 281.816 105.14 281.368C104.905 280.92 104.59 280.584 104.196 280.36C103.801 280.136 103.38 280.024 102.932 280.024C102.473 280.024 102.046 280.136 101.652 280.36C101.257 280.584 100.937 280.92 100.692 281.368C100.446 281.816 100.324 282.371 100.324 283.032C100.324 283.693 100.446 284.248 100.692 284.696C100.937 285.144 101.252 285.48 101.636 285.704C102.03 285.928 102.452 286.04 102.9 286.04ZM115.627 287.192C114.965 287.192 114.416 287.08 113.979 286.856C113.541 286.632 113.216 286.333 113.003 285.96C112.789 285.587 112.683 285.181 112.683 284.744C112.683 283.933 112.992 283.309 113.611 282.872C114.229 282.435 115.072 282.216 116.139 282.216H118.283V282.12C118.283 281.427 118.101 280.904 117.739 280.552C117.376 280.189 116.891 280.008 116.283 280.008C115.76 280.008 115.307 280.141 114.923 280.408C114.549 280.664 114.315 281.043 114.219 281.544H112.843C112.896 280.968 113.088 280.483 113.419 280.088C113.76 279.693 114.181 279.395 114.683 279.192C115.184 278.979 115.717 278.872 116.283 278.872C117.392 278.872 118.224 279.171 118.779 279.768C119.344 280.355 119.627 281.139 119.627 282.12V287H118.427L118.347 285.576C118.123 286.024 117.792 286.408 117.355 286.728C116.928 287.037 116.352 287.192 115.627 287.192ZM115.835 286.056C116.347 286.056 116.784 285.923 117.147 285.656C117.52 285.389 117.803 285.043 117.995 284.616C118.187 284.189 118.283 283.741 118.283 283.272V283.256H116.251C115.461 283.256 114.901 283.395 114.571 283.672C114.251 283.939 114.091 284.275 114.091 284.68C114.091 285.096 114.24 285.432 114.539 285.688C114.848 285.933 115.28 286.056 115.835 286.056ZM124.683 287.192C123.734 287.192 122.944 286.952 122.315 286.472C121.686 285.992 121.318 285.341 121.211 284.52H122.587C122.672 284.936 122.891 285.299 123.243 285.608C123.606 285.907 124.091 286.056 124.699 286.056C125.264 286.056 125.68 285.939 125.947 285.704C126.214 285.459 126.347 285.171 126.347 284.84C126.347 284.36 126.171 284.04 125.819 283.88C125.478 283.72 124.992 283.576 124.363 283.448C123.936 283.363 123.51 283.24 123.083 283.08C122.656 282.92 122.299 282.696 122.011 282.408C121.723 282.109 121.579 281.72 121.579 281.24C121.579 280.547 121.835 279.981 122.347 279.544C122.87 279.096 123.574 278.872 124.459 278.872C125.302 278.872 125.99 279.085 126.523 279.512C127.067 279.928 127.382 280.525 127.467 281.304H126.139C126.086 280.899 125.91 280.584 125.611 280.36C125.323 280.125 124.934 280.008 124.443 280.008C123.963 280.008 123.59 280.109 123.323 280.312C123.067 280.515 122.939 280.781 122.939 281.112C122.939 281.432 123.104 281.683 123.435 281.864C123.776 282.045 124.235 282.2 124.811 282.328C125.302 282.435 125.766 282.568 126.203 282.728C126.651 282.877 127.014 283.107 127.291 283.416C127.579 283.715 127.723 284.152 127.723 284.728C127.734 285.443 127.462 286.035 126.907 286.504C126.363 286.963 125.622 287.192 124.683 287.192ZM137.525 287.192C136.768 287.192 136.085 287.021 135.477 286.68C134.88 286.328 134.405 285.843 134.053 285.224C133.712 284.595 133.541 283.864 133.541 283.032C133.541 282.2 133.712 281.475 134.053 280.856C134.405 280.227 134.88 279.741 135.477 279.4C136.085 279.048 136.768 278.872 137.525 278.872C138.464 278.872 139.253 279.117 139.893 279.608C140.544 280.099 140.955 280.755 141.125 281.576H139.749C139.643 281.085 139.381 280.707 138.965 280.44C138.549 280.163 138.064 280.024 137.509 280.024C137.061 280.024 136.64 280.136 136.245 280.36C135.851 280.584 135.531 280.92 135.285 281.368C135.04 281.816 134.917 282.371 134.917 283.032C134.917 283.693 135.04 284.248 135.285 284.696C135.531 285.144 135.851 285.485 136.245 285.72C136.64 285.944 137.061 286.056 137.509 286.056C138.064 286.056 138.549 285.923 138.965 285.656C139.381 285.379 139.643 284.989 139.749 284.488H141.125C140.965 285.288 140.56 285.939 139.909 286.44C139.259 286.941 138.464 287.192 137.525 287.192ZM146.618 287.192C145.872 287.192 145.2 287.021 144.602 286.68C144.005 286.339 143.53 285.859 143.178 285.24C142.837 284.611 142.666 283.875 142.666 283.032C142.666 282.189 142.842 281.459 143.194 280.84C143.546 280.211 144.021 279.725 144.618 279.384C145.226 279.043 145.904 278.872 146.65 278.872C147.397 278.872 148.069 279.043 148.666 279.384C149.264 279.725 149.733 280.211 150.074 280.84C150.426 281.459 150.602 282.189 150.602 283.032C150.602 283.875 150.426 284.611 150.074 285.24C149.722 285.859 149.242 286.339 148.634 286.68C148.037 287.021 147.365 287.192 146.618 287.192ZM146.618 286.04C147.077 286.04 147.504 285.928 147.898 285.704C148.293 285.48 148.613 285.144 148.858 284.696C149.104 284.248 149.226 283.693 149.226 283.032C149.226 282.371 149.104 281.816 148.858 281.368C148.624 280.92 148.309 280.584 147.914 280.36C147.52 280.136 147.098 280.024 146.65 280.024C146.192 280.024 145.765 280.136 145.37 280.36C144.976 280.584 144.656 280.92 144.41 281.368C144.165 281.816 144.042 282.371 144.042 283.032C144.042 283.693 144.165 284.248 144.41 284.696C144.656 285.144 144.97 285.48 145.354 285.704C145.749 285.928 146.17 286.04 146.618 286.04ZM152.471 287V279.064H153.687L153.783 280.216C154.039 279.789 154.381 279.459 154.807 279.224C155.234 278.989 155.714 278.872 156.247 278.872C156.877 278.872 157.415 279 157.863 279.256C158.322 279.512 158.674 279.901 158.919 280.424C159.197 279.944 159.575 279.565 160.055 279.288C160.546 279.011 161.074 278.872 161.639 278.872C162.589 278.872 163.346 279.16 163.911 279.736C164.477 280.301 164.759 281.176 164.759 282.36V287H163.431V282.504C163.431 281.683 163.266 281.064 162.935 280.648C162.605 280.232 162.13 280.024 161.511 280.024C160.871 280.024 160.338 280.275 159.911 280.776C159.495 281.267 159.287 281.971 159.287 282.888V287H157.943V282.504C157.943 281.683 157.778 281.064 157.447 280.648C157.117 280.232 156.642 280.024 156.023 280.024C155.394 280.024 154.866 280.275 154.439 280.776C154.023 281.267 153.815 281.971 153.815 282.888V287H152.471ZM169.68 287.192C168.741 287.192 167.994 286.909 167.44 286.344C166.885 285.768 166.608 284.888 166.608 283.704V279.064H167.952V283.56C167.952 285.213 168.629 286.04 169.984 286.04C170.677 286.04 171.248 285.795 171.696 285.304C172.154 284.803 172.384 284.093 172.384 283.176V279.064H173.728V287H172.512L172.416 285.576C172.17 286.077 171.802 286.472 171.312 286.76C170.832 287.048 170.288 287.192 169.68 287.192ZM175.94 287V279.064H177.156L177.236 280.488C177.492 279.987 177.86 279.592 178.34 279.304C178.82 279.016 179.364 278.872 179.972 278.872C180.911 278.872 181.657 279.16 182.212 279.736C182.777 280.301 183.06 281.176 183.06 282.36V287H181.716V282.504C181.716 280.851 181.033 280.024 179.668 280.024C178.985 280.024 178.415 280.275 177.956 280.776C177.508 281.267 177.284 281.971 177.284 282.888V287H175.94ZM185.912 277.304C185.646 277.304 185.422 277.219 185.24 277.048C185.07 276.867 184.984 276.643 184.984 276.376C184.984 276.12 185.07 275.907 185.24 275.736C185.422 275.565 185.646 275.48 185.912 275.48C186.168 275.48 186.387 275.565 186.568 275.736C186.75 275.907 186.84 276.12 186.84 276.376C186.84 276.643 186.75 276.867 186.568 277.048C186.387 277.219 186.168 277.304 185.912 277.304ZM185.24 287V279.064H186.584V287H185.24ZM192.524 287.192C191.735 287.192 191.042 287.011 190.444 286.648C189.858 286.285 189.399 285.789 189.068 285.16C188.748 284.531 188.588 283.816 188.588 283.016C188.588 282.216 188.754 281.507 189.084 280.888C189.415 280.259 189.874 279.768 190.46 279.416C191.047 279.053 191.74 278.872 192.54 278.872C193.191 278.872 193.767 279.005 194.268 279.272C194.77 279.539 195.159 279.912 195.436 280.392V275.48H196.78V287H195.564L195.436 285.688C195.18 286.072 194.812 286.419 194.332 286.728C193.852 287.037 193.25 287.192 192.524 287.192ZM192.668 286.024C193.202 286.024 193.671 285.901 194.076 285.656C194.492 285.4 194.812 285.048 195.036 284.6C195.271 284.152 195.388 283.629 195.388 283.032C195.388 282.435 195.271 281.912 195.036 281.464C194.812 281.016 194.492 280.669 194.076 280.424C193.671 280.168 193.202 280.04 192.668 280.04C192.146 280.04 191.676 280.168 191.26 280.424C190.855 280.669 190.535 281.016 190.3 281.464C190.076 281.912 189.964 282.435 189.964 283.032C189.964 283.629 190.076 284.152 190.3 284.6C190.535 285.048 190.855 285.4 191.26 285.656C191.676 285.901 192.146 286.024 192.668 286.024ZM201.611 287.192C200.95 287.192 200.401 287.08 199.963 286.856C199.526 286.632 199.201 286.333 198.987 285.96C198.774 285.587 198.667 285.181 198.667 284.744C198.667 283.933 198.977 283.309 199.595 282.872C200.214 282.435 201.057 282.216 202.123 282.216H204.267V282.12C204.267 281.427 204.086 280.904 203.723 280.552C203.361 280.189 202.875 280.008 202.267 280.008C201.745 280.008 201.291 280.141 200.907 280.408C200.534 280.664 200.299 281.043 200.203 281.544H198.827C198.881 280.968 199.073 280.483 199.403 280.088C199.745 279.693 200.166 279.395 200.667 279.192C201.169 278.979 201.702 278.872 202.267 278.872C203.377 278.872 204.209 279.171 204.763 279.768C205.329 280.355 205.611 281.139 205.611 282.12V287H204.411L204.331 285.576C204.107 286.024 203.777 286.408 203.339 286.728C202.913 287.037 202.337 287.192 201.611 287.192ZM201.819 286.056C202.331 286.056 202.769 285.923 203.131 285.656C203.505 285.389 203.787 285.043 203.979 284.616C204.171 284.189 204.267 283.741 204.267 283.272V283.256H202.235C201.446 283.256 200.886 283.395 200.555 283.672C200.235 283.939 200.075 284.275 200.075 284.68C200.075 285.096 200.225 285.432 200.523 285.688C200.833 285.933 201.265 286.056 201.819 286.056ZM211.227 287.192C210.438 287.192 209.745 287.011 209.147 286.648C208.561 286.285 208.102 285.789 207.771 285.16C207.451 284.531 207.291 283.816 207.291 283.016C207.291 282.216 207.457 281.507 207.787 280.888C208.118 280.259 208.577 279.768 209.163 279.416C209.75 279.053 210.443 278.872 211.243 278.872C211.894 278.872 212.47 279.005 212.971 279.272C213.473 279.539 213.862 279.912 214.139 280.392V275.48H215.483V287H214.267L214.139 285.688C213.883 286.072 213.515 286.419 213.035 286.728C212.555 287.037 211.953 287.192 211.227 287.192ZM211.371 286.024C211.905 286.024 212.374 285.901 212.779 285.656C213.195 285.4 213.515 285.048 213.739 284.6C213.974 284.152 214.091 283.629 214.091 283.032C214.091 282.435 213.974 281.912 213.739 281.464C213.515 281.016 213.195 280.669 212.779 280.424C212.374 280.168 211.905 280.04 211.371 280.04C210.849 280.04 210.379 280.168 209.963 280.424C209.558 280.669 209.238 281.016 209.003 281.464C208.779 281.912 208.667 282.435 208.667 283.032C208.667 283.629 208.779 284.152 209.003 284.6C209.238 285.048 209.558 285.4 209.963 285.656C210.379 285.901 210.849 286.024 211.371 286.024ZM221.242 287.192C220.485 287.192 219.813 287.021 219.226 286.68C218.64 286.328 218.176 285.843 217.834 285.224C217.504 284.605 217.338 283.875 217.338 283.032C217.338 282.2 217.504 281.475 217.834 280.856C218.165 280.227 218.624 279.741 219.21 279.4C219.808 279.048 220.496 278.872 221.274 278.872C222.042 278.872 222.704 279.048 223.258 279.4C223.824 279.741 224.256 280.195 224.554 280.76C224.853 281.325 225.002 281.933 225.002 282.584C225.002 282.701 224.997 282.819 224.986 282.936C224.986 283.053 224.986 283.187 224.986 283.336H218.666C218.698 283.944 218.837 284.451 219.082 284.856C219.338 285.251 219.653 285.549 220.026 285.752C220.41 285.955 220.816 286.056 221.242 286.056C221.797 286.056 222.261 285.928 222.634 285.672C223.008 285.416 223.28 285.069 223.45 284.632H224.778C224.565 285.368 224.154 285.981 223.546 286.472C222.949 286.952 222.181 287.192 221.242 287.192ZM221.242 280.008C220.602 280.008 220.032 280.205 219.53 280.6C219.04 280.984 218.757 281.549 218.682 282.296H223.674C223.642 281.581 223.397 281.021 222.938 280.616C222.48 280.211 221.914 280.008 221.242 280.008ZM229.824 287.192C228.874 287.192 228.085 286.952 227.456 286.472C226.826 285.992 226.458 285.341 226.352 284.52H227.728C227.813 284.936 228.032 285.299 228.384 285.608C228.746 285.907 229.232 286.056 229.84 286.056C230.405 286.056 230.821 285.939 231.088 285.704C231.354 285.459 231.488 285.171 231.488 284.84C231.488 284.36 231.312 284.04 230.96 283.88C230.618 283.72 230.133 283.576 229.504 283.448C229.077 283.363 228.65 283.24 228.224 283.08C227.797 282.92 227.44 282.696 227.152 282.408C226.864 282.109 226.72 281.72 226.72 281.24C226.72 280.547 226.976 279.981 227.488 279.544C228.01 279.096 228.714 278.872 229.6 278.872C230.442 278.872 231.13 279.085 231.664 279.512C232.208 279.928 232.522 280.525 232.608 281.304H231.28C231.226 280.899 231.05 280.584 230.752 280.36C230.464 280.125 230.074 280.008 229.584 280.008C229.104 280.008 228.73 280.109 228.464 280.312C228.208 280.515 228.08 280.781 228.08 281.112C228.08 281.432 228.245 281.683 228.576 281.864C228.917 282.045 229.376 282.2 229.952 282.328C230.442 282.435 230.906 282.568 231.344 282.728C231.792 282.877 232.154 283.107 232.432 283.416C232.72 283.715 232.864 284.152 232.864 284.728C232.874 285.443 232.602 286.035 232.048 286.504C231.504 286.963 230.762 287.192 229.824 287.192Z" fill="white"/>
<circle cx="136.5" cy="96.5" r="96.5" fill="#5BB474"/>
<path d="M133.046 50.0947L105.495 80.4316C104.772 81.2109 104.383 82.25 104.383 83.3076C104.383 85.6826 106.292 87.5938 108.665 87.5938H113.282L99.6733 101.213C98.8946 101.992 98.4496 103.068 98.4496 104.182C98.4496 106.501 100.322 108.375 102.64 108.375H108.832L95.0012 124.981C94.3523 125.761 94 126.744 94 127.765C94 130.177 95.9467 132.125 98.3569 132.125H129.597V138.062C129.597 141.347 132.248 144 135.53 144C138.812 144 141.463 141.347 141.463 138.062V132.125H172.703C175.113 132.125 177.06 130.177 177.06 127.765C177.06 126.744 176.708 125.761 176.059 124.981L162.228 108.375H168.42C170.738 108.375 172.61 106.501 172.61 104.182C172.61 103.068 172.165 101.992 171.387 101.213L157.778 87.5938H162.395C164.749 87.5938 166.678 85.6826 166.678 83.3076C166.678 82.25 166.288 81.2109 165.565 80.4316L138.014 50.0947C137.384 49.3896 136.476 49 135.53 49C134.585 49 133.676 49.3896 133.046 50.0947Z" fill="white"/>
</svg>
